<svg width="215" height="146" viewBox="0 0 215 146" fill="none" xmlns="http://www.w3.org/2000/svg">
<g clipPath="url(#clip0_698_644)">
<path d="M214.667 0.781982H0.666504V145.782H214.667V0.781982Z" fill="white"/>
<path d="M205.037 30.7497V115.499C205.037 129.089 193.577 138.255 179.73 140.106C163.183 142.317 145.748 141.286 112.905 139.106C93.7327 137.834 55.4228 139.939 36.228 140.106C22.252 140.226 10.9209 129.089 10.9209 115.499V30.7497C10.9209 17.1599 22.2753 5.34397 36.228 6.14305C49.185 6.88539 68.2427 9.824 88.1098 8.0249C111.739 5.88457 156.587 4.06656 179.73 6.14305C193.647 7.3921 205.037 17.1591 205.037 30.7497Z" fill="#DAEBE8"/>
<path opacity="0.5" d="M109.776 128.989C152.302 128.989 186.777 124.522 186.777 119.011C186.777 113.501 152.302 109.034 109.776 109.034C67.249 109.034 32.7744 113.501 32.7744 119.011C32.7744 124.522 67.249 128.989 109.776 128.989Z" fill="#B8D5DC"/>
<path d="M49.5621 115.917H47.1235L49.307 95.8066H51.7455L49.5621 115.917Z" fill="#99C4CC"/>
<path d="M70.2463 102.105H34.9348L29.5352 80.8346H64.8475L70.2463 102.105Z" fill="#99C4CC"/>
<path d="M71.5947 102.105H36.2831L30.8843 80.8346H66.1958L71.5947 102.105Z" fill="#B8D5DC"/>
<path d="M67.5464 86.0042H32.2349V86.3091H67.5464V86.0042Z" fill="#99C4CC"/>
<path d="M68.8951 91.3171H33.5835V91.6221H68.8951V91.3171Z" fill="#99C4CC"/>
<path d="M70.2442 96.6293H34.9326V96.9342H70.2442V96.6293Z" fill="#99C4CC"/>
<path d="M37.3484 80.7977L37.0586 80.8737L42.4576 102.144L42.7474 102.068L37.3484 80.7977Z" fill="#99C4CC"/>
<path d="M44.8152 80.7963L44.5254 80.8723L49.9244 102.143L50.2142 102.067L44.8152 80.7963Z" fill="#99C4CC"/>
<path d="M52.2786 80.798L51.9888 80.874L57.3878 102.144L57.6776 102.068L52.2786 80.798Z" fill="#99C4CC"/>
<path d="M59.7454 80.7963L59.4556 80.8723L64.8546 102.143L65.1444 102.067L59.7454 80.7963Z" fill="#99C4CC"/>
<path d="M47.8013 114.087H51.9347C52.9295 114.087 53.7351 114.906 53.7351 115.917H47.8013V114.087Z" fill="#99C4CC"/>
<path d="M86.3703 114.058H84.7661L86.2029 100.827H87.8071L86.3703 114.058Z" fill="#99C4CC"/>
<path d="M99.9797 107.824H76.7468L73.1948 93.8302H96.427L99.9797 107.824Z" fill="#99C4CC"/>
<path d="M100.867 107.824H77.634L74.082 93.8302H97.315L100.867 107.824Z" fill="#B8D5DC"/>
<path d="M98.2032 97.2306H74.9702V97.4323H98.2032V97.2306Z" fill="#99C4CC"/>
<path d="M99.0914 100.726H75.8584V100.927H99.0914V100.726Z" fill="#99C4CC"/>
<path d="M99.9773 104.221H76.7451V104.423H99.9773V104.221Z" fill="#99C4CC"/>
<path d="M78.3382 93.801L78.1475 93.851L81.6997 107.846L81.8904 107.796L78.3382 93.801Z" fill="#99C4CC"/>
<path d="M83.2473 93.8042L83.0566 93.8542L86.609 107.85L86.7997 107.8L83.2473 93.8042Z" fill="#99C4CC"/>
<path d="M88.159 93.8041L87.9683 93.8541L91.5206 107.849L91.7113 107.799L88.159 93.8041Z" fill="#99C4CC"/>
<path d="M93.0711 93.8039L92.8804 93.8539L96.4328 107.849L96.6235 107.799L93.0711 93.8039Z" fill="#99C4CC"/>
<path d="M85.2124 112.854H87.9316C88.586 112.854 89.1163 113.393 89.1163 114.058H85.2124V112.854Z" fill="#99C4CC"/>
<g opacity="0.8">
<path d="M160.336 36.2456C160.336 36.2456 158.723 33.0934 154.642 33.4882C150.562 33.883 151.048 37.0431 149.104 36.7468C147.161 36.4505 144.44 36.7468 143.857 38.7216C143.274 40.6964 140.651 39.6105 140.554 41.289C140.457 42.9676 143.566 44.1528 147.161 42.6713C150.755 41.1897 152.505 43.8218 157.557 43.345C162.609 42.8683 163.235 42.2757 166.225 42.572C169.216 42.8683 169.145 40.7871 167.785 39.4048C166.425 38.0234 160.919 38.155 160.336 36.2456Z" fill="white"/>
</g>
<g opacity="0.6">
<path d="M103.391 21.2112C103.391 21.2112 102.266 19.0118 99.419 19.2876C96.5719 19.5634 96.9107 21.7684 95.5546 21.5611C94.1985 21.3546 92.3004 21.5611 91.8941 22.9394C91.4871 24.3177 89.6572 23.5596 89.589 24.7306C89.5207 25.9016 91.6902 26.7283 94.1985 25.6952C96.7068 24.6621 97.9272 26.4982 101.452 26.1656C104.977 25.8331 105.414 25.4194 107.501 25.6266C109.587 25.8331 109.537 24.3815 108.588 23.417C107.639 22.4516 103.797 22.5438 103.391 21.2112Z" fill="white"/>
</g>
<g opacity="0.6">
<path d="M55.1939 39.7555C55.1939 39.7555 53.9208 36.9855 50.6983 37.333C47.4767 37.6798 47.8597 40.456 46.3261 40.196C44.7916 39.9359 42.6439 40.196 42.1833 41.9313C41.7228 43.6665 39.6518 42.7122 39.575 44.1874C39.4982 45.6626 41.953 46.7036 44.7916 45.4018C47.6302 44.1007 49.0112 46.4129 52.9996 45.9944C56.9889 45.576 57.4828 45.0551 59.8437 45.3151C62.2047 45.5752 62.1489 43.7469 61.075 42.5325C60.0011 41.3174 55.6537 41.4324 55.1939 39.7555Z" fill="white"/>
</g>
<path d="M173.731 114.805H171.752L171.917 99.9903L172.171 77.2986H173.068L173.422 97.3448L173.731 114.805Z" fill="white"/>
<path d="M173.422 97.3448C172.981 98.0139 172.438 98.9154 171.917 99.9903L172.17 77.2986H173.067L173.422 97.3448Z" fill="#B8D5DC"/>
<path d="M172.517 77.7171L172.113 76.4735C171.68 75.141 171.943 73.6768 172.811 72.5861L180.52 62.905C180.655 62.7356 180.916 62.9082 180.818 63.102L173.401 77.7872C173.206 78.1726 172.651 78.1292 172.517 77.7171Z" fill="white"/>
<path d="M172.89 76.9519L174.177 76.8936C175.556 76.8305 176.873 77.4846 177.67 78.6296L184.754 88.7922C184.878 88.9703 184.644 89.1784 184.487 89.0302L172.586 77.7983C172.272 77.5035 172.465 76.9716 172.89 76.9519Z" fill="white"/>
<path d="M173.299 77.249L172.644 78.3767C171.942 79.5847 170.684 80.3476 169.304 80.4004L157.059 80.874C156.844 80.8826 156.801 80.5698 157.009 80.517L172.769 76.5263C173.183 76.4223 173.516 76.8762 173.299 77.249Z" fill="white"/>
<path d="M173.697 77.8899C173.97 77.3716 173.778 76.7264 173.268 76.4488C172.758 76.1712 172.123 76.3663 171.85 76.8846C171.577 77.4029 171.769 78.0482 172.279 78.3257C172.789 78.6033 173.424 78.4082 173.697 77.8899Z" fill="#366F90"/>
<path d="M176.252 115.408H169.23C169.23 114.236 170.166 113.285 171.319 113.285H174.164C175.318 113.286 176.252 114.236 176.252 115.408Z" fill="white"/>
<path d="M163.335 117.412H160.082L160.354 96.9997L160.77 65.7349H162.245L162.828 93.355L163.335 117.412Z" fill="white"/>
<path d="M162.827 93.355C162.102 94.277 161.209 95.519 160.354 96.9997L160.77 65.7349H162.245L162.827 93.355Z" fill="#B8D5DC"/>
<path d="M161.654 65.1674L162.445 66.9626C163.293 68.8862 163.12 71.1164 161.987 72.8816L151.925 88.5534C151.749 88.8277 151.333 88.6109 151.45 88.3052L160.322 65.2005C160.555 64.5937 161.392 64.5733 161.654 65.1674Z" fill="white"/>
<path d="M161.211 66.3693L159.297 66.6577C157.245 66.9666 155.179 66.1943 153.814 64.6072L141.694 50.5209C141.481 50.2743 141.8 49.9267 142.057 50.1237L161.54 65.0572C162.051 65.4496 161.844 66.2739 161.211 66.3693Z" fill="white"/>
<path d="M160.556 65.9887L161.364 64.2014C162.231 62.2864 163.997 60.9507 166.051 60.656L184.282 58.0397C184.601 57.994 184.714 58.455 184.411 58.5661L161.457 66.9855C160.854 67.207 160.287 66.5805 160.556 65.9887Z" fill="white"/>
<path d="M162.639 64.8451C163.111 65.5867 162.901 66.5765 162.172 67.0564C161.442 67.5355 160.468 67.3228 159.996 66.5812C159.525 65.8397 159.734 64.8499 160.464 64.37C161.193 63.8908 162.167 64.1036 162.639 64.8451Z" fill="#366F90"/>
<path d="M167.478 118.404H155.939C155.939 116.478 157.475 114.917 159.37 114.917H164.047C165.942 114.916 167.478 116.478 167.478 118.404Z" fill="white"/>
<path d="M82.1155 84.3422C82.2404 88.0712 82.5342 91.7915 82.735 95.5166C82.8157 97.0155 82.9103 98.5073 82.4923 99.9675C82.152 101.158 81.4937 102.194 80.5625 102.995C78.0162 105.187 74.4263 105.008 71.3054 105.31C68.6103 105.57 65.5763 106.335 63.8209 108.608C61.8964 111.099 62.4337 114.482 64.307 116.832C66.3524 119.4 69.7454 120.341 72.8422 120.682C76.4523 121.08 80.1756 120.664 83.6143 119.475C84.4548 119.185 85.286 118.842 86.0613 118.401C86.839 117.959 87.5477 117.407 88.2665 116.875C89.6001 115.888 91.0213 115.08 92.586 114.538C99.1906 112.249 106.207 114.252 112.316 117.088C113.127 117.464 113.93 117.857 114.73 118.258C115.431 118.609 116.049 117.542 115.345 117.188C109.203 114.106 102.502 111.511 95.5363 112.546C93.9476 112.783 92.4007 113.224 90.926 113.869C89.3737 114.549 88.0602 115.527 86.6917 116.515C83.8012 118.601 80.0469 119.412 76.5523 119.564C73.3345 119.703 69.7159 119.368 66.9401 117.556C64.6831 116.082 62.9261 112.943 64.2279 110.254C65.4189 107.793 68.3908 106.872 70.8813 106.593C74.1502 106.226 77.6719 106.434 80.5477 104.536C82.818 103.037 83.9299 100.588 84.0283 97.8855C84.0935 96.0864 83.8865 94.255 83.7756 92.4606C83.6616 90.6134 83.5414 88.7662 83.446 86.9183C83.4019 86.0601 83.3639 85.2019 83.3352 84.343C83.308 83.5462 82.0892 83.5431 82.1155 84.3422Z" fill="#367743"/>
<path d="M82.5428 84.3422C82.6676 88.0712 82.9615 91.7915 83.1623 95.5166C83.2429 97.0155 83.3375 98.5073 82.9196 99.9675C82.5792 101.158 81.9209 102.194 80.9897 102.995C78.4434 105.187 74.8535 105.008 71.7327 105.31C69.0375 105.57 66.0035 106.335 64.2481 108.608C62.3237 111.099 62.861 114.482 64.7342 116.832C66.7797 119.4 70.1719 120.341 73.2694 120.682C76.8795 121.08 80.6028 120.664 84.0416 119.475C84.882 119.185 85.7132 118.842 86.4886 118.401C87.2663 117.959 87.975 117.407 88.6937 116.875C90.0273 115.888 91.4486 115.08 93.0133 114.538C99.6178 112.249 106.634 114.252 112.743 117.088C113.554 117.464 114.357 117.857 115.157 118.258C115.858 118.609 116.477 117.542 115.772 117.188C109.63 114.106 102.929 111.511 95.9635 112.546C94.3748 112.783 92.828 113.224 91.3532 113.869C89.8009 114.549 88.4875 115.527 87.119 116.515C84.2284 118.601 80.4741 119.412 76.9795 119.564C73.7618 119.703 70.1432 119.368 67.3674 117.556C65.1103 116.082 63.3533 112.943 64.6552 110.254C65.8461 107.793 68.8181 106.872 71.3085 106.593C74.5775 106.226 78.0992 106.434 80.975 104.536C83.2453 103.037 84.3571 100.588 84.4556 97.8855C84.5207 96.0864 84.3137 94.255 84.2028 92.4606C84.0888 90.6134 83.9687 88.7662 83.8733 86.9183C83.8291 86.0601 83.7911 85.2019 83.7624 84.343C83.7353 83.5462 82.5156 83.5431 82.5428 84.3422Z" fill="#17BA09"/>
<path d="M83.6314 92.5087C81.9341 92.5087 80.5586 91.1107 80.5586 89.3857V87.4266C80.5586 85.7016 81.9341 84.3036 83.6314 84.3036C85.3286 84.3036 86.7041 85.7016 86.7041 87.4266V89.3857C86.7041 91.1107 85.3286 92.5087 83.6314 92.5087Z" fill="#367743"/>
<path d="M71.9631 32.9822V63.4621C71.9631 64.9279 71.0001 66.177 69.6843 66.586C69.3881 66.6782 69.0749 66.7278 68.7492 66.7278C66.9822 66.7278 65.5361 65.2581 65.5361 63.4621V32.9822C65.5361 31.1863 66.9822 29.7166 68.7492 29.7166C69.0741 29.7166 69.3881 29.7662 69.6843 29.8584C70.1937 30.0168 70.6504 30.3013 71.0187 30.6756C71.6018 31.2682 71.9631 32.0838 71.9631 32.9822Z" fill="#B8D5DC"/>
<path d="M71.9629 32.9822V63.4622C71.9629 64.9279 70.9999 66.177 69.6841 66.586C68.3691 66.177 67.4053 64.9279 67.4053 63.4622V32.9822C67.4053 31.5164 68.3683 30.2674 69.6841 29.8584C70.1935 30.0168 70.6502 30.3013 71.0185 30.6756C71.6015 31.2682 71.9629 32.0838 71.9629 32.9822Z" fill="white"/>
<path d="M99.57 32.9822V63.4621C99.57 64.9279 98.607 66.177 97.2913 66.586C96.9951 66.6782 96.6818 66.7278 96.3562 66.7278C94.5891 66.7278 93.1431 65.2581 93.1431 63.4621V32.9822C93.1431 31.1863 94.5891 29.7166 96.3562 29.7166C96.681 29.7166 96.9951 29.7662 97.2913 29.8584C97.8007 30.0168 98.2574 30.3013 98.6257 30.6756C99.2079 31.2682 99.57 32.0838 99.57 32.9822Z" fill="#B8D5DC"/>
<path d="M99.5698 32.9822V63.4622C99.5698 64.9279 98.6068 66.177 97.291 66.586C95.976 66.177 95.0122 64.9279 95.0122 63.4622V32.9822C95.0122 31.5164 95.9752 30.2674 97.291 29.8584C97.8004 30.0168 98.2571 30.3013 98.6254 30.6756C99.2077 31.2682 99.5698 32.0838 99.5698 32.9822Z" fill="white"/>
<path d="M98.3533 88.6173H61.505C59.2161 88.6173 57.3599 86.7315 57.3599 84.4044V53.4816C57.3599 51.1552 59.2153 49.2687 61.505 49.2687H98.3533C100.642 49.2687 102.498 51.1545 102.498 53.4816V84.4044C102.498 86.7315 100.642 88.6173 98.3533 88.6173Z" fill="#367743"/>
<path d="M101.541 88.6173H67.41C65.1979 88.6173 63.4053 86.7946 63.4053 84.5471V53.3398C63.4053 51.0915 65.1987 49.2695 67.41 49.2695H101.541C103.754 49.2695 105.546 51.0923 105.546 53.3398V84.5471C105.546 86.7946 103.753 88.6173 101.541 88.6173Z" fill="#A1E00E"/>
<path d="M78.3393 80.7361L84.132 72.0432H77.6616L85.8301 58.8025H91.1948L84.4282 69.2346H91.1948L78.3393 80.7361Z" fill="#ACAB58"/>
<path d="M78.3393 80.7361L82.9807 72.0432H76.5103L84.6787 58.8025H90.0434L83.2768 69.2346H90.0434L78.3393 80.7361Z" fill="white"/>
<path d="M153.28 102.328C153.228 102.64 153.259 103.294 153.212 103.607C153.192 103.744 153.155 104.209 153.281 104.261C153.391 104.306 153.588 103.968 153.663 103.793C154.125 104.868 155.101 106.101 154.27 103.91C154.271 103.91 154.272 103.909 154.274 103.909C154.358 104.092 154.938 105.456 155.181 105.258C155.359 105.113 154.85 104.004 154.714 103.701C154.716 103.7 154.719 103.698 154.721 103.697C154.884 103.994 155.331 104.916 155.508 104.787C155.741 104.617 155.13 103.445 155.13 103.445C155.13 103.445 155.615 104.429 155.788 104.133C155.885 103.967 155.581 103.393 155.387 103.039C155.346 102.964 155.31 102.899 155.284 102.85C155.262 102.809 155.239 102.775 155.214 102.746C154.856 102.172 154.54 101.858 154.54 101.858C154.54 101.858 154.226 101.425 153.741 101.64C153.431 101.775 153.302 102.192 153.28 102.328Z" fill="#FFB27D"/>
<path d="M134.136 88.2729C134.103 87.9577 133.898 87.3399 133.859 87.0246C133.842 86.8883 133.754 86.4304 133.618 86.4178C133.5 86.4068 133.402 86.789 133.377 86.9789C132.645 86.0821 131.379 85.1838 132.762 87.0435C132.761 87.0443 132.76 87.0443 132.76 87.0451C132.629 86.8938 131.708 85.7543 131.528 86.0151C131.396 86.2066 132.18 87.1224 132.392 87.373C132.391 87.3753 132.388 87.3769 132.387 87.3793C132.151 87.1413 131.475 86.3871 131.339 86.5628C131.161 86.7945 132.061 87.7402 132.061 87.7402C132.061 87.7402 131.332 86.9372 131.245 87.2721C131.195 87.4604 131.641 87.9222 131.922 88.2059C131.981 88.265 132.033 88.317 132.072 88.3564C132.104 88.3895 132.135 88.4155 132.166 88.436C132.664 88.8828 133.051 89.0917 133.051 89.0917C133.051 89.0917 133.468 89.4156 133.878 89.068C134.138 88.8466 134.151 88.4092 134.136 88.2729Z" fill="#FFB27D"/>
<path d="M144.325 120.937C144.325 120.937 144.351 121.655 143.868 121.886C143.387 122.117 141.966 122.381 142.529 122.812C142.852 123.06 144.288 122.806 144.696 122.782C145.105 122.759 145.499 122.912 145.786 122.626C146.101 122.312 145.679 120.86 145.679 120.86C145.679 120.86 145.338 121.06 145.02 121.071C144.563 121.085 144.325 120.937 144.325 120.937Z" fill="#331832"/>
<path d="M151.424 118.336C151.424 118.336 152.473 121.166 152.26 121.673C152.048 122.181 151.156 123.367 151.851 123.296C152.249 123.255 153.16 122.066 153.45 121.764C153.74 121.462 154.131 121.301 154.163 120.888C154.199 120.434 152.808 118.985 152.808 118.985C152.808 118.985 152.673 116.921 152.442 117.15C152.111 117.479 151.424 118.336 151.424 118.336Z" fill="#331832"/>
<path d="M144.626 86.6708C144.626 86.6708 144.708 85.432 145.819 85.5345C146.93 85.6377 146.535 86.4013 146.694 86.6464C146.854 86.8915 146.242 87.4061 145.702 87.3856C145.162 87.3659 144.626 86.6708 144.626 86.6708Z" fill="#EF8062"/>
<path d="M140.561 103.143C140.76 100.866 145.363 103.502 145.363 103.502C145.363 103.502 146.974 119.198 146.031 121.374C145.845 121.803 145.083 121.779 144.728 121.729C142.214 121.383 141.765 113.547 141.184 110.094C140.892 108.362 140.44 104.521 140.561 103.143Z" fill="#EF8062"/>
<path d="M149.537 103.312C149.392 103.869 147.267 104.407 144.752 103.756C142.238 103.104 140.279 102.427 140.424 101.87C140.569 101.313 142.763 101.086 145.277 101.738C147.792 102.39 149.682 102.755 149.537 103.312Z" fill="#331832"/>
<path d="M141.598 94.4646C140.982 94.1698 140.424 93.749 140.424 93.749C140.424 93.749 141.81 91.44 144.606 91.6599C144.993 91.6906 146.738 92.0445 147.112 92.1209C151.913 93.1005 149.559 103.095 149.537 103.312C144.713 101.039 140.425 101.869 140.425 101.869C140.473 98.0399 141.516 94.6545 141.598 94.4646Z" fill="#358A53"/>
<path d="M148.666 103.408C148.666 103.408 144.448 101.963 140.93 102.099C140.768 102.105 140.637 102.228 140.623 102.387C140.623 102.387 140.525 103.668 140.547 104.094C140.595 105.039 148.938 104.886 148.938 104.886L148.666 103.408Z" fill="#EF8062"/>
<path d="M146.636 92.0209C146.198 92.4984 145.715 92.6442 145.09 92.63C144.143 92.608 144.606 91.6608 144.606 91.6608C144.839 91.6608 144.968 91.5481 144.993 91.3203L145.023 91.0413L145.037 90.9027L145.085 90.4606L145.127 90.0634L145.299 88.4337L145.699 90.1059L145.767 90.3904L146.001 91.3708C146.076 91.6836 146.318 91.9295 146.632 92.0201C146.633 92.0193 146.635 92.0201 146.636 92.0209Z" fill="#FFB27D"/>
<path d="M145.766 90.3896C145.766 90.3896 145.476 90.8656 145.037 90.9019L145.084 90.4598C145.359 90.4133 145.766 90.3896 145.766 90.3896Z" fill="#331832"/>
<path d="M147.455 89.0097C147.455 89.0097 147.285 89.2264 147.201 89.7915C147.077 90.6181 146.086 90.533 145.963 90.2241C145.948 90.1863 146.549 88.9593 146.549 88.9593L146.894 88.9254L147.455 89.0097Z" fill="#EF8062"/>
<path d="M146.846 89.3784C147.301 88.4384 147.042 87.3629 146.269 86.9763C145.495 86.5897 144.5 87.0383 144.045 87.9783C143.59 88.9183 143.848 89.9937 144.622 90.3803C145.395 90.767 146.391 90.3184 146.846 89.3784Z" fill="#FFB27D"/>
<path d="M145.492 87.0972C145.507 87.1681 144.88 87.9506 146.458 88.9286C148.036 89.9066 147.936 87.4557 146.722 86.8458C144.968 85.964 144.173 87.0207 144.152 87.5219C144.13 88.0231 145.492 87.0972 145.492 87.0972Z" fill="#EF8062"/>
<path d="M146.401 88.5621C146.401 88.5621 146.763 89.5819 146.197 90.1957C146.197 90.1957 146.787 89.9522 146.869 89.7978C146.949 89.6433 147.105 89.0223 147.105 89.0223L146.401 88.5621Z" fill="#EF8062"/>
<path d="M146.57 89.5007C146.339 89.5779 146.108 89.4896 146.05 89.3044C145.994 89.1192 146.134 88.9065 146.363 88.8292C146.594 88.752 146.826 88.8403 146.883 89.0255C146.939 89.2107 146.799 89.4234 146.57 89.5007Z" fill="#FFB27D"/>
<path d="M145.309 88.6299C145.301 88.6228 145.296 88.6125 145.296 88.6015C145.297 88.5826 145.313 88.5676 145.332 88.5684C145.344 88.5692 145.611 88.5589 145.71 88.8521C145.716 88.8702 145.707 88.8899 145.688 88.8962C145.67 88.9025 145.653 88.8907 145.643 88.8742C145.539 88.7079 145.339 88.6393 145.33 88.6385C145.322 88.6377 145.315 88.6346 145.309 88.6299Z" fill="#080435"/>
<path d="M145.407 89.0956C145.375 89.172 145.303 89.2154 145.246 89.1917C145.189 89.1681 145.169 89.0861 145.201 89.0097C145.233 88.9333 145.305 88.8899 145.362 88.9136C145.418 88.9372 145.438 89.0192 145.407 89.0956Z" fill="#080435"/>
<path d="M144.077 88.2658C144.067 88.2626 144.058 88.2547 144.054 88.2437C144.047 88.2256 144.056 88.2059 144.075 88.1988C144.086 88.1949 144.328 88.0845 144.531 88.3209C144.544 88.3359 144.543 88.358 144.529 88.3706C144.514 88.3832 144.494 88.3785 144.478 88.3674C144.318 88.2524 144.108 88.2626 144.1 88.2658C144.093 88.2681 144.085 88.2681 144.077 88.2658Z" fill="#080435"/>
<path d="M144.348 88.663C144.348 88.7466 144.298 88.8135 144.237 88.8127C144.175 88.812 144.125 88.7434 144.125 88.6599C144.125 88.5763 144.175 88.5094 144.236 88.5101C144.297 88.5117 144.347 88.5795 144.348 88.663Z" fill="#080435"/>
<path opacity="0.3" d="M146.142 88.9231C146.086 89.3912 145.759 89.7947 145.411 89.8254C145.063 89.8562 144.826 89.5015 144.882 89.0334C144.938 88.5653 145.265 88.1619 145.613 88.1311C145.961 88.1004 146.198 88.455 146.142 88.9231Z" fill="white"/>
<path opacity="0.3" d="M144.529 88.7801C144.726 88.3477 144.674 87.897 144.412 87.7734C144.149 87.6498 143.777 87.9001 143.579 88.3324C143.382 88.7647 143.435 89.2154 143.697 89.3391C143.959 89.4627 144.332 89.2124 144.529 88.7801Z" fill="white"/>
<path d="M146.142 89.1113C146.16 89.053 146.176 88.9923 146.185 88.9301C146.189 88.9088 146.192 88.8875 146.194 88.8663C146.198 88.83 146.201 88.7945 146.202 88.7591C146.208 88.5116 146.136 88.2957 145.997 88.1546C145.888 88.0427 145.749 87.99 145.594 88.0026C145.562 88.0057 145.531 88.0104 145.5 88.0183C145.25 88.0814 145.02 88.3107 144.893 88.607C144.879 88.6409 144.865 88.674 144.855 88.7094C144.827 88.7922 144.807 88.8773 144.797 88.9655C144.788 89.0507 144.787 89.1334 144.795 89.2114C144.813 89.4005 144.882 89.5637 144.993 89.6779C145.038 89.7236 145.089 89.7607 145.145 89.7859C145.161 89.7938 145.178 89.8001 145.195 89.8064C145.258 89.8277 145.326 89.8363 145.397 89.83C145.47 89.8245 145.543 89.8032 145.613 89.7701C145.789 89.6866 145.946 89.5227 146.054 89.317C146.066 89.2965 146.077 89.2745 146.087 89.2524C146.108 89.2067 146.126 89.1602 146.142 89.1113ZM144.924 89.4723C144.888 89.3935 144.864 89.3028 144.855 89.2059C144.847 89.1318 144.847 89.0522 144.856 88.9726C144.865 88.8923 144.882 88.8142 144.906 88.7394C144.917 88.7031 144.931 88.6692 144.945 88.6354C145.067 88.3454 145.29 88.1231 145.531 88.0703C145.554 88.064 145.577 88.0617 145.601 88.0593C145.664 88.0538 145.723 88.0609 145.779 88.0798C145.845 88.1011 145.904 88.1397 145.957 88.1933C146.029 88.2665 146.082 88.3651 146.112 88.4793C146.125 88.525 146.133 88.5723 146.138 88.6228C146.138 88.6259 146.139 88.6283 146.139 88.6306C146.139 88.6322 146.139 88.6338 146.139 88.6354C146.142 88.6614 146.144 88.6874 146.143 88.7134C146.145 88.7599 146.142 88.8087 146.136 88.8576C146.13 88.9112 146.121 88.9632 146.108 89.0136C146.099 89.0483 146.089 89.0814 146.078 89.1145C146.066 89.1492 146.052 89.1838 146.039 89.2169V89.2177C145.942 89.4344 145.79 89.611 145.615 89.7024C145.544 89.741 145.469 89.7646 145.392 89.7701C145.311 89.7764 145.235 89.7623 145.165 89.7299C145.118 89.7079 145.075 89.6764 145.036 89.6362C144.992 89.5913 144.955 89.5361 144.926 89.4738C144.926 89.4746 144.925 89.4738 144.924 89.4723Z" fill="#331832"/>
<path d="M144.548 88.7119C144.557 88.689 144.565 88.6654 144.574 88.6418C144.563 88.6425 144.555 88.6433 144.551 88.6441C144.515 88.7718 144.462 88.8908 144.397 88.994C144.397 88.9932 144.398 88.9924 144.398 88.9924C144.406 88.9814 144.414 88.9696 144.422 88.9586C144.422 88.957 144.424 88.9546 144.425 88.953C144.434 88.9396 144.443 88.9254 144.45 88.9105C144.463 88.8892 144.476 88.8679 144.487 88.8459C144.498 88.8238 144.509 88.8017 144.52 88.7781C144.53 88.7568 144.539 88.734 144.548 88.7119ZM144.548 88.7119C144.557 88.689 144.565 88.6654 144.574 88.6418C144.563 88.6425 144.555 88.6433 144.551 88.6441C144.515 88.7718 144.462 88.8908 144.397 88.994C144.397 88.9932 144.398 88.9924 144.398 88.9924C144.406 88.9814 144.414 88.9696 144.422 88.9586C144.422 88.957 144.424 88.9546 144.425 88.953C144.434 88.9396 144.443 88.9254 144.45 88.9105C144.463 88.8892 144.476 88.8679 144.487 88.8459C144.498 88.8238 144.509 88.8017 144.52 88.7781C144.53 88.7568 144.539 88.734 144.548 88.7119ZM144.548 88.7119C144.557 88.689 144.565 88.6654 144.574 88.6418C144.563 88.6425 144.555 88.6433 144.551 88.6441C144.515 88.7718 144.462 88.8908 144.397 88.994C144.397 88.9932 144.398 88.9924 144.398 88.9924C144.406 88.9814 144.414 88.9696 144.422 88.9586C144.422 88.957 144.424 88.9546 144.425 88.953C144.434 88.9396 144.443 88.9254 144.45 88.9105C144.463 88.8892 144.476 88.8679 144.487 88.8459C144.498 88.8238 144.509 88.8017 144.52 88.7781C144.53 88.7568 144.539 88.734 144.548 88.7119ZM144.548 88.7119C144.557 88.689 144.565 88.6654 144.574 88.6418C144.563 88.6425 144.555 88.6433 144.551 88.6441C144.515 88.7718 144.462 88.8908 144.397 88.994C144.397 88.9932 144.398 88.9924 144.398 88.9924C144.406 88.9814 144.414 88.9696 144.422 88.9586C144.422 88.957 144.424 88.9546 144.425 88.953C144.434 88.9396 144.443 88.9254 144.45 88.9105C144.463 88.8892 144.476 88.8679 144.487 88.8459C144.498 88.8238 144.509 88.8017 144.52 88.7781C144.53 88.7568 144.539 88.734 144.548 88.7119ZM144.548 88.7119C144.557 88.689 144.565 88.6654 144.574 88.6418C144.563 88.6425 144.555 88.6433 144.551 88.6441C144.515 88.7718 144.462 88.8908 144.397 88.994C144.397 88.9932 144.398 88.9924 144.398 88.9924C144.406 88.9814 144.414 88.9696 144.422 88.9586C144.422 88.957 144.424 88.9546 144.425 88.953C144.434 88.9396 144.443 88.9254 144.45 88.9105C144.463 88.8892 144.476 88.8679 144.487 88.8459C144.498 88.8238 144.509 88.8017 144.52 88.7781C144.53 88.7568 144.539 88.734 144.548 88.7119ZM144.548 88.7119C144.557 88.689 144.565 88.6654 144.574 88.6418C144.563 88.6425 144.555 88.6433 144.551 88.6441C144.515 88.7718 144.462 88.8908 144.397 88.994C144.397 88.9932 144.398 88.9924 144.398 88.9924C144.406 88.9814 144.414 88.9696 144.422 88.9586C144.422 88.957 144.424 88.9546 144.425 88.953C144.434 88.9396 144.443 88.9254 144.45 88.9105C144.463 88.8892 144.476 88.8679 144.487 88.8459C144.498 88.8238 144.509 88.8017 144.52 88.7781C144.53 88.7568 144.539 88.734 144.548 88.7119ZM144.548 88.7119C144.557 88.689 144.565 88.6654 144.574 88.6418C144.563 88.6425 144.555 88.6433 144.551 88.6441C144.515 88.7718 144.462 88.8908 144.397 88.994C144.397 88.9932 144.398 88.9924 144.398 88.9924C144.406 88.9814 144.414 88.9696 144.422 88.9586C144.422 88.957 144.424 88.9546 144.425 88.953C144.434 88.9396 144.443 88.9254 144.45 88.9105C144.463 88.8892 144.476 88.8679 144.487 88.8459C144.498 88.8238 144.509 88.8017 144.52 88.7781C144.53 88.7568 144.539 88.734 144.548 88.7119ZM144.548 88.7119C144.557 88.689 144.565 88.6654 144.574 88.6418C144.563 88.6425 144.555 88.6433 144.551 88.6441C144.515 88.7718 144.462 88.8908 144.397 88.994C144.397 88.9932 144.398 88.9924 144.398 88.9924C144.406 88.9814 144.414 88.9696 144.422 88.9586C144.422 88.957 144.424 88.9546 144.425 88.953C144.434 88.9396 144.443 88.9254 144.45 88.9105C144.463 88.8892 144.476 88.8679 144.487 88.8459C144.498 88.8238 144.509 88.8017 144.52 88.7781C144.53 88.7568 144.539 88.734 144.548 88.7119ZM144.612 88.6402C144.622 88.6055 144.631 88.5693 144.637 88.5338C144.641 88.5149 144.644 88.4952 144.646 88.4755C144.69 88.1745 144.628 87.9034 144.481 87.7497C144.445 87.7142 144.408 87.6851 144.366 87.6646C144.332 87.648 144.297 87.6362 144.26 87.6299C144.233 87.626 144.206 87.6244 144.177 87.626H144.177C144.17 87.626 144.163 87.6268 144.156 87.6268C143.823 87.6567 143.494 88.0791 143.423 88.57C143.38 88.8711 143.442 89.1422 143.589 89.2958C143.626 89.3352 143.668 89.3652 143.714 89.3865C143.767 89.4109 143.826 89.4227 143.887 89.4203C143.888 89.4203 143.889 89.4203 143.89 89.4203C143.897 89.4203 143.904 89.4196 143.912 89.4188C144.033 89.4077 144.153 89.3463 144.26 89.247V89.2462H144.261C144.367 89.1485 144.461 89.0153 144.531 88.8624C144.565 88.7923 144.593 88.7174 144.612 88.6402ZM144.388 89.0082C144.322 89.1091 144.245 89.1942 144.162 89.2549C144.093 89.3069 144.019 89.3407 143.946 89.3534C143.946 89.3534 143.946 89.3541 143.945 89.3541C143.945 89.3549 143.944 89.3541 143.944 89.3541C143.942 89.3549 143.938 89.3557 143.936 89.3557C143.927 89.3581 143.918 89.3589 143.908 89.3597C143.897 89.3605 143.887 89.3612 143.877 89.3605C143.784 89.3605 143.701 89.325 143.634 89.2549C143.501 89.1162 143.445 88.8695 143.482 88.5905C143.482 88.5897 143.482 88.589 143.482 88.5882C143.482 88.5874 143.482 88.5858 143.483 88.5858C143.483 88.5858 143.483 88.585 143.483 88.5842C143.483 88.5819 143.484 88.5803 143.484 88.5779C143.552 88.1122 143.857 87.7111 144.165 87.6835C144.185 87.6819 144.204 87.6819 144.223 87.6835C144.262 87.6859 144.298 87.6953 144.332 87.7111C144.371 87.7292 144.408 87.7544 144.439 87.7883C144.442 87.7907 144.444 87.7938 144.446 87.797C144.51 87.8663 144.556 87.9617 144.581 88.0728C144.606 88.1894 144.61 88.3226 144.59 88.4652C144.587 88.4873 144.583 88.5094 144.579 88.5314C144.571 88.5693 144.563 88.6071 144.552 88.6441C144.515 88.7718 144.463 88.8908 144.398 88.994C144.394 88.998 144.391 89.0035 144.388 89.0082ZM144.548 88.7119C144.557 88.689 144.565 88.6654 144.574 88.6418C144.563 88.6425 144.555 88.6433 144.551 88.6441C144.515 88.7718 144.462 88.8908 144.397 88.994C144.397 88.9932 144.398 88.9924 144.398 88.9924C144.406 88.9814 144.414 88.9696 144.422 88.9586C144.422 88.957 144.424 88.9546 144.425 88.953C144.434 88.9396 144.443 88.9254 144.45 88.9105C144.463 88.8892 144.476 88.8679 144.487 88.8459C144.498 88.8238 144.509 88.8017 144.52 88.7781C144.53 88.7568 144.539 88.734 144.548 88.7119ZM144.548 88.7119C144.557 88.689 144.565 88.6654 144.574 88.6418C144.563 88.6425 144.555 88.6433 144.551 88.6441C144.515 88.7718 144.462 88.8908 144.397 88.994C144.397 88.9932 144.398 88.9924 144.398 88.9924C144.406 88.9814 144.414 88.9696 144.422 88.9586C144.422 88.957 144.424 88.9546 144.425 88.953C144.434 88.9396 144.443 88.9254 144.45 88.9105C144.463 88.8892 144.476 88.8679 144.487 88.8459C144.498 88.8238 144.509 88.8017 144.52 88.7781C144.53 88.7568 144.539 88.734 144.548 88.7119ZM144.548 88.7119C144.557 88.689 144.565 88.6654 144.574 88.6418C144.563 88.6425 144.555 88.6433 144.551 88.6441C144.515 88.7718 144.462 88.8908 144.397 88.994C144.397 88.9932 144.398 88.9924 144.398 88.9924C144.406 88.9814 144.414 88.9696 144.422 88.9586C144.422 88.957 144.424 88.9546 144.425 88.953C144.434 88.9396 144.443 88.9254 144.45 88.9105C144.463 88.8892 144.476 88.8679 144.487 88.8459C144.498 88.8238 144.509 88.8017 144.52 88.7781C144.53 88.7568 144.539 88.734 144.548 88.7119ZM144.548 88.7119C144.557 88.689 144.565 88.6654 144.574 88.6418C144.563 88.6425 144.555 88.6433 144.551 88.6441C144.515 88.7718 144.462 88.8908 144.397 88.994C144.397 88.9932 144.398 88.9924 144.398 88.9924C144.406 88.9814 144.414 88.9696 144.422 88.9586C144.422 88.957 144.424 88.9546 144.425 88.953C144.434 88.9396 144.443 88.9254 144.45 88.9105C144.463 88.8892 144.476 88.8679 144.487 88.8459C144.498 88.8238 144.509 88.8017 144.52 88.7781C144.53 88.7568 144.539 88.734 144.548 88.7119ZM144.548 88.7119C144.557 88.689 144.565 88.6654 144.574 88.6418C144.563 88.6425 144.555 88.6433 144.551 88.6441C144.515 88.7718 144.462 88.8908 144.397 88.994C144.397 88.9932 144.398 88.9924 144.398 88.9924C144.406 88.9814 144.414 88.9696 144.422 88.9586C144.422 88.957 144.424 88.9546 144.425 88.953C144.434 88.9396 144.443 88.9254 144.45 88.9105C144.463 88.8892 144.476 88.8679 144.487 88.8459C144.498 88.8238 144.509 88.8017 144.52 88.7781C144.53 88.7568 144.539 88.734 144.548 88.7119ZM144.548 88.7119C144.557 88.689 144.565 88.6654 144.574 88.6418C144.563 88.6425 144.555 88.6433 144.551 88.6441C144.515 88.7718 144.462 88.8908 144.397 88.994C144.397 88.9932 144.398 88.9924 144.398 88.9924C144.406 88.9814 144.414 88.9696 144.422 88.9586C144.422 88.957 144.424 88.9546 144.425 88.953C144.434 88.9396 144.443 88.9254 144.45 88.9105C144.463 88.8892 144.476 88.8679 144.487 88.8459C144.498 88.8238 144.509 88.8017 144.52 88.7781C144.53 88.7568 144.539 88.734 144.548 88.7119ZM144.548 88.7119C144.557 88.689 144.565 88.6654 144.574 88.6418C144.563 88.6425 144.555 88.6433 144.551 88.6441C144.515 88.7718 144.462 88.8908 144.397 88.994C144.397 88.9932 144.398 88.9924 144.398 88.9924C144.406 88.9814 144.414 88.9696 144.422 88.9586C144.422 88.957 144.424 88.9546 144.425 88.953C144.434 88.9396 144.443 88.9254 144.45 88.9105C144.463 88.8892 144.476 88.8679 144.487 88.8459C144.498 88.8238 144.509 88.8017 144.52 88.7781C144.53 88.7568 144.539 88.734 144.548 88.7119Z" fill="#331832"/>
<path d="M144.511 88.6409C144.496 88.6338 144.484 88.6212 144.48 88.6039C144.473 88.5747 144.491 88.5456 144.52 88.5385C144.53 88.5361 144.754 88.4881 144.998 88.6725C145.022 88.6906 145.027 88.7252 145.009 88.7489C144.991 88.7725 144.956 88.7765 144.932 88.7583C144.73 88.6047 144.549 88.6441 144.547 88.6441C144.534 88.6472 144.522 88.6457 144.511 88.6409Z" fill="#331832"/>
<path d="M146.972 87.3383C146.972 87.3383 147.616 86.2808 148.566 86.871C149.517 87.4605 149.057 87.9246 148.842 88.2462C148.681 88.4857 148.085 88.7135 147.61 88.4526C147.134 88.1926 146.972 87.3383 146.972 87.3383Z" fill="#EF8062"/>
<path d="M146.584 91.0689C146.573 91.0689 146.562 91.0634 146.556 91.0532C146.555 91.05 146.344 90.7293 145.944 90.5575C145.927 90.5504 145.919 90.5299 145.926 90.5134C145.933 90.4937 145.951 90.4874 145.97 90.4952C146.39 90.6757 146.604 91.0027 146.613 91.0169C146.623 91.0327 146.619 91.054 146.604 91.0642C146.597 91.0666 146.59 91.0689 146.584 91.0689Z" fill="#EF8062"/>
<path d="M144.77 89.8553C144.609 89.8553 144.358 89.8222 144.266 89.6268C144.262 89.6173 144.265 89.6063 144.274 89.6015C144.283 89.5984 144.294 89.6007 144.298 89.6102C144.424 89.8781 144.905 89.8127 144.909 89.8096C144.917 89.8104 144.927 89.8151 144.929 89.8253C144.93 89.8356 144.923 89.845 144.914 89.8466C144.907 89.8474 144.849 89.8553 144.77 89.8553Z" fill="#020202"/>
<path d="M144.606 91.66C144.606 91.66 144.192 92.5859 145.09 92.6293C145.09 92.6293 144.608 93.0832 144.282 92.8893C143.955 92.6955 144.275 92.5363 144.137 92.4086C143.999 92.2809 143.847 92.188 143.991 92.0453C144.135 91.9035 144 91.645 144 91.645C144 91.645 144.392 91.5662 144.606 91.66Z" fill="#DAEBE8"/>
<path d="M144.24 93.976C144.242 93.8995 144.18 93.8357 144.102 93.8341C144.025 93.8326 143.96 93.8932 143.958 93.9697C143.956 94.0461 144.019 94.1099 144.096 94.1115C144.174 94.1131 144.238 94.0524 144.24 93.976Z" fill="#DAEBE8"/>
<path d="M143.547 98.4222C143.549 98.3457 143.487 98.2819 143.409 98.2803C143.331 98.2787 143.267 98.3394 143.265 98.4158C143.264 98.4923 143.326 98.5561 143.403 98.5577C143.481 98.5593 143.546 98.4986 143.547 98.4222Z" fill="#DAEBE8"/>
<path d="M143.592 96.4015C143.594 96.3251 143.532 96.2612 143.454 96.2597C143.376 96.2581 143.312 96.3188 143.31 96.3952C143.309 96.4717 143.371 96.5355 143.448 96.5371C143.526 96.5386 143.591 96.478 143.592 96.4015Z" fill="#DAEBE8"/>
<path d="M141.087 95.3818C141.087 95.3818 140.515 97.519 140.45 101.047L143.999 91.6457C143.999 91.6457 141.865 91.7285 139.234 91.0626C137.613 90.6528 134.722 88.1634 134.42 87.9853C134.092 87.793 132.928 89.217 132.928 89.217C132.668 89.6811 136.751 94.3282 141.087 95.3818Z" fill="#358A53"/>
<path d="M147.273 92.158C147.273 92.158 150.367 92.2297 154.665 101.348C154.789 101.613 154.689 101.934 154.438 102.071L153.439 102.611C153.009 102.845 152.48 102.703 152.212 102.281C151.306 100.859 149.233 97.8169 147.537 96.917C145.297 95.7294 147.273 92.158 147.273 92.158Z" fill="#358A53"/>
<path d="M146.636 92.0209L147.273 92.158C147.273 92.158 147.379 92.4874 147.063 92.5843C146.748 92.6805 146.685 92.6789 146.58 92.9153C146.474 93.1517 146.083 93.1525 145.948 93.0666C145.813 92.9807 145.565 93.2857 145.343 93.281C145.12 93.2754 144.998 92.8854 145.09 92.63C145.09 92.63 145.929 92.5087 146.636 92.0209Z" fill="#DAEBE8"/>
<path d="M150.109 99.3496C150.101 99.3496 150.093 99.3449 150.089 99.337C149.616 98.2873 148.422 97.4284 148.409 97.4197C148.4 97.4126 148.397 97.3984 148.405 97.3882C148.412 97.3787 148.425 97.3756 148.435 97.3826C148.447 97.3921 149.65 98.2574 150.129 99.3181C150.134 99.3291 150.129 99.3417 150.118 99.348C150.116 99.3488 150.112 99.3496 150.109 99.3496Z" fill="#331832"/>
<path d="M141.087 95.4047C141.085 95.4047 141.083 95.4047 141.081 95.4039C141.069 95.4 141.063 95.3882 141.066 95.3763L141.286 94.66C141.29 94.649 141.303 94.6427 141.313 94.645C141.324 94.649 141.331 94.6608 141.328 94.6726L141.108 95.3889C141.106 95.3984 141.097 95.4047 141.087 95.4047Z" fill="#331832"/>
<path d="M143.155 103.312C143.155 103.312 145.879 115.597 150.666 119.992C151.129 120.417 151.796 120.502 152.349 120.215L153.225 119.762C153.823 119.452 154.066 118.692 153.764 118.07C152.524 115.513 149.583 109.039 148.665 103.408L143.155 103.312Z" fill="#EF8062"/>
<path d="M146.088 112.654C146.076 112.621 144.861 109.362 144.455 107.518C144.052 105.692 142.635 105.024 142.621 105.017L142.645 104.96C142.66 104.967 144.105 105.648 144.514 107.504C144.92 109.343 146.133 112.599 146.145 112.631L146.088 112.654Z" fill="#331832"/>
<path d="M89.2448 34.7979C89.2448 34.7979 88.5687 33.5283 86.897 33.7868C85.2253 34.0445 84.0685 35.9114 82.7698 34.7908C81.4703 33.6702 80.0994 33.7198 79.3008 34.7388C78.5022 35.7577 79.5171 37.0091 77.4299 36.6545C75.3426 36.2999 75.2798 38.1723 76.7847 39.9903C78.2897 41.8083 82.6651 42.6964 84.5988 41.8012C86.5326 40.906 88.7245 39.6672 89.4735 38.794C90.2225 37.9209 90.5195 35.567 89.2448 34.7979Z" fill="#331832"/>
<path d="M89.005 35.0075C89.0019 34.9925 88.691 33.5472 87.3985 33.5047C86.5014 33.4763 85.7346 33.9334 85.0616 34.3376C84.4157 34.7254 83.8574 35.0603 83.3976 34.7781C82.2516 34.0729 81.4181 33.7986 80.2962 34.3699L80.2559 34.288C81.5306 33.6394 82.492 34.113 83.4449 34.6993C83.8582 34.9539 84.3692 34.6465 85.0158 34.2588C85.6997 33.8483 86.4743 33.3817 87.4024 33.4133C88.7662 33.4582 89.0911 34.9744 89.0942 34.9893L89.005 35.0075Z" fill="#331832"/>
<path d="M83.1572 36.4299C82.6346 36.4299 82.0275 36.1588 81.4002 35.6268C81.394 35.6213 81.3932 35.6111 81.3986 35.6048C81.4041 35.5985 81.4142 35.6 81.4196 35.6032C82.4942 36.5142 83.5038 36.6513 84.124 35.9704C84.7862 35.2391 85.7376 34.9538 86.492 35.2635C87.2712 35.5796 87.7714 35.0445 87.7768 35.0397C87.7822 35.0334 87.7915 35.0334 87.7985 35.039C87.8047 35.0445 87.8047 35.0547 87.7993 35.0602C87.7954 35.065 87.4876 35.3952 86.9805 35.3952C86.8308 35.3952 86.6634 35.3668 86.4819 35.2919C85.7368 34.9869 84.8002 35.2706 84.1465 35.9917C83.8783 36.2849 83.5402 36.4299 83.1572 36.4299Z" fill="#331832"/>
<path d="M80.0008 38.5536C78.9525 37.2242 78.3167 35.3226 78.3105 35.2871L79.9264 34.9908C80.8126 37.3179 83.3791 39.0839 85.6021 38.8428L87.4079 41.4599C86.127 41.9477 82.0982 41.2132 80.0008 38.5536Z" fill="#FFB27D"/>
<path d="M79.8627 35.5126C79.9255 35.2478 79.9317 34.6851 79.9891 34.4188C80.0139 34.3029 80.0712 33.9058 79.9611 33.8545C79.8658 33.8096 79.6735 34.0886 79.5983 34.2344C79.2424 33.2864 78.4391 32.1729 79.0641 34.0988C79.0633 34.0988 79.0625 34.0996 79.0617 34.0996C78.9958 33.9373 78.5515 32.7347 78.3251 32.8908C78.1592 33.005 78.5539 33.9854 78.6593 34.2533C78.657 34.2541 78.6547 34.2557 78.6523 34.2564C78.5228 33.9924 78.1732 33.176 78.0088 33.2769C77.7925 33.4093 78.2755 34.4495 78.2755 34.4495C78.2755 34.4495 77.8948 33.5779 77.7258 33.8214C77.6304 33.9586 77.8715 34.4684 78.0258 34.7836C78.0584 34.8498 78.0871 34.9074 78.1073 34.9515C78.1243 34.9877 78.1437 35.0185 78.1639 35.0445C78.4523 35.5575 78.7175 35.8451 78.7175 35.8451C78.7175 35.8451 78.9741 36.2344 79.4168 36.0776C79.6998 35.9775 79.8355 35.6276 79.8627 35.5126Z" fill="#FFB27D"/>
<path d="M79.1721 59.7331C79.1721 59.7331 79.2093 61.1611 79.0093 61.5638C78.8093 61.9665 78.0106 62.8688 78.596 62.8766C78.9325 62.8814 79.7467 61.9783 80.0025 61.7545C80.2584 61.5307 80.6228 61.4377 80.6391 61.0941C80.6469 60.931 80.3747 60.7009 80.27 60.4148C80.0925 59.927 80.0367 59.3675 80.0367 59.3675C80.0367 59.3675 79.6125 58.8852 79.4094 59.0531C79.1171 59.2958 79.1721 59.7331 79.1721 59.7331Z" fill="#331832"/>
<path d="M90.7971 48.9653C90.6436 49.4886 88.6788 49.3554 86.4086 48.6674C84.1383 47.9795 82.4224 46.9976 82.576 46.4743C82.7295 45.951 84.6942 46.0842 86.9645 46.773C89.2348 47.4617 90.9506 48.4421 90.7971 48.9653Z" fill="#331832"/>
<path d="M71.7255 52.4169C71.7255 52.4169 70.4267 52.9 70.0003 52.833C69.5746 52.766 68.5193 52.279 68.6783 52.8464C68.7698 53.1719 69.8297 53.6747 70.108 53.8512C70.3856 54.0285 70.5748 54.35 70.895 54.2578C71.047 54.2137 71.1804 53.8796 71.413 53.6888C71.81 53.3642 72.307 53.1356 72.307 53.1356C72.307 53.1356 72.6287 52.5761 72.4163 52.4327C72.1108 52.2262 71.7255 52.4169 71.7255 52.4169Z" fill="#331832"/>
<path d="M89.4255 40.7342C89.4255 40.7342 88.92 38.9761 86.759 38.9178C85.7379 38.8902 84.7749 38.8476 84.1639 40.6262C83.615 42.2228 83.2986 42.9849 82.5752 46.4735C82.5752 46.4735 86.9459 45.6847 90.7971 48.9653C91.274 47.3191 91.2453 43.6279 90.9204 41.1022C90.8188 40.3134 89.6015 41.2977 89.4255 40.7342Z" fill="#EF8062"/>
<path d="M91.5144 39.98L91.0205 42.0187C91.0205 42.0187 84.7548 42.8123 84.2439 41.8737C83.4832 40.4749 83.8887 38.6672 83.8887 38.6672C83.8887 38.6672 85.4914 38.7854 86.6227 38.7207C87.4616 38.6727 87.6841 38.575 88.6619 38.8783C90.9066 39.5742 91.5144 39.98 91.5144 39.98Z" fill="#EF8062"/>
<path d="M91.5143 39.98C91.6724 40.2141 91.4507 41.0376 90.9723 41.6089C90.4729 42.2055 89.9744 42.6476 89.6518 42.4372C89.1967 42.1409 89.8069 41.0124 90.2962 40.5033C90.9351 39.839 91.4011 39.813 91.5143 39.98Z" fill="#331832"/>
<path d="M86.6402 39.4638C86.3564 39.3227 86.6224 38.7199 86.6224 38.7199C86.8682 38.697 87.0294 38.6655 87.0713 38.4764L87.1217 38.2431L87.1465 38.1273L87.2272 37.7585L87.2993 37.4267L87.5947 36.0665L87.766 37.5173L87.7955 37.764C87.7955 37.764 87.8304 38.6639 88.3685 38.7979C88.3871 38.7884 87.2574 39.7711 86.6402 39.4638Z" fill="#FFB27D"/>
<path d="M87.7957 37.764C87.7957 37.764 87.5127 38.1383 87.1475 38.1273L87.2281 37.7585C87.4584 37.7451 87.7957 37.764 87.7957 37.764Z" fill="#F09962"/>
<path d="M89.1508 36.3006C89.1508 36.3006 89.0353 36.5039 89.0283 36.9893C89.0182 37.6994 88.1956 37.7482 88.0606 37.5031C88.0436 37.4732 88.4026 36.3684 88.4026 36.3684L88.6817 36.2982L89.1508 36.3006Z" fill="#331832"/>
<path d="M88.7092 36.6363C88.9591 35.7842 88.6065 34.9252 87.9216 34.7177C87.2367 34.5102 86.4789 35.0327 86.2289 35.8848C85.979 36.7369 86.3316 37.5958 87.0165 37.8034C87.7014 38.0109 88.4592 37.4884 88.7092 36.6363Z" fill="#FFB27D"/>
<path d="M87.3481 36.2399C87.3403 36.2352 87.3349 36.2273 87.3341 36.217C87.3326 36.2005 87.3442 36.1863 87.3605 36.1847C87.3698 36.1839 87.5884 36.143 87.7016 36.3778C87.7086 36.3928 87.7032 36.4101 87.6885 36.418C87.6737 36.4251 87.659 36.4172 87.6489 36.4046C87.545 36.2777 87.3737 36.243 87.3659 36.2438C87.3597 36.2446 87.3535 36.243 87.3481 36.2399Z" fill="#080435"/>
<path d="M87.5561 36.6324C87.5382 36.701 87.484 36.7459 87.4343 36.7325C87.3847 36.7191 87.3599 36.6529 87.3769 36.5844C87.3948 36.5158 87.4491 36.4709 87.4987 36.4843C87.5491 36.4977 87.5739 36.5639 87.5561 36.6324Z" fill="#080435"/>
<path d="M86.2984 36.0832C86.2899 36.0816 86.2813 36.0761 86.2775 36.0674C86.2697 36.0532 86.2751 36.0351 86.2899 36.0272C86.2984 36.0225 86.4845 35.9003 86.6775 36.0745C86.6899 36.0855 86.6915 36.1037 86.6806 36.1163C86.6698 36.1289 86.6535 36.1273 86.6388 36.1194C86.4953 36.0414 86.324 36.0761 86.317 36.08C86.3108 36.0832 86.3038 36.084 86.2984 36.0832Z" fill="#080435"/>
<path d="M86.6635 36.3645C86.6729 36.4346 86.6395 36.4969 86.5891 36.504C86.5387 36.5111 86.4899 36.459 86.4806 36.3889C86.4713 36.3188 86.5046 36.2565 86.555 36.2494C86.6062 36.2423 86.6542 36.2943 86.6635 36.3645Z" fill="#080435"/>
<path d="M86.562 36.9957C86.562 36.9957 86.6008 37.2928 86.8442 37.3677C87.1443 37.4599 87.2963 37.1612 87.2963 37.1612C87.2963 37.1612 86.8931 37.1746 86.562 36.9957Z" fill="white"/>
<path d="M84.5956 47.3048C84.5956 47.3048 79.7 50.3238 78.754 52.5193C77.8081 54.7148 77.7313 59.0876 78.6796 59.6613C79.6271 60.235 80.5723 60.2713 81.0949 58.3524C81.6175 56.4343 81.6679 53.8408 83.4085 53.1166C85.15 52.3932 90.1557 49.8754 89.5386 48.7666C88.9221 47.6579 85.3485 46.817 84.5956 47.3048Z" fill="#73B3CE"/>
<path d="M82.7409 46.613C82.7409 46.613 77.2925 47.472 75.8022 48.3561C74.312 49.2403 71.3788 51.2853 71.4354 52.2853C71.492 53.2854 72.472 53.8094 73.3373 53.6384C74.2026 53.4666 77.6747 51.2286 78.9106 50.9275C82.1602 50.1363 85.9347 49.8518 85.9347 49.8518L86.655 47.3246C86.655 47.3246 84.9321 46.5823 82.7409 46.613Z" fill="#73B3CE"/>
<path d="M80.0376 50.8598L79.9941 50.8172C80.5586 50.2081 82.6994 48.5548 82.7211 48.5382L82.7575 48.5863C82.7358 48.602 80.5981 50.253 80.0376 50.8598Z" fill="#331832"/>
<path d="M87.8002 35.2123C87.8002 35.2123 87.6777 35.7766 86.9589 35.7214C86.2402 35.6662 85.7959 36.3116 85.7959 36.3116L86.1495 34.4637L87.8134 34.3297L88.7407 34.7474L88.8663 36.3542L88.7244 37.08L88.5732 36.4661C88.5717 36.4653 88.2491 35.3423 87.8002 35.2123Z" fill="#331832"/>
<path d="M88.6565 36.924C88.4766 37.017 88.2758 36.9713 88.2091 36.8216C88.1417 36.6726 88.2339 36.4764 88.4138 36.3842C88.5937 36.2912 88.7945 36.3369 88.8612 36.4867C88.9286 36.6356 88.8371 36.8318 88.6565 36.924Z" fill="#FFB27D"/>
<path d="M93.7969 46.4326C93.6884 48.1331 92.8944 49.9724 92.8758 50.0024L91.4871 49.1127C92.3323 46.9077 91.5437 43.6531 89.9256 42.174C89.772 42.0337 89.7813 41.8241 89.8535 41.6279C90.1737 40.7476 91.1669 39.7421 91.5841 40.2661C92.6827 41.6499 93.9427 44.1567 93.7969 46.4326Z" fill="#FFB27D"/>
<path d="M91.8789 48.7714C91.6571 48.9242 91.2788 49.3348 91.0593 49.4916C90.964 49.5602 90.6585 49.8139 90.705 49.9274C90.7461 50.0259 91.0733 49.9519 91.2252 49.8959C90.8585 50.84 90.712 52.212 91.53 50.3624C91.5307 50.3632 91.5315 50.3632 91.5323 50.364C91.4734 50.5287 91.0027 51.7218 91.2733 51.7612C91.4718 51.7904 91.8316 50.7966 91.9308 50.5263C91.9332 50.5271 91.9355 50.5279 91.9378 50.5287C91.8579 50.8124 91.5734 51.6548 91.7618 51.6934C92.0091 51.7439 92.3433 50.6445 92.3433 50.6445C92.3433 50.6445 92.0456 51.5484 92.3317 51.4846C92.493 51.4483 92.6535 50.9078 92.7488 50.5689C92.769 50.498 92.7861 50.4357 92.8 50.3892C92.8116 50.3506 92.8178 50.3151 92.8202 50.2813C92.9473 49.7044 92.9435 49.3112 92.9435 49.3112C92.9435 49.3112 93.0125 48.8478 92.5821 48.6595C92.3084 48.5405 91.975 48.7052 91.8789 48.7714Z" fill="#FFB27D"/>
<path opacity="0.6" d="M96.798 83.2363L96.798 83.2362C97.0319 77.8678 99.7709 72.3143 104.02 68.1584C108.266 64.0055 113.979 61.2875 120.123 61.522C132.559 61.9968 142.787 71.2275 141.612 81.8141C140.676 90.2484 137.636 95.0818 133.215 97.7143L133.215 97.7143L133.209 97.7182C132.708 98.0264 130.544 99.4171 128.459 101.69C126.466 103.862 124.506 106.884 124.193 110.569L114.151 110.186C114.142 109.948 114.122 109.633 114.08 109.256C113.982 108.385 113.764 107.18 113.282 105.835C112.316 103.14 110.29 99.8872 106.072 97.6578L106.064 97.6536L106.056 97.6497C100.181 94.8082 96.506 89.9307 96.798 83.2363Z" fill="white" stroke="#85BA09"/>
<path d="M126.084 113.854C126.084 113.854 127.632 116.24 125.942 118.433C125.47 119.046 124.211 119.372 122.623 119.496C118.528 119.818 112.242 118.797 111.612 117.886C110.736 116.62 111.263 115.204 112.273 114.9C112.273 114.9 110.918 113.731 111.349 112.356C111.78 110.98 112.521 110.735 112.521 110.735C112.521 110.735 111.484 110.08 111.467 108.232C111.46 107.5 111.792 106.7 112.848 106.117C114.462 105.225 117.765 104.841 124.123 105.987C124.123 105.987 126.992 106.532 126.154 109.784C126.153 109.786 128.097 112.084 126.084 113.854Z" fill="#9CDA0A"/>
<path opacity="0.9" d="M118.232 71.3347C118.232 71.3347 113 72.605 109.834 76.7454C106.667 80.8858 102.496 77.7833 103.427 73.3931C104.357 69.0029 109.851 65.3393 113.027 66.1194C116.205 66.8988 121.102 68.5214 118.232 71.3347Z" fill="white"/>
<path d="M126.103 114.057C126.072 114.06 126.041 114.056 126.01 114.044C125.999 114.04 124.94 113.613 123.318 113.36C121.825 113.127 119.536 112.998 117.107 113.705C117 113.736 116.89 113.674 116.859 113.566C116.829 113.458 116.89 113.345 116.996 113.314C119.5 112.585 121.855 112.719 123.39 112.959C125.054 113.22 126.114 113.648 126.158 113.666C126.261 113.708 126.31 113.827 126.269 113.931C126.241 114.003 126.176 114.05 126.103 114.057Z" fill="#85BA09"/>
<path d="M126.173 109.988C126.148 109.991 126.123 109.988 126.098 109.981C126.083 109.977 124.633 109.558 122.728 109.305C120.98 109.073 118.48 108.937 116.497 109.608C116.392 109.643 116.278 109.586 116.243 109.478C116.208 109.371 116.265 109.256 116.37 109.221C118.427 108.526 120.995 108.664 122.786 108.902C124.72 109.158 126.194 109.585 126.209 109.589C126.315 109.619 126.377 109.733 126.346 109.841C126.322 109.924 126.252 109.98 126.173 109.988Z" fill="#85BA09"/>
<path d="M122.623 119.497C118.527 119.819 112.242 118.798 111.611 117.887C110.736 116.621 111.263 115.205 112.273 114.901C112.273 114.901 110.918 113.731 111.348 112.356C111.779 110.981 112.521 110.736 112.521 110.736C112.521 110.736 111.484 110.081 111.466 108.232C111.459 107.501 111.791 106.701 112.848 106.117L112.85 106.117C112.85 106.117 111.474 109.694 114.726 110.796C114.726 110.796 115.241 111.071 114.834 111.512C114.428 111.953 114.916 114.376 115.945 114.872C116.974 115.367 115.7 117.267 117.001 118.232C118.002 118.973 121.201 119.358 122.623 119.497Z" fill="#85BA09"/>
<path d="M111.352 90.6906C109.101 87.5251 110.214 80.7116 119.315 77.1347C127.339 73.981 129.923 70.0809 129.923 70.0809C129.923 70.0809 132.951 79.7636 128.609 87.2398C123.313 96.363 114.265 94.7869 111.352 90.6906Z" fill="#9CDA0A"/>
<path d="M111.967 97.5899C111.814 97.5899 111.676 97.4796 111.645 97.3212C111.63 97.2409 110.204 89.2391 119.999 83.1128C127.969 78.1261 129.585 70.0975 129.6 70.0171C129.635 69.8358 129.81 69.7137 129.985 69.7539C130.163 69.7893 130.279 69.9635 130.245 70.144C130.228 70.2283 128.567 78.5358 120.343 83.6802C110.932 89.5669 112.274 97.1156 112.289 97.192C112.324 97.3732 112.208 97.549 112.031 97.5836C112.01 97.5876 111.989 97.5899 111.967 97.5899Z" fill="#85BA09"/>
<path d="M115.917 86.8095C115.776 86.8095 115.645 86.7165 115.603 86.5723C114.579 83.1277 115.573 80.725 115.615 80.6249C115.687 80.4571 115.88 80.3798 116.046 80.4508C116.213 80.5225 116.29 80.7195 116.218 80.8889C116.209 80.911 115.281 83.1805 116.231 86.3792C116.283 86.5557 116.185 86.7417 116.011 86.7953C115.98 86.8047 115.949 86.8095 115.917 86.8095Z" fill="#85BA09"/>
<path d="M122.542 83.2996C121.602 83.2996 120.953 83.2562 120.88 83.2507C120.699 83.2381 120.563 83.0789 120.575 82.8945C120.587 82.7109 120.744 82.5636 120.925 82.5848C120.974 82.5864 125.899 82.9174 128.668 81.7069C128.833 81.6329 129.028 81.7125 129.099 81.8819C129.171 82.0521 129.094 82.2475 128.927 82.3208C127.031 83.1491 124.288 83.2996 122.542 83.2996Z" fill="#85BA09"/>
<path d="M104.173 99.7588C103.857 99.7194 103.553 99.6098 103.269 99.4333C102.352 98.8604 101.736 97.6492 101.274 95.5073C101.061 94.5206 100.439 93.3323 100.433 93.3205L102.501 92.1928C102.532 92.2527 103.282 93.6814 103.566 94.9958C103.726 95.7398 103.812 91.043 104.208 90.5993C104.451 90.3275 105.428 90.7751 105.428 90.7751C105.584 91.3779 105.973 92.623 106.203 94.5009C106.342 95.6381 106.4 96.5711 106.375 97.2741C106.357 97.7697 106.299 98.1685 106.197 98.4932C105.927 99.349 105.361 99.6146 105.048 99.6973C104.751 99.7745 104.458 99.795 104.173 99.7588Z" fill="#FFB27D"/>
<path d="M104.481 99.5262C104.227 99.5262 104.028 99.4261 104.028 99.2977C104.028 99.2606 104.044 99.2244 104.074 99.1929C104.15 99.1164 104.307 99.0668 104.484 99.0668C104.485 99.0668 104.486 99.0668 104.488 99.0668C104.742 99.0668 104.941 99.1669 104.941 99.2953C104.941 99.4238 104.74 99.5254 104.485 99.5254C104.484 99.5262 104.482 99.5262 104.481 99.5262ZM104.484 99.1306C104.326 99.1306 104.182 99.1724 104.118 99.2378C104.098 99.2575 104.088 99.2772 104.088 99.2977C104.089 99.3765 104.25 99.4632 104.481 99.4632C104.482 99.4632 104.484 99.4632 104.485 99.4632C104.718 99.4632 104.881 99.3757 104.881 99.2961C104.88 99.2173 104.719 99.1306 104.488 99.1306C104.486 99.1306 104.485 99.1306 104.484 99.1306Z" fill="#E9845C"/>
<path d="M103.329 97.4048C103.314 97.4048 103.301 97.393 103.299 97.3773C103.297 97.3646 103.14 96.0533 103.619 95.0257C103.627 95.0092 103.644 95.0005 103.66 95.0108C103.675 95.0179 103.682 95.0368 103.675 95.0517C103.204 96.0628 103.358 97.3568 103.36 97.3702C103.362 97.3867 103.35 97.4025 103.333 97.404C103.331 97.404 103.331 97.4048 103.329 97.4048Z" fill="#E9845C"/>
<path d="M105.648 92.3117C105.648 92.3117 106.905 92.4204 107.397 91.9224C107.888 91.4243 108.147 90.4101 107.777 90.6529C107.408 90.8956 107.02 91.3392 107.02 91.3392C107.02 91.3392 107.805 90.3534 107.498 90.2667C107.191 90.18 106.517 91.0445 106.517 91.0445C106.517 91.0445 107.359 89.7955 107.043 89.8088C106.728 89.8222 106.095 90.7758 106.095 90.7758C106.095 90.7758 106.832 89.5819 106.466 89.6063C106.099 89.6308 105.863 90.5969 105.556 90.5102C105.249 90.4235 104.06 90.1264 104.06 90.9996L105.648 92.3117Z" fill="#FFB27D"/>
<path d="M106.621 91.6923C106.607 91.6923 106.597 91.682 106.596 91.6686C106.595 91.6536 106.605 91.6418 106.619 91.641C106.821 91.6284 106.996 91.329 106.997 91.3258C107.005 91.3132 107.021 91.3085 107.033 91.3164C107.045 91.3234 107.049 91.3392 107.042 91.3518C107.035 91.366 106.852 91.6781 106.623 91.693C106.622 91.6923 106.621 91.6923 106.621 91.6923Z" fill="#E9845C"/>
<path d="M106.041 91.4613C106.03 91.4613 106.02 91.4542 106.017 91.4416C106.013 91.4274 106.02 91.414 106.034 91.4101C106.325 91.3305 106.493 91.0326 106.495 91.0303C106.502 91.0184 106.517 91.0137 106.53 91.02C106.542 91.0271 106.546 91.0429 106.539 91.0563C106.532 91.0689 106.359 91.3754 106.048 91.4605C106.046 91.4613 106.044 91.4613 106.041 91.4613Z" fill="#E9845C"/>
<path d="M105.653 91.1689C105.651 91.1689 105.65 91.1689 105.648 91.1689C105.634 91.1689 105.623 91.1571 105.624 91.1422C105.624 91.128 105.635 91.1169 105.649 91.1169H105.65C105.651 91.1169 105.653 91.1169 105.654 91.1169C105.866 91.1169 106.073 90.7647 106.074 90.7607C106.082 90.7481 106.098 90.7434 106.109 90.7513C106.121 90.7584 106.125 90.7741 106.118 90.7867C106.109 90.8033 105.895 91.1689 105.653 91.1689Z" fill="#E9845C"/>
<path d="M99.08 121.184C99.08 121.184 99.1164 121.896 99.5964 122.084C100.076 122.272 101.456 122.416 100.954 122.888C100.666 123.159 99.273 123.027 98.8807 123.038C98.4884 123.049 98.1247 123.232 97.8262 122.973C97.4975 122.688 97.7797 121.219 97.7797 121.219C97.7797 121.219 98.1232 121.389 98.4271 121.372C98.8652 121.35 99.08 121.184 99.08 121.184Z" fill="#331832"/>
<path d="M102.603 99.5673C102.603 99.5673 102.783 102.78 101.937 108.977C101.326 113.451 100.585 117.962 100.219 120.125C100.089 120.899 99.4665 121.479 98.7129 121.53L98.3074 121.558C97.4925 121.614 96.8109 120.919 96.8481 120.071L97.4863 105.487L97.6119 100.689L102.603 99.5673Z" fill="#367743"/>
<path d="M94.5868 121.307C94.5868 121.307 94.6233 122.019 95.1032 122.207C95.5832 122.395 96.9625 122.539 96.4609 123.011C96.1732 123.282 94.7799 123.15 94.3876 123.16C93.9952 123.172 93.6316 123.355 93.3331 123.096C93.0043 122.811 93.2865 121.342 93.2865 121.342C93.2865 121.342 93.63 121.512 93.934 121.495C94.372 121.472 94.5868 121.307 94.5868 121.307Z" fill="#331832"/>
<path d="M98.1097 99.6909C98.1097 99.6909 98.2896 102.904 97.4437 109.101C96.8327 113.575 96.0914 118.085 95.7262 120.249C95.596 121.022 94.9734 121.602 94.2197 121.654L93.8142 121.681C92.9993 121.737 92.3178 121.043 92.355 120.194L92.9931 105.611L93.1187 100.813L98.1097 99.6909Z" fill="#367743"/>
<path d="M92.6896 103.366C92.7097 103.753 95.0219 103.844 97.8744 103.675C100.727 103.507 102.998 103.042 102.978 102.655C102.958 102.267 100.655 102.102 97.8023 102.271C94.9498 102.44 92.6694 102.978 92.6896 103.366Z" fill="#331832"/>
<path d="M93.0976 92.3629C93.0976 92.3629 93.5481 90.3156 97.2729 90.1927C102.644 90.0153 102.279 95.0454 102.979 102.656C102.979 102.656 97.6676 102.04 92.6851 103.271C92.6851 103.27 92.0136 95.5017 93.0976 92.3629Z" fill="#FFD600"/>
<path d="M91.7148 92.1092L94.1836 93.4103C94.1836 93.4103 99.5235 93.7562 100.931 93.4804C102.339 93.2046 102.699 92.1391 102.699 92.1391C102.699 92.1391 101.15 90.5969 98.5791 90.2439C98.3372 90.2108 98.0875 90.1879 97.8286 90.1777C97.3936 90.1612 96.9586 90.1793 96.5353 90.2392C93.3012 90.6994 91.7148 92.1092 91.7148 92.1092Z" fill="#FFD600"/>
<path d="M96.748 89.7411L97.0047 88.8112L97.0791 88.5401L97.5187 86.9482L97.6234 88.5172L97.6862 89.4589L97.7064 89.7568C97.7196 89.9594 97.8428 89.9988 97.9948 90.1706C98.0568 90.2399 98.4515 90.6623 98.0212 90.8695C97.4854 91.128 96.4627 90.7868 96.0649 90.3148C96.0688 90.314 96.6651 90.0421 96.748 89.7411Z" fill="#FFB27D"/>
<path d="M102.537 102.982C102.537 102.982 99.419 102.142 93.0463 103.587L93.0215 104.525L102.422 104.604L102.537 102.982Z" fill="#367743"/>
<path d="M93.8035 93.6567C94.0058 93.357 93.6907 92.78 93.0997 92.3677C92.5086 91.9555 91.8655 91.8643 91.6632 92.1639C91.4609 92.4635 91.776 93.0406 92.367 93.4528C92.9581 93.865 93.6012 93.9563 93.8035 93.6567Z" fill="#331832"/>
<path d="M91.3404 104.221C91.4978 101.708 91.8886 97.9652 92.9896 95.0951C93.2447 94.43 93.3517 94.1802 93.5548 93.8153C93.7184 93.5214 93.3951 92.8949 92.9043 92.6057C92.4437 92.3338 91.7389 92.4 91.6311 92.5434C91.4474 92.7877 91.2574 93.2519 90.9612 93.9879C89.9323 96.5459 89.1748 99.9692 89.0205 104.188L91.3404 104.221Z" fill="#FFB27D"/>
<path d="M98.4265 86.0641C98.4265 86.0641 98.5987 86.4187 98.5971 86.9081C98.5956 87.3975 97.8931 86.3415 97.8931 86.3415L98.4265 86.0641Z" fill="#5C305D"/>
<path d="M97.9233 89.0867C98.6441 88.8332 98.9844 87.9115 98.6835 87.028C98.3827 86.1446 97.5545 85.6339 96.8338 85.8875C96.1131 86.141 95.7727 87.0627 96.0736 87.9462C96.3745 88.8296 97.2026 89.3403 97.9233 89.0867Z" fill="#FFB27D"/>
<path d="M95.9408 87.4826L96.5812 87.2769C96.7224 87.232 96.8379 87.1256 96.8906 86.9853C96.9813 86.7442 97.1209 86.6008 97.7365 86.4967C98.5158 86.3643 98.9321 85.7899 98.9321 85.3604C98.9329 84.923 98.4793 84.7205 98.1312 85.0018C97.783 85.2832 97.8505 84.7575 97.4667 84.7835C96.7487 84.8316 96.7286 85.4061 96.154 85.5077C95.3996 85.6409 94.1745 86.4999 95.0825 87.708L95.9408 87.4826Z" fill="#331832"/>
<path d="M97.4324 87.4069C97.4386 87.4006 97.4417 87.3919 97.441 87.3833C97.4394 87.3675 97.4254 87.3565 97.4099 87.3581C97.4006 87.3588 97.189 87.3644 97.1308 87.6071C97.1269 87.6221 97.1355 87.6378 97.151 87.6418C97.1657 87.6457 97.1781 87.6354 97.1851 87.6213C97.2564 87.4818 97.4092 87.4156 97.4169 87.414C97.4224 87.414 97.4278 87.4109 97.4324 87.4069Z" fill="#080435"/>
<path d="M97.3858 87.7892C97.4161 87.8499 97.4758 87.8806 97.5184 87.8585C97.5618 87.8365 97.5719 87.7695 97.5417 87.7088C97.5114 87.6481 97.4517 87.6174 97.4091 87.6395C97.3664 87.6615 97.3556 87.7285 97.3858 87.7892Z" fill="#080435"/>
<path d="M98.4303 87.1122C98.4365 87.1098 98.4411 87.1035 98.4427 87.0949C98.445 87.0807 98.4365 87.0649 98.4241 87.0594C98.4171 87.0562 98.2519 86.9664 98.1511 87.15C98.1449 87.1618 98.148 87.1792 98.1581 87.1894C98.169 87.1997 98.1806 87.1965 98.1891 87.1871C98.2768 87.098 98.4101 87.109 98.4155 87.1114C98.421 87.1138 98.4256 87.1138 98.4303 87.1122Z" fill="#080435"/>
<path d="M98.2383 87.4503C98.2438 87.518 98.2872 87.57 98.3353 87.5661C98.3833 87.5622 98.4182 87.5046 98.4136 87.4369C98.4082 87.3691 98.3647 87.3171 98.3167 87.321C98.2678 87.3242 98.2329 87.3825 98.2383 87.4503Z" fill="#080435"/>
<path d="M95.0825 87.7079C95.0825 87.7079 95.7354 88.6055 96.3913 88.544C96.3913 88.544 95.7199 87.8963 96.7201 87.2075C96.7193 87.2075 95.6834 87.2564 95.0825 87.7079Z" fill="#5C305D"/>
<path d="M96.0967 88.0665C96.2518 88.1264 96.42 88.061 96.4727 87.92C96.5255 87.7789 96.4425 87.6166 96.2874 87.5559C96.1324 87.496 95.9641 87.5614 95.9114 87.7025C95.8586 87.8435 95.9416 88.0059 96.0967 88.0665Z" fill="#FFB27D"/>
<path d="M96.7495 87.2588C96.7495 87.2588 96.8301 88.1091 97.0286 88.232C97.2271 88.3542 98.3072 88.1477 98.7801 87.8388L98.7832 87.8404C98.8995 88.3699 98.6592 88.961 98.1614 89.1588C97.9939 89.2257 97.814 89.2636 97.6287 89.2699C97.2565 89.2809 96.8758 89.2029 96.6595 88.8948C96.5936 88.801 96.5967 88.139 96.5967 88.139C96.5967 88.139 96.5711 87.756 96.3184 87.6071C96.3184 87.6079 96.5192 87.3313 96.7495 87.2588Z" fill="#5C305D"/>
<path d="M97.9746 84.9609C97.8211 84.9609 97.7776 84.8222 97.7769 84.8206L97.8133 84.8096C97.8149 84.8151 97.849 84.9223 97.9746 84.9223C97.9932 84.9223 98.0141 84.9207 98.0374 84.9152L98.0459 84.9522C98.0203 84.9577 97.9963 84.9609 97.9746 84.9609Z" fill="#331832"/>
<path d="M97.9116 86.2296L97.9023 86.213C97.9109 86.2083 98.6831 85.7898 98.6296 85.3509C98.6149 85.228 98.5785 85.1515 98.5188 85.1168C98.4218 85.0633 98.2807 85.1294 98.1567 85.187C98.1373 85.1964 98.1187 85.2051 98.1001 85.213L98.0931 85.1964C98.1109 85.1878 98.1295 85.1791 98.1489 85.1704C98.2784 85.1097 98.4218 85.042 98.5288 85.1003C98.594 85.1373 98.6335 85.2185 98.649 85.3493C98.7033 85.8001 97.9434 86.2122 97.9116 86.2296Z" fill="white"/>
<path d="M95.8631 85.7291L95.8623 85.711C96.6881 85.6535 96.9819 85.1137 96.985 85.1082L97.0013 85.1176C96.999 85.1223 96.7005 85.6716 95.8631 85.7291Z" fill="white"/>
<path d="M90.5746 98.4466C90.5629 98.4466 90.5521 98.4458 90.5404 98.4435C90.4676 98.4332 90.4024 98.3923 90.3513 98.3245C90.2737 98.2197 90.2396 98.0621 90.2613 97.9013H90.2605C90.2784 97.7728 90.328 97.6554 90.4032 97.5711C90.4815 97.4821 90.5792 97.4379 90.6738 97.4545C90.8645 97.4805 90.9894 97.724 90.9529 97.9982C90.9188 98.2543 90.7529 98.4466 90.5746 98.4466ZM90.6397 97.5459C90.5823 97.5459 90.5234 97.5766 90.4722 97.6334C90.4102 97.7035 90.3683 97.8028 90.3536 97.9131H90.3528C90.335 98.0487 90.3613 98.1818 90.4249 98.267C90.4606 98.3142 90.5048 98.3426 90.5528 98.3505C90.5598 98.3513 90.5676 98.3513 90.5746 98.3513C90.7048 98.3513 90.8335 98.1905 90.8622 97.984C90.8917 97.7618 90.8017 97.5656 90.6614 97.5459C90.6544 97.5459 90.6474 97.5459 90.6397 97.5459Z" fill="#EC865C"/>
<path d="M89.0587 103.349C89.0587 103.349 91.049 103.41 91.1173 103.556C91.2739 103.893 91.4336 104.63 91.584 104.97C91.6491 105.117 91.8337 105.63 91.698 105.714C91.5794 105.788 91.2421 105.452 91.1002 105.272C90.9032 106.319 90.338 107.764 90.4078 105.532C90.4062 105.532 90.4055 105.532 90.4039 105.531C90.3574 105.753 90.1263 107.15 89.8069 107.107C89.5642 107.073 89.741 105.76 89.8139 105.393C89.8108 105.392 89.8077 105.39 89.8038 105.389C89.6983 105.756 89.5208 106.855 89.2448 106.79C89.0098 106.735 89.2269 105.21 89.2269 105.21C89.2269 105.21 88.93 106.452 88.7299 106.214C88.5469 105.996 88.7927 104.824 88.8664 104.47C88.9431 104.101 89.0587 103.349 89.0587 103.349Z" fill="#FFB27D"/>
<path d="M101.77 93.2723C101.601 92.7112 101.064 92.0146 101.058 92.0075L101.106 91.9689C101.112 91.976 101.656 92.6813 101.828 93.2534L101.77 93.2723Z" fill="#331832"/>
<path d="M97.3069 110.361L97.2456 110.354C97.2495 110.327 97.5953 107.694 97.8566 106.748C98.1202 105.793 99.3329 104.969 99.3453 104.961L99.3786 105.013C99.367 105.022 98.1729 105.832 97.9155 106.765C97.6558 107.706 97.31 110.335 97.3069 110.361Z" fill="#331832"/>
<path d="M97.5747 88.3935C97.5747 88.3935 98.1826 88.4195 98.4687 88.228C98.4687 88.228 98.4819 88.5724 98.1671 88.641C97.7073 88.7418 97.5747 88.3935 97.5747 88.3935Z" fill="white"/>
<path opacity="0.1" d="M133.464 48.6208C139.322 42.6677 139.322 33.0159 133.464 27.0628C127.607 21.1098 118.111 21.1098 112.253 27.0628C106.396 33.0159 106.396 42.6677 112.253 48.6208C118.111 54.5738 127.607 54.5738 133.464 48.6208Z" fill="#FFE690"/>
<path opacity="0.4" d="M130.373 45.5242C134.523 41.3066 134.523 34.4684 130.373 30.2507C126.223 26.033 119.495 26.033 115.345 30.2507C111.195 34.4684 111.195 41.3066 115.345 45.5242C119.495 49.7419 126.223 49.7419 130.373 45.5242Z" fill="#FFE690"/>
<path d="M122.86 45.4972C126.995 45.4972 130.347 42.0901 130.347 37.8871C130.347 33.6842 126.995 30.277 122.86 30.277C118.724 30.277 115.372 33.6842 115.372 37.8871C115.372 42.0901 118.724 45.4972 122.86 45.4972Z" fill="#FFE690"/>
</g>
<defs>
<clipPath id="clip0_698_644">
<rect width="214" height="145" fill="white" transform="translate(0.666504 0.781982)"/>
</clipPath>
</defs>
</svg>
