<svg width="215" height="146" viewBox="0 0 215 146" fill="none" xmlns="http://www.w3.org/2000/svg">
<g clip-path="url(#clip0_698_214)">
<path d="M214.333 0.781982H0.333496V145.782H214.333V0.781982Z" fill="white"/>
<path d="M140.084 102.79C143.802 99.9048 141.269 93.9946 144.684 90.6016C147.241 88.0612 150.636 89.5605 153.886 88.2584C156.597 87.1709 157.521 81.8262 160.337 80.0514C163.211 78.2389 165.579 79.599 168.444 78.9059C171.189 78.2418 172.461 75.0866 175.101 74.0281C176.895 73.3089 178.95 73.8599 180.87 73.6801C182.491 73.5293 185.284 72.494 185.946 72.3345C182.077 75.2229 183.837 80.4168 180.57 83.6619C179.101 85.1206 176.861 85.2424 175.317 86.2168C174.344 86.8287 173.603 87.7596 172.775 88.5803C170.181 91.1584 170.39 95.6128 167.285 97.9531C164.772 99.8497 161.619 99.5046 159.998 101.117C159.253 101.856 158.717 103.417 158.095 104.258C155.184 108.205 153.541 107.018 150.299 106.728C148.139 106.534 142.185 103.098 140.373 103.536C140.119 103.596 140.147 103.048 140.084 102.79Z" fill="#2EC27E"/>
<path d="M183.218 73.8947C179.917 76.3423 176.553 78.7232 173.157 81.0664C173.531 79.5004 174.495 77.4588 175.634 76.1074L175.22 75.7478C173.868 77.3544 172.764 79.7527 172.487 81.5246C168.6 84.1984 164.68 86.8345 160.757 89.4677C161.145 87.1419 162.56 84.0737 163.442 81.5478L162.928 81.3622C162.004 84.0099 160.403 87.3304 160.132 89.8853C155.315 93.1159 150.51 96.3552 145.788 99.6786C146.245 97.3934 147.791 94.2556 149.369 92.2517L148.944 91.9066C147.178 94.1512 145.474 97.6254 145.149 100.128C144.476 100.604 143.796 101.073 143.129 101.552C140.689 103.301 137.16 103.628 134.603 105.244L134.888 105.713C137.277 104.205 140.829 103.875 143.44 102.004C144.048 101.569 144.664 101.143 145.277 100.711C149.34 102.616 154.066 101.653 157.932 102.001L157.98 101.45C154.097 101.102 149.606 101.952 145.819 100.331C150.619 96.9468 155.512 93.6495 160.417 90.358C161.55 90.6712 163.142 91.3672 164.734 91.8312C166.372 92.3097 168.038 92.5678 169.257 91.7993L168.969 91.3295C167.993 91.9443 166.472 91.7645 164.883 91.3005C163.507 90.9003 162.132 90.329 160.996 89.9694C164.854 87.3826 168.706 84.79 172.532 82.1597C172.567 82.1887 172.607 82.209 172.649 82.2177C173.911 82.5019 175.209 82.3163 176.467 82.0988C177.725 81.8813 178.941 81.6319 180.025 81.7276L180.074 81.1766C178.875 81.0693 177.62 81.3361 176.376 81.5536C175.272 81.745 174.182 81.8813 173.157 81.7334C176.658 79.3177 180.131 76.8672 183.538 74.3413L183.218 73.8947Z" fill="#26A269"/>
<path d="M138.078 91.5076C139.731 88.0205 135.348 85.029 136.557 81.3197C137.464 78.5432 140.684 78.1741 142.632 75.9565C144.256 74.1074 142.756 70.0861 144.176 67.7237C145.625 65.3126 148 65.2704 149.906 63.6246C151.733 62.0493 151.403 59.3774 152.987 57.5763C154.062 56.3516 155.864 55.8865 157.261 54.9786C158.44 54.2121 160.152 52.3639 160.592 51.9827C158.823 55.5341 162.322 58.3527 161.162 61.9015C160.642 63.4965 158.977 64.4957 158.198 65.792C157.707 66.6069 157.522 67.5464 157.229 68.4437C156.308 71.2626 158.31 74.2118 156.904 77.0774C155.765 79.4007 153.207 80.4556 152.632 82.2159C152.367 83.0254 152.602 84.308 152.475 85.1358C151.88 89.0165 150.131 88.8806 147.528 90.01C145.793 90.7636 139.813 90.8578 138.609 91.8971C138.437 92.0453 138.23 91.6593 138.078 91.5076Z" fill="#2EC27E"/>
<path d="M159.16 54.1628C157.645 57.1816 156.056 60.1796 154.426 63.166C154.064 61.9452 153.959 60.1611 154.272 58.7731L153.807 58.6978C153.436 60.3463 153.582 62.4317 154.105 63.7513C152.238 67.1645 150.326 70.5649 148.413 73.961C147.747 72.2182 147.563 69.5502 147.193 67.4671L146.724 67.5518C147.112 69.7345 147.26 72.6499 148.108 74.503C145.756 78.6738 143.418 82.8495 141.178 87.0442C140.582 85.3013 140.47 82.5286 140.847 80.5179L140.378 80.4567C139.955 82.7081 140.088 85.7727 140.873 87.6108C140.554 88.2106 140.23 88.807 139.917 89.4091C138.773 91.6001 136.207 93.2655 134.918 95.411L135.332 95.6149C136.537 93.6113 139.12 91.9316 140.345 89.5881C140.629 89.0418 140.926 88.5003 141.215 87.9543C145.113 87.59 148.332 85.0023 151.434 83.6547L151.242 83.2604C148.127 84.6133 145.041 87.028 141.47 87.4762C143.745 83.2064 146.126 78.9573 148.52 74.7079C149.515 74.4588 151.022 74.2795 152.433 73.9438C153.884 73.6 155.267 73.0942 155.88 72.0709L155.466 71.8691C154.974 72.6868 153.735 73.1866 152.328 73.5206C151.11 73.8091 149.821 73.9835 148.802 74.2045C150.684 70.8651 152.562 67.5223 154.403 64.1641C154.441 64.1694 154.48 64.1665 154.515 64.1552C155.597 63.8331 156.516 63.1749 157.389 62.5119C158.262 61.8489 159.09 61.1813 159.96 60.8047L159.768 60.4104C158.808 60.8269 157.958 61.523 157.093 62.1803C156.326 62.7622 155.549 63.3013 154.704 63.6187C156.384 60.5408 158.027 57.4503 159.591 54.3358L159.16 54.1628Z" fill="#26A269"/>
<path d="M69.7318 91.0661C66.0144 91.9035 64.1445 86.901 60.3154 87.2521C57.4478 87.5156 56.3627 90.6081 53.7949 92.0251C51.6539 93.2075 48.1416 90.8129 45.5565 91.6773C42.9175 92.5601 42.3359 94.8935 40.3273 96.3985C38.4016 97.8416 35.9186 96.9095 33.8323 98.0634C32.4147 98.8471 31.56 100.517 30.3712 101.687C29.3676 102.674 27.2088 103.943 26.7463 104.29C30.5507 103.352 32.4562 107.44 36.1198 107.106C37.7672 106.956 39.1013 105.539 40.5215 105.066C41.4146 104.767 42.3557 104.797 43.2834 104.712C46.1926 104.445 48.5647 107.088 51.6299 106.352C54.1138 105.754 55.7062 103.473 57.5246 103.306C58.3613 103.23 59.5364 103.752 60.3577 103.816C64.2102 104.109 64.4798 102.354 66.1515 100.044C67.2675 98.5033 68.7169 92.6269 69.9857 91.6756C70.1636 91.5424 69.8401 91.2519 69.7318 91.0661Z" fill="#2EC27E"/>
<path d="M29.1665 103.371C32.4024 102.562 35.6355 101.675 38.8662 100.746C37.7794 100.114 36.0938 99.6037 34.6926 99.5969L34.7263 99.1216C36.3907 99.1304 38.3548 99.7477 39.5012 100.56C43.1936 99.4928 46.885 98.3813 50.5745 97.2657C49.0582 96.2156 46.5406 95.4268 44.6316 94.5904L44.8179 94.1476C46.8186 95.0251 49.5793 95.8311 51.1629 97.09C55.6938 95.7181 60.2234 94.3615 64.7507 93.1072C63.2168 92.1257 60.5861 91.3856 58.5738 91.3012L58.6209 90.8256C60.8747 90.918 63.78 91.7447 65.361 92.9379C66.0077 92.7594 66.6538 92.5737 67.301 92.4025C69.6604 91.7717 71.838 89.6216 74.187 88.8366L74.2867 89.29C72.0924 90.0225 69.897 92.187 67.3745 92.8636C66.7863 93.0219 66.1996 93.1895 65.6123 93.3499C64.3785 97.1078 61.1671 99.6924 59.1724 102.444L58.8382 102.166C60.8405 99.4009 63.856 96.9094 65.0946 93.4908C60.4867 94.764 55.8769 96.1466 51.2617 97.5413C50.7966 98.4678 50.2835 99.9097 49.642 101.223C48.9821 102.574 48.1839 103.822 47.0632 104.196L46.9636 103.743C47.8585 103.444 48.6201 102.336 49.2602 101.025C49.8128 99.8916 50.2726 98.6605 50.7165 97.7052C47.0888 98.8019 43.4592 99.8944 39.8248 100.947C39.823 100.984 39.8101 101.022 39.7906 101.056C39.2366 102.049 38.3975 102.807 37.5633 103.515C36.7291 104.223 35.9027 104.889 35.3426 105.659L35.0083 105.381C35.6261 104.529 36.4861 103.848 37.3097 103.146C38.0414 102.522 38.7344 101.878 39.2289 101.118C35.8987 102.077 32.5661 102.995 29.2278 103.829L29.1665 103.371Z" fill="#26A269"/>
<path d="M34.8653 50.3955C33.2268 53.29 35.4053 55.7779 35.7158 56.111C35.7513 56.2181 35.7797 56.3126 35.8167 56.4235C36.0443 57.0756 36.3067 57.7117 36.5884 58.3248C35.8926 57.4901 34.8158 56.7225 33.1965 56.7156C33.8127 59.7731 35.868 60.5655 37.666 60.4092C37.9878 60.9646 38.2828 61.4293 38.4988 61.7425C38.4988 61.7425 38.5003 61.7463 38.5029 61.7475C37.399 61.0434 35.8362 60.501 34.042 61.2196C35.9059 63.9332 38.0891 64.1399 39.7561 63.4563C40.2474 64.09 40.815 64.7859 41.4712 65.5306C41.5738 65.6486 41.6734 65.759 41.7783 65.8717C40.5491 65.1466 38.1213 64.1888 35.6531 65.9184C38.2722 68.4633 40.767 67.9234 42.4356 66.5916C43.615 67.8583 44.7103 68.905 45.5326 69.6478C46.5182 70.5418 46.8228 70.7715 46.8243 70.7753L47.048 70.9533L47.0462 70.8549L47.041 70.4936L47.0358 70.1323L47.2589 70.2092C47.2615 70.2104 46.9606 70.0013 45.9754 69.1357C45.1272 68.3877 43.982 67.3189 42.7558 66.0157C44.3449 64.6361 45.3227 62.3113 43.4475 59.2431C41.2305 61.3424 41.6823 63.9804 42.1288 65.3344C42.0633 65.2612 41.9966 65.1907 41.9311 65.1175C41.2319 64.3348 40.6357 63.6104 40.125 62.9492C41.569 61.7855 42.4911 59.6941 40.8956 56.6871C38.9119 58.4364 39.1962 60.8742 39.5539 62.195C39.3461 61.9138 39.1586 61.6511 38.9871 61.4018C38.7741 61.0962 38.4551 60.6366 38.1085 60.1174C39.2116 58.7363 39.6779 56.66 37.6424 54.4371C36.6431 55.8454 36.6891 57.261 37.0039 58.3455C36.6405 57.7118 36.2948 57.0514 35.987 56.3605C35.9414 56.2552 35.904 56.1599 35.861 56.0557C36.8475 54.5599 37.1351 52.42 34.8653 50.3955Z" fill="#1C774D"/>
<path d="M60.6404 77.0948C62.175 61.1635 53.4895 53.168 41.036 49.7256C37.3546 66.4636 49.9986 79.2718 60.6404 77.0948Z" fill="#A3CB69"/>
<path d="M41.8163 51.4423C41.9537 51.3565 42.136 51.3996 42.222 51.5398C42.222 51.5398 44.4002 55.0582 47.4789 59.6394C47.5103 57.5194 48.4981 55.7649 48.4981 55.7649C48.5797 55.6229 48.757 55.5754 48.8995 55.6572C49.0405 55.7413 49.0891 55.9217 49.0099 56.0654C49.0099 56.0654 47.7882 58.2814 48.1028 60.5621C48.8199 61.6193 49.5613 62.7075 50.3475 63.8268C50.7664 64.4254 51.2012 65.0314 51.6343 65.6399L53.7737 59.8241C53.8308 59.672 54.0005 59.5948 54.1511 59.6542C54.3017 59.7137 54.3796 59.8865 54.3224 60.0386L52.0462 66.2231C53.2446 67.884 54.4818 69.544 55.7085 71.1164C56.0278 70.2851 56.0843 69.0302 56.0125 67.9302C55.9307 66.6698 55.7218 65.6348 55.7218 65.6348C55.7049 65.5568 55.7204 65.4769 55.7636 65.4127C55.8067 65.3485 55.8734 65.3008 55.9486 65.2868C56.1084 65.2551 56.2619 65.3619 56.2964 65.5219C56.2964 65.5219 56.5146 66.5948 56.5985 67.8985C56.6795 69.1549 56.6627 70.6293 56.1366 71.655C58.9893 75.2627 61.7671 78.3473 63.8658 79.7767C64.0004 79.8704 64.0371 80.0529 63.9485 80.19C63.8598 80.3272 63.6778 80.3609 63.5417 80.2696C61.2974 78.7424 58.4623 75.5831 55.576 71.9172C51.2257 71.8441 48.8342 71.0725 48.8342 71.0725C48.6788 71.0202 48.5922 70.8552 48.6422 70.6982C48.6906 70.5435 48.8541 70.4549 49.0094 70.5073C49.0094 70.5073 51.1352 71.1846 55.0907 71.3039C53.8915 69.7576 52.6889 68.139 51.5194 66.5123L44.9586 66.275C44.7958 66.2699 44.667 66.1314 44.6729 65.968C44.6763 65.803 44.8116 65.6738 44.9728 65.6813L51.0855 65.8998C50.6751 65.3247 50.26 64.7462 49.8606 64.1752C49.1551 63.1678 48.4857 62.1891 47.8328 61.2323C47.8249 61.2337 47.8186 61.2328 47.8106 61.2343C45.1167 60.7582 43.5036 60.2459 42.5546 59.8435C42.08 59.6423 41.7705 59.4687 41.5745 59.3428C41.3801 59.2144 41.2788 59.1125 41.2788 59.1125C41.1658 58.992 41.171 58.8037 41.2887 58.6903C41.4065 58.5769 41.5922 58.5841 41.7052 58.7046C41.7052 58.7046 41.7319 58.7371 41.8909 58.8408C42.0522 58.9461 42.3302 59.1047 42.7779 59.2943C43.5977 59.6416 45.0745 60.0939 47.3592 60.5294C44.0808 55.6731 41.7156 51.8605 41.7156 51.8605C41.6344 51.7133 41.6774 51.5305 41.8163 51.4423C41.8147 51.4447 41.8147 51.4447 41.8163 51.4423Z" fill="#D3EAAC"/>
<path d="M57.1787 73.6617C56.1112 89.6718 46.2237 95.9366 33.3477 97.0076C32.4224 79.8034 47.0046 69.5245 57.1787 73.6617Z" fill="#A3CB69"/>
<path d="M34.3953 95.4543C34.5171 95.5652 34.7025 95.5561 34.8109 95.4339C34.8109 95.4339 37.5385 92.3651 41.3324 88.4168C41.0204 90.5177 41.7126 92.4368 41.7126 92.4368C41.769 92.5912 41.9379 92.6725 42.0925 92.6182C42.2445 92.5627 42.3231 92.3926 42.2679 92.2356C42.2679 92.2356 41.4186 89.8177 42.0985 87.6248C42.9808 86.714 43.8898 85.7772 44.8516 84.8197C45.3644 84.3062 45.8923 83.7868 46.4217 83.2713L47.597 89.417C47.6282 89.5791 47.7832 89.6857 47.9431 89.6558C48.1029 89.6259 48.2068 89.4702 48.1756 89.3081L46.9277 82.7737C48.3861 81.3555 49.8773 79.9487 51.3488 78.6246C51.5307 79.5065 51.3837 80.7564 51.1329 81.831C50.8475 83.0605 50.4722 84.0451 50.4722 84.0451C50.4443 84.1179 50.4466 84.2009 50.4778 84.2747C50.509 84.3484 50.5699 84.4039 50.6422 84.4328C50.7945 84.4942 50.9645 84.4183 51.0236 84.2647C51.0236 84.2647 51.4136 83.2457 51.708 81.9729C51.9923 80.746 52.2157 79.2871 51.8627 78.1747C55.2723 75.1439 58.5238 72.6169 60.8338 71.5958C60.9839 71.53 61.0494 71.3541 60.9828 71.2015C60.9163 71.0489 60.7417 70.9809 60.5916 71.0467C58.1214 72.1354 54.8018 74.7268 51.3478 77.8104C47.0287 77.0718 44.5353 77.3838 44.5353 77.3838C44.3735 77.4035 44.2618 77.5557 44.2828 77.7196C44.3039 77.8835 44.4554 77.9981 44.6172 77.9785C44.6172 77.9785 46.8333 77.7074 50.7673 78.3285C49.3266 79.6316 47.8735 81.008 46.4543 82.3931L39.9206 81.3997C39.7588 81.3752 39.6102 81.489 39.5876 81.6524C39.565 81.8158 39.679 81.9674 39.8407 81.9919L45.9267 82.919C45.4255 83.4124 44.9218 83.9046 44.4345 84.3947C43.5725 85.2578 42.7504 86.1007 41.95 86.9217C41.9421 86.9182 41.9357 86.9185 41.9278 86.915C39.1836 86.8822 37.5035 87.0855 36.4991 87.3049C35.9961 87.4127 35.6628 87.5265 35.4488 87.6175C35.2347 87.7085 35.1188 87.7895 35.1188 87.7895C34.9897 87.8867 34.9634 88.0737 35.0597 88.208C35.1571 88.3395 35.3421 88.3681 35.4738 88.272C35.4738 88.272 35.5043 88.2446 35.6796 88.171C35.8549 88.0975 36.1566 87.9918 36.6318 87.8905C37.5008 87.7024 39.0326 87.5311 41.3695 87.5281C37.334 91.7129 34.3724 95.0372 34.3724 95.0372C34.2625 95.1556 34.2734 95.3434 34.3953 95.4543Z" fill="#D3EAAC"/>
<path d="M55.502 75.1043C47.2716 61.2707 35.6561 60.1745 23.7574 65.0905C30.7666 80.904 48.3661 83.4451 55.502 75.1043Z" fill="#62AA4B"/>
<path d="M25.383 65.9684C25.4409 65.8135 25.611 65.7355 25.7624 65.7959C25.7624 65.7959 29.5783 67.3003 34.7391 69.1087C33.505 67.3686 33.2461 65.3319 33.2461 65.3319C33.2264 65.166 33.3388 65.0175 33.5004 64.9954C33.6619 64.9734 33.8077 65.0925 33.8302 65.2583C33.8302 65.2583 34.1778 67.8147 35.7815 69.4705C36.9777 69.8837 38.2115 70.307 39.4994 70.7277C40.187 70.9536 40.8914 71.1759 41.596 71.401L39.8383 65.3538C39.7932 65.1949 39.8818 65.027 40.0365 64.9818C40.1912 64.9367 40.3556 65.0286 40.4006 65.1875L42.2689 71.6188C44.2051 72.2234 46.1715 72.8032 48.0776 73.3184C47.837 72.4457 47.1366 71.3922 46.4265 70.544C45.6132 69.5717 44.8329 68.8613 44.8329 68.8613C44.7732 68.8085 44.7381 68.734 44.7342 68.6552C44.7302 68.5764 44.7548 68.4962 44.8061 68.4382C44.9139 68.3133 45.099 68.3048 45.2214 68.4133C45.2214 68.4133 46.0314 69.1487 46.8721 70.1548C47.6824 71.1242 48.5446 72.3312 48.7367 73.4901C53.1402 74.6485 57.1738 75.4289 59.6861 75.2871C59.8482 75.2767 59.9859 75.4049 59.9971 75.5712C60.0083 75.7375 59.884 75.8779 59.7219 75.8882C57.0361 76.0409 52.9127 75.2354 48.448 74.0506C44.9564 76.6897 42.6026 77.5471 42.6026 77.5471C42.4484 77.601 42.2817 77.5209 42.2281 77.3624C42.1745 77.2039 42.2516 77.0335 42.4058 76.9796C42.4058 76.9796 44.4931 76.2106 47.6992 73.8538C45.8304 73.3427 43.916 72.7752 42.023 72.1803L36.6817 76.0575C36.5496 76.1542 36.3654 76.1218 36.273 75.9855C36.1777 75.8495 36.2082 75.6607 36.3405 75.5669L41.3154 71.9524C40.6486 71.7401 39.976 71.5281 39.3204 71.3124C38.1629 70.9325 37.0512 70.5534 35.9654 70.1819C35.96 70.188 35.9545 70.1912 35.9491 70.1973C33.531 71.4819 31.9482 72.0668 30.957 72.3289C30.4614 72.46 30.113 72.5111 29.8828 72.5304C29.6525 72.5469 29.5117 72.527 29.5117 72.527C29.3506 72.4993 29.2429 72.3433 29.2689 72.1782C29.2948 72.0132 29.4463 71.9038 29.6075 71.9315C29.6075 71.9315 29.6479 71.9413 29.8355 71.9269C30.0259 71.9122 30.3405 71.8685 30.8079 71.7446C31.664 71.518 33.1031 70.969 35.1727 69.9052C29.6902 67.9975 25.5515 66.3703 25.5515 66.3703C25.3995 66.2983 25.3253 66.1261 25.383 65.9684Z" fill="#86C96D"/>
<path d="M61.0547 38.8488C57.8575 39.7067 57.6715 43.0209 57.6615 43.4774C57.6133 43.5759 57.5658 43.6653 57.5152 43.7692C57.2223 44.3906 56.9635 45.0271 56.7352 45.6582C56.8222 44.573 56.5872 43.2597 55.437 42.0897C53.7376 44.6822 54.6522 46.7136 56.0469 47.8973C55.8886 48.5184 55.7743 49.0581 55.7084 49.4329C55.7084 49.4329 55.7099 49.4367 55.7062 49.4382C55.4098 48.1514 54.6714 46.6464 52.8866 45.8642C52.3185 49.1131 53.7356 50.8244 55.405 51.5396C55.3119 52.3381 55.2333 53.2345 55.1784 54.2297C55.1692 54.3835 55.1637 54.5358 55.1572 54.6907C54.7842 53.2973 53.7182 50.8798 50.7445 50.3248C50.8327 53.9942 52.997 55.4057 55.1218 55.6694C55.0783 57.4084 55.1288 58.9271 55.1947 60.0423C55.2733 61.3778 55.3296 61.7595 55.3311 61.7633L55.3665 62.0473L55.4343 61.9764L55.6851 61.7183L55.9359 61.4602L56.0417 61.6744C56.0432 61.6783 55.9737 61.3128 55.8771 59.9978C55.7946 58.8626 55.7242 57.2877 55.7606 55.4918C57.8621 55.6632 60.1906 54.7293 60.9955 51.2256C57.9405 51.1111 56.4188 53.2868 55.7873 54.563C55.792 54.464 55.7928 54.3665 55.7974 54.2676C55.8453 53.2155 55.9281 52.2799 56.0242 51.445C57.8707 51.6642 59.9933 50.8536 60.9597 47.5951C58.3143 47.4004 56.8139 49.3203 56.1438 50.5036C56.1908 50.1583 56.2432 49.8374 56.2954 49.5386C56.3579 49.1717 56.4496 48.6189 56.5647 48.0039C58.318 47.825 60.1085 46.6999 60.2084 43.6758C58.508 43.9507 57.5507 44.9782 57.0169 45.9663C57.2024 45.2594 57.4184 44.547 57.6822 43.8401C57.7222 43.7316 57.7644 43.6398 57.8048 43.5377C59.553 43.202 61.2579 41.9031 61.0547 38.8488Z" fill="#1C774D"/>
<path d="M43.6674 102.228C46.9818 102.24 48.0096 99.0937 48.1361 98.6574C48.2095 98.5732 48.2773 98.5023 48.3519 98.4154C48.794 97.8918 49.2069 97.3489 49.5885 96.7985C49.2274 97.822 49.1182 99.1499 49.933 100.578C52.2412 98.5244 51.8764 96.3265 50.8278 94.8228C51.141 94.2641 51.3901 93.7749 51.5462 93.4306L51.5459 93.4241C51.5029 94.7435 51.8323 96.3859 53.3611 97.6069C54.7407 94.6266 53.8063 92.6054 52.3725 91.477C52.666 90.7296 52.9747 89.888 53.2801 88.9439C53.328 88.7947 53.3725 88.6534 53.4167 88.5057C53.4218 89.9474 53.8343 92.5547 56.5713 93.8698C57.4217 90.3107 55.6899 88.384 53.6984 87.5732C54.1859 85.9081 54.525 84.4297 54.7452 83.3404C55.0092 82.0307 55.053 81.6493 55.0541 81.6466L55.0906 81.3629L55.0063 81.4139L54.6973 81.5957L54.3882 81.7774L54.3415 81.542C54.34 81.5382 54.3137 81.9085 54.0729 83.2001C53.8633 84.3161 53.5286 85.8501 53.0354 87.5727C51.0441 86.8567 48.5523 87.1466 46.8779 90.3119C49.8061 91.2225 51.8371 89.5254 52.7718 88.4627C52.7439 88.5577 52.717 88.6499 52.6865 88.7437C52.369 89.7456 52.0524 90.6279 51.7465 91.4045C50.0155 90.7093 47.7546 90.9343 45.9862 93.8211C48.4958 94.7007 50.4393 93.2458 51.3923 92.2796C51.2554 92.6009 51.1261 92.897 51.0005 93.1696C50.844 93.5074 50.6151 94.0151 50.347 94.578C48.602 94.2901 46.584 94.907 45.7133 97.7942C47.4291 97.9745 48.617 97.2356 49.3878 96.4253C49.0275 97.0578 48.6375 97.6866 48.2016 98.2982C48.1338 98.3913 48.0717 98.471 48.0061 98.5587C46.2278 98.4297 44.2486 99.2343 43.6636 102.229L43.6674 102.228Z" fill="#1C774D"/>
<path d="M166.319 131.082C166.319 121.888 166.176 119.07 165.947 114.474C165.716 109.878 165.433 109.878 165.202 114.474C164.971 119.07 164.831 121.89 164.831 131.082H165.576H166.319Z" fill="#A9CE72"/>
<path d="M165.573 113.414C166.396 113.414 167.063 112.736 167.063 111.9C167.063 111.064 166.396 110.386 165.573 110.386C164.751 110.386 164.083 111.064 164.083 111.9C164.083 112.736 164.751 113.414 165.573 113.414Z" fill="#60B141"/>
<path d="M166.366 107.684C166.366 111.283 166.007 111.859 165.564 111.859C165.121 111.859 164.762 111.283 164.762 107.684C164.762 104.084 165.121 98.8232 165.564 98.8232C166.007 98.8208 166.366 104.082 166.366 107.684ZM161.62 113.238C164.688 111.438 165.357 111.465 165.578 111.856C165.8 112.246 165.488 112.851 162.42 114.65C159.352 116.45 154.69 118.765 154.468 118.375C154.25 117.983 158.553 115.037 161.62 113.238ZM168.725 114.638C165.657 112.838 165.345 112.234 165.566 111.844C165.788 111.455 166.459 111.426 169.524 113.225C172.592 115.025 176.895 117.971 176.674 118.361C176.455 118.753 171.792 116.438 168.725 114.638Z" fill="#A9CE72"/>
<path d="M165.573 112.468C165.882 112.468 166.133 112.214 166.133 111.9C166.133 111.586 165.882 111.331 165.573 111.331C165.265 111.331 165.014 111.586 165.014 111.9C165.014 112.214 165.265 112.468 165.573 112.468Z" fill="#60B141"/>
<path d="M181.826 132.685C181.826 116.359 181.572 111.356 181.167 103.195C180.757 95.034 180.254 95.034 179.844 103.195C179.434 111.356 179.185 116.364 179.185 132.685H180.507H181.826Z" fill="#A9CE72"/>
<path d="M184.391 99.2332C184.73 97.0612 183.272 95.0212 181.135 94.6767C178.998 94.3321 176.991 95.8134 176.652 97.9853C176.313 100.157 177.77 102.197 179.907 102.542C182.044 102.886 184.052 101.405 184.391 99.2332Z" fill="#60B141"/>
<path d="M181.91 91.1384C181.91 97.5295 181.272 98.5518 180.486 98.5518C179.7 98.5518 179.062 97.5295 179.062 91.1384C179.062 84.7472 179.7 75.4053 180.486 75.4053C181.272 75.4053 181.91 84.7472 181.91 91.1384ZM173.484 101C178.931 97.8044 180.119 97.8517 180.512 98.5475C180.905 99.239 180.351 100.313 174.904 103.508C169.456 106.704 161.178 110.814 160.785 110.123C160.392 109.431 168.036 104.196 173.484 101ZM186.103 103.487C180.655 100.291 180.102 99.2175 180.495 98.526C180.888 97.8345 182.08 97.7829 187.523 100.979C192.97 104.174 200.611 109.406 200.218 110.097C199.825 110.793 191.546 106.682 186.103 103.487Z" fill="#A9CE72"/>
<path d="M180.503 97.6198C181.053 97.6198 181.496 98.0707 181.496 98.6291C181.496 99.1875 181.053 99.6385 180.503 99.6385C179.954 99.6385 179.51 99.1875 179.51 98.6291C179.514 98.0707 179.958 97.6198 180.503 97.6198Z" fill="#60B141"/>
<path d="M185.846 135.893H22.2954C22.2954 135.893 32.3791 127.471 40.8221 128.73C49.2623 129.989 53.5651 127.953 58.8409 125.436C64.1167 122.918 77.165 122.472 89.8253 124.569C102.488 126.665 114.621 131.279 120.952 129.603C127.284 127.924 134.143 124.151 144.167 125.409C154.191 126.668 157.358 131.282 163.159 130.023C168.962 128.762 183.734 130.441 185.846 135.893Z" fill="#26A269"/>
<path d="M123.551 12.9832C120.614 14.5606 121.134 17.8351 121.221 18.2814C121.195 18.3905 121.166 18.4858 121.139 18.6013C120.985 19.275 120.869 19.9542 120.78 20.6242C120.634 19.5455 120.131 18.3194 118.759 17.4464C117.65 20.3677 118.969 22.1361 120.579 22.965C120.554 23.6075 120.557 24.161 120.574 24.5423C120.574 24.5423 120.575 24.5451 120.573 24.5487C120.013 23.363 118.976 22.0665 117.069 21.7216C117.201 25.0201 118.946 26.3585 120.724 26.6676C120.804 27.4668 120.913 28.3595 121.072 29.3419C121.098 29.4949 121.125 29.6443 121.149 29.7946C120.492 28.5227 118.943 26.4144 115.923 26.563C116.784 30.1187 119.195 30.9923 121.322 30.7541C121.647 32.4578 122.019 33.9296 122.318 34.9991C122.677 36.283 122.813 36.6394 122.815 36.6449L122.911 36.9144L122.962 36.83L123.153 36.522L123.344 36.214L123.491 36.3991C123.492 36.4018 123.349 36.0628 122.977 34.8045C122.654 33.7186 122.256 32.201 121.912 30.4396C123.998 30.1181 126.071 28.6702 126.118 25.0674C123.116 25.6642 122.089 28.14 121.745 29.5268C121.729 29.4287 121.71 29.3343 121.694 29.2363C121.519 28.1979 121.401 27.2686 121.319 26.4337C123.167 26.2168 125.065 24.9376 125.319 21.5364C122.698 21.9589 121.641 24.1799 121.236 25.4898C121.211 25.1415 121.191 24.8161 121.178 24.5155C121.161 24.1434 121.136 23.5853 121.117 22.9575C122.79 22.3758 124.297 20.8658 123.756 17.8938C122.154 18.5551 121.441 19.7798 121.129 20.866C121.16 20.1365 121.219 19.3913 121.328 18.6416C121.345 18.5261 121.364 18.428 121.383 18.318C123.009 17.5723 124.394 15.9112 123.551 12.9832Z" fill="#1C774D"/>
<path d="M94.1986 18.277C93.7744 21.6051 96.723 23.0263 97.1351 23.2102C97.2069 23.2926 97.2678 23.3695 97.3468 23.4555C97.8035 23.9655 98.2839 24.4461 98.7736 24.8992C97.8165 24.4087 96.5331 24.1317 95.0358 24.7732C96.7574 27.3478 98.95 27.2546 100.553 26.3886C101.059 26.7721 101.507 27.0843 101.825 27.2847C101.825 27.2874 101.828 27.2865 101.828 27.2865C100.546 27.0791 98.8979 27.2051 97.5127 28.5884C100.256 30.3467 102.348 29.6601 103.628 28.361C104.32 28.7491 105.107 29.1627 105.992 29.5892C106.131 29.6551 106.267 29.7191 106.404 29.7823C104.997 29.6079 102.393 29.6967 100.768 32.2816C104.141 33.5808 106.243 32.081 107.282 30.184C108.848 30.8804 110.253 31.4055 111.291 31.7623C112.539 32.1914 112.907 32.2838 112.909 32.2829L113.183 32.3551L113.145 32.2645L113.004 31.9312L112.864 31.5979L113.099 31.5795C113.103 31.5813 112.744 31.5073 111.51 31.1038C110.445 30.7534 108.987 30.2246 107.364 29.5136C108.312 27.6048 108.339 25.0654 105.453 22.9866C104.197 25.8122 105.604 28.0636 106.529 29.1375C106.44 29.0973 106.353 29.0598 106.264 29.0167C105.322 28.5757 104.502 28.1455 103.778 27.741C104.672 26.0877 104.735 23.7918 102.132 21.6544C100.957 24.066 102.139 26.2012 102.967 27.2742C102.669 27.0976 102.398 26.9301 102.144 26.769C101.833 26.5722 101.364 26.2766 100.848 25.9361C101.345 24.2216 100.996 22.1163 98.2793 20.8819C97.8887 22.5817 98.4628 23.8682 99.1602 24.7416C98.5871 24.3013 98.0198 23.8317 97.4772 23.3172C97.3945 23.2385 97.3254 23.1643 97.2463 23.0874C97.5967 21.3281 97.0565 19.2385 94.1986 18.277Z" fill="#1C774D"/>
<path d="M125.28 35.964C136.255 38.051 142.355 32.3377 145.535 23.6448C134.137 19.9723 124.438 28.2168 125.28 35.964Z" fill="#A3CB69"/>
<path d="M144.017 23.8133C144.068 23.9163 144.026 24.0427 143.925 24.0976C143.925 24.0976 141.344 25.4363 137.963 27.3517C139.436 27.5075 140.593 28.3206 140.593 28.3206C140.685 28.3863 140.709 28.518 140.643 28.6122C140.577 28.7064 140.447 28.7319 140.354 28.6662C140.354 28.6662 138.893 27.6548 137.287 27.7378C136.507 28.1842 135.706 28.646 134.876 29.1404C134.434 29.4021 133.984 29.6746 133.535 29.9496L137.442 31.841C137.545 31.8906 137.589 32.0172 137.539 32.1221C137.489 32.227 137.363 32.273 137.26 32.2234L133.103 30.212C131.871 30.9645 130.64 31.7467 129.47 32.5266C130.029 32.8058 130.896 32.924 131.665 32.9432C132.547 32.9637 133.281 32.8777 133.281 32.8777C133.337 32.8719 133.391 32.8869 133.434 32.9219C133.476 32.9569 133.504 33.007 133.509 33.0635C133.521 33.1791 133.437 33.2833 133.323 33.2963C133.323 33.2963 132.565 33.3863 131.652 33.3637C130.774 33.3443 129.751 33.2402 129.07 32.8001C126.383 34.6163 124.063 36.4089 122.938 37.8204C122.867 37.911 122.735 37.9276 122.645 37.854C122.556 37.7829 122.541 37.6494 122.615 37.5573C123.817 36.0484 126.194 34.2165 128.924 32.3823C129.25 29.277 129.938 27.6155 129.938 27.6155C129.983 27.5071 130.106 27.4561 130.21 27.5018C130.316 27.546 130.365 27.6698 130.319 27.7758C130.319 27.7758 129.714 29.2544 129.38 32.0734C130.53 31.3113 131.732 30.5528 132.934 29.82L133.514 25.1453C133.529 25.0308 133.634 24.9472 133.745 24.9589C133.858 24.9731 133.94 25.0782 133.927 25.1913L133.389 29.5446C133.817 29.2851 134.244 29.0256 134.665 28.7768C135.408 28.3351 136.132 27.9177 136.839 27.5104C136.839 27.504 136.84 27.5 136.84 27.4936C137.341 25.5961 137.8 24.4759 138.137 23.8225C138.307 23.4963 138.446 23.2843 138.547 23.1532C138.648 23.0222 138.726 22.9544 138.726 22.9544C138.817 22.882 138.947 22.8965 139.017 22.9881C139.088 23.0796 139.072 23.211 138.981 23.2833C138.981 23.2833 138.957 23.3002 138.873 23.4083C138.788 23.5165 138.662 23.7045 138.503 24.0146C138.209 24.5803 137.803 25.6071 137.354 27.2135C140.938 25.1716 143.735 23.7185 143.735 23.7185C143.841 23.6672 143.967 23.7103 144.017 23.8133Z" fill="#D3EAAC"/>
<path d="M123.036 42.4279C132.408 48.5529 140.167 45.5813 146.332 38.7308C137.156 30.9742 125.133 34.9199 123.036 42.4279Z" fill="#A3CB69"/>
<path d="M145.016 38.674C145.025 38.7887 144.94 38.89 144.826 38.9023C144.826 38.9023 141.942 39.1595 138.105 39.6461C139.409 40.3515 140.177 41.5459 140.177 41.5459C140.238 41.642 140.211 41.773 140.115 41.8352C140.019 41.8973 139.889 41.8713 139.828 41.7753C139.828 41.7753 138.853 40.2814 137.337 39.7464C136.45 39.8627 135.537 39.9853 134.587 40.1275C134.081 40.2014 133.564 40.2824 133.047 40.3663L135.956 43.6075C136.033 43.6928 136.027 43.8269 135.942 43.905C135.856 43.983 135.723 43.9778 135.646 43.8925L132.549 40.4447C131.132 40.6729 129.703 40.9286 128.332 41.2055C128.745 41.6772 129.502 42.117 130.206 42.4279C131.014 42.7828 131.724 42.9828 131.724 42.9828C131.778 42.9987 131.823 43.0333 131.849 43.0819C131.875 43.1305 131.882 43.1875 131.866 43.2419C131.834 43.3534 131.718 43.4182 131.608 43.3867C131.608 43.3867 130.873 43.1812 130.038 42.8126C129.234 42.4601 128.326 41.9738 127.86 41.3065C124.701 41.9656 121.891 42.7429 120.327 43.6222C120.227 43.679 120.099 43.6441 120.043 43.5415C119.987 43.4419 120.023 43.3125 120.125 43.2553C121.798 42.3152 124.675 41.5231 127.88 40.8636C129.335 38.1105 130.588 36.8329 130.588 36.8329C130.669 36.7495 130.802 36.749 130.881 36.8311C130.963 36.9127 130.963 37.0461 130.881 37.1266C130.881 37.1266 129.772 38.2661 128.416 40.751C129.763 40.4832 131.155 40.2381 132.54 40.0174L134.811 35.9062C134.867 35.8031 134.995 35.7685 135.094 35.8219C135.193 35.878 135.23 36.0064 135.176 36.1064L133.062 39.9356C133.554 39.8579 134.045 39.7803 134.526 39.7099C135.378 39.5839 136.202 39.4731 137.007 39.365C137.009 39.3589 137.012 39.3556 137.014 39.3496C138.182 37.7821 139.022 36.919 139.576 36.4419C139.855 36.2046 140.062 36.0609 140.204 35.9781C140.347 35.8952 140.443 35.862 140.443 35.862C140.554 35.8297 140.669 35.8925 140.7 36.0042C140.731 36.1158 140.668 36.2315 140.557 36.2638C140.557 36.2638 140.529 36.2705 140.41 36.3385C140.292 36.4066 140.106 36.5329 139.843 36.7594C139.362 37.1717 138.605 37.9685 137.594 39.2862C141.665 38.7594 144.79 38.4784 144.79 38.4784C144.908 38.4714 145.008 38.5564 145.016 38.674Z" fill="#D3EAAC"/>
<path opacity="0.1" d="M130.419 35.2705C128.684 35.8622 127.142 36.7624 125.895 37.8963C125.563 38.6625 125.357 39.4903 125.238 40.2948C125.181 40.6777 125.622 41.2293 125.729 41.5553C126.362 43.5181 127.388 43.4438 129.291 43.2949C130.394 43.2074 131.231 42.5593 132.201 42.2338C133.94 41.6502 134.97 40.3273 135.753 38.7731C136.415 37.4591 136.131 35.7779 135.437 34.4809C133.669 34.4631 131.97 34.7444 130.419 35.2705Z" fill="black"/>
<path d="M113.091 38.2325C103.508 32.3682 102.829 24.0074 106.341 15.4084C117.312 20.3842 118.958 33.0516 113.091 38.2325Z" fill="#A3CB69"/>
<path d="M106.957 16.5777C106.849 16.6201 106.794 16.7422 106.833 16.8513C106.833 16.8513 107.851 19.5925 109.076 23.3037C107.871 22.4235 106.456 22.2453 106.456 22.2453C106.342 22.2318 106.235 22.3136 106.221 22.4282C106.206 22.5429 106.286 22.6501 106.4 22.6636C106.4 22.6636 108.176 22.8999 109.318 24.0479C109.598 24.9077 109.883 25.7931 110.167 26.7216C110.32 27.2157 110.471 27.7226 110.619 28.2304L106.42 26.9941C106.31 26.9613 106.191 27.0257 106.157 27.1376C106.123 27.2496 106.186 27.3687 106.297 27.4015L110.764 28.718C111.172 30.1104 111.561 31.5248 111.905 32.8961C111.299 32.7257 110.571 32.2272 109.984 31.721C109.312 31.1398 108.823 30.5794 108.823 30.5794C108.785 30.5373 108.734 30.5117 108.679 30.5091C108.623 30.5064 108.569 30.5248 108.527 30.5634C108.44 30.6415 108.431 30.7754 108.508 30.8624C108.508 30.8624 109.012 31.4421 109.709 32.0425C110.377 32.6218 111.211 33.2367 112.018 33.3701C112.792 36.5382 113.308 39.4399 113.19 41.2505C113.182 41.366 113.269 41.4677 113.386 41.4739C113.501 41.481 113.603 41.3919 113.61 41.2736C113.736 39.3383 113.205 36.3688 112.411 33.1585C114.273 30.6287 114.887 28.9282 114.887 28.9282C114.927 28.8172 114.87 28.6962 114.761 28.6597C114.651 28.6205 114.531 28.6794 114.494 28.7895C114.494 28.7895 113.942 30.2982 112.28 32.6204C111.938 31.2756 111.556 29.8988 111.155 28.5403L113.893 24.6728C113.959 24.5773 113.938 24.4444 113.847 24.3776C113.753 24.3117 113.621 24.3349 113.554 24.4276L111.002 28.028C110.859 27.5458 110.716 27.0637 110.571 26.5944C110.316 25.763 110.058 24.9628 109.807 24.1819C109.812 24.1773 109.813 24.1736 109.818 24.1691C110.731 22.4195 111.148 21.2761 111.34 20.5622C111.434 20.2044 111.474 19.9531 111.487 19.787C111.501 19.621 111.489 19.5183 111.489 19.5183C111.47 19.4028 111.363 19.326 111.248 19.3463C111.134 19.3667 111.057 19.4751 111.076 19.5906C111.076 19.5906 111.082 19.619 111.071 19.7566C111.061 19.8942 111.027 20.1189 110.936 20.4575C110.772 21.0768 110.378 22.1147 109.624 23.6127C108.334 19.6705 107.232 16.6983 107.232 16.6983C107.187 16.5884 107.067 16.5344 106.957 16.5777Z" fill="#D3EAAC"/>
<path d="M114.444 35.0556C112.642 31.3432 108.993 23.5808 113.959 22.1007C119.983 20.3056 118.14 28.7375 120.654 29.4271C121.279 29.5988 121.754 29.4415 122.16 28.9182C122.886 27.9825 123.086 26.1695 123.398 24.9693C124.055 22.4178 126.717 20.5698 128.685 21.6685C133.476 24.3467 127.709 30.0448 127.692 32.0972C127.656 36.0292 135.55 31.2456 135.409 36.8916C135.237 43.7922 118.944 44.328 114.444 35.0556Z" fill="#62AA4B"/>
<path d="M114.221 24.653C114.109 24.6815 114.041 24.7988 114.068 24.9112C114.676 27.3691 115.731 29.5819 116.852 31.757C116.933 31.9151 117.027 32.0659 117.125 32.212C117.108 32.2057 117.094 32.2011 117.077 32.1947C116.728 32.0664 116.293 31.8212 115.871 31.532C115.449 31.2428 115.035 30.9116 114.713 30.613C114.39 30.3145 114.159 30.025 114.12 29.9317C114.074 29.8257 113.952 29.7756 113.846 29.8234C113.741 29.8712 113.69 29.9948 113.736 30.1008C113.843 30.3503 114.09 30.6106 114.429 30.9246C114.769 31.2387 115.196 31.5809 115.636 31.8819C116.077 32.183 116.529 32.4437 116.936 32.5921C117.135 32.6649 117.321 32.7112 117.501 32.7145C117.931 33.2653 118.395 33.7684 118.686 34.3296C119.278 35.4765 120.203 36.7024 120.974 37.4877C120.984 37.4996 120.996 37.5078 121.008 37.516C120.784 37.9107 120.561 38.3054 120.331 38.6993C119.906 39.4237 119.299 40.5227 118.666 41.5421C118.032 42.5588 117.359 43.4978 116.885 43.8555C116.793 43.9261 116.772 44.0579 116.841 44.1502C116.91 44.2425 117.04 44.2623 117.132 44.1917C117.725 43.745 118.377 42.7951 119.018 41.7637C119.659 40.7324 120.269 39.6261 120.689 38.9126C120.931 38.4996 121.166 38.0829 121.401 37.6689C121.469 37.6825 121.532 37.7007 121.602 37.7133C121.842 37.754 122.099 37.7856 122.249 37.82C123.306 38.0558 124.423 38.244 125.563 38.3634C125.604 38.4438 125.659 38.5197 125.721 38.59C125.988 38.8978 126.422 39.1558 126.912 39.3945C127.401 39.6305 127.951 39.8399 128.442 40.0054C129.007 40.1946 129.742 40.0404 130.185 40.0368C130.3 40.0375 130.393 39.9422 130.395 39.826C130.397 39.7098 130.303 39.6139 130.189 39.616C129.67 39.6179 128.958 39.7309 128.579 39.6035C128.099 39.4435 127.562 39.2387 127.097 39.0127C126.704 38.8232 126.362 38.6134 126.148 38.4181C128.588 38.6183 131.098 38.4789 133.276 37.7428C133.385 37.706 133.446 37.5851 133.411 37.4754C133.375 37.3657 133.257 37.3055 133.148 37.3424C130.961 38.0812 128.391 38.2015 125.899 37.9703C125.91 37.9209 125.938 37.8659 126.008 37.7935C126.206 37.59 126.737 37.3283 127.709 37.1004C127.821 37.0746 127.894 36.9619 127.868 36.8458C127.844 36.7324 127.733 36.6604 127.621 36.6862C127.121 36.8033 126.723 36.9258 126.411 37.0554C126.1 37.1877 125.872 37.3318 125.716 37.494C125.593 37.6205 125.514 37.7689 125.491 37.9226C124.413 37.8067 123.353 37.6267 122.351 37.4027C122.162 37.36 121.908 37.3304 121.685 37.2933C121.662 37.2888 121.649 37.2842 121.627 37.2824C123.09 34.6659 124.394 32.0058 125.477 29.2683C125.997 28.8072 126.73 28.2614 127.385 27.6509C128.096 26.9881 128.725 26.2495 128.85 25.4076C128.868 25.2923 128.788 25.1854 128.674 25.1692C128.56 25.1529 128.453 25.2318 128.436 25.3499C128.336 26.0161 127.785 26.7069 127.102 27.3422C126.669 27.7438 126.212 28.1142 125.787 28.4645C126.367 26.9247 126.88 25.362 127.308 23.7639C127.338 23.6504 127.274 23.5353 127.162 23.5062C127.05 23.4772 126.936 23.5433 126.906 23.6568C126.433 25.4096 125.864 27.1251 125.207 28.8124C124.742 28.021 124.7 26.8648 124.816 26.0988C124.833 25.9835 124.754 25.8767 124.64 25.8604C124.585 25.8514 124.53 25.867 124.484 25.901C124.44 25.934 124.408 25.9844 124.402 26.0411C124.264 26.9571 124.268 28.3787 125.008 29.3205C123.944 31.9847 122.664 34.5789 121.232 37.1331C120.505 36.3817 119.618 35.2005 119.065 34.1257C118.768 33.5509 118.346 33.0641 117.956 32.5818C117.978 32.5653 117.997 32.5497 118.015 32.5314C118.257 32.2885 118.356 31.9361 118.39 31.5536C118.427 31.1703 118.398 30.7422 118.345 30.316C118.242 29.4663 118.038 28.6049 118.014 28.2692C118.007 28.1531 117.907 28.0654 117.792 28.0739C117.677 28.0823 117.589 28.185 117.596 28.3011C117.626 28.7439 117.826 29.5549 117.929 30.3717C117.978 30.7805 118.002 31.183 117.974 31.5179C117.942 31.8509 117.854 32.1027 117.723 32.2319C117.717 32.2402 117.707 32.2466 117.694 32.2539C117.521 32.0265 117.359 31.7953 117.235 31.5486C116.116 29.3789 115.078 27.2 114.484 24.7952C114.444 24.69 114.331 24.6216 114.221 24.653Z" fill="#86C96D"/>
<path opacity="0.1" d="M106.719 32.2353C106.719 32.2353 110.342 29.943 120.53 34.128C130.717 38.313 133.339 42.4302 133.825 43.5751C134.311 44.72 133.229 47.5835 133.229 47.5835L106.719 32.2353Z" fill="black"/>
<path d="M102.429 132.758C130.41 132.758 153.093 109.704 153.093 81.2657C153.093 52.8272 130.41 29.7733 102.429 29.7733C74.4481 29.7733 51.7651 52.8272 51.7651 81.2657C51.7651 109.704 74.4481 132.758 102.429 132.758Z" fill="#A9CE72"/>
<path d="M102.429 29.7733C93.8347 29.811 85.3917 32.073 77.8931 36.3418C78.0301 37.206 78.2726 38.0876 78.6978 39.0127C80.0246 41.9069 82.0219 43.9195 85.0093 44.7866C93.0614 47.124 90.8501 38.7604 97.9492 37.728C102.024 37.1364 107.111 40.7295 110.889 39.3317C114.456 38.0151 115.089 34.6801 116.319 31.7482C111.805 30.4403 107.128 29.7762 102.429 29.7733ZM132.928 40.1756C129.587 43.702 121.991 40.5381 118.784 45.4304C116.219 49.3396 122.165 52.7703 120.993 56.3373C120.348 58.3035 108.586 59.3504 111.209 64.6777C113.588 69.5178 122.571 62.2272 122.571 71.4144C122.571 72.9195 122.796 74.7146 121.623 75.9065C118.727 78.85 113.406 77.2028 110.575 80.0767C108.224 82.4663 110.918 85.9405 109.945 88.4171C109.063 90.6588 106.372 91.9928 104.894 93.8691C104.415 94.4781 99.5242 116.64 99.5271 116.646C100.531 118.687 107.659 108.822 109.942 108.305C112.096 107.818 114.402 108.827 116.57 108.627C120.234 108.288 128.591 106.154 130.143 102.21C131.179 99.5792 129.339 95.6584 130.774 93.2282C131.952 91.233 134.577 90.8444 134.877 88.0952C135.12 85.8825 135.191 83.5973 135.191 81.3585C135.191 79.5953 134.706 77.8988 136.455 77.1883C142.461 74.7465 141.888 87.1672 146.239 89.3799C147.771 90.16 150.342 88.6897 151.606 88.0981C151.963 87.9299 152.268 87.7588 152.599 87.5906C152.89 85.4968 153.053 83.3856 153.087 81.2686C153.084 65.1127 145.617 49.8993 132.928 40.1756ZM61.6862 50.7084C55.2519 59.5563 51.7766 70.2631 51.7651 81.2657C51.7794 86.8598 52.6896 92.4133 54.4615 97.7087C56.3447 98.1292 58.2679 98.4076 60.0769 98.0393C63.8975 97.2621 65.4326 93.611 69.861 94.51C75.1967 95.5946 76.5292 101.557 82.8008 99.9649C87.837 98.686 81.4312 86.0565 80.5924 83.925C78.421 78.4063 86.319 76.0486 84.6955 71.0925C82.7324 65.1098 77.6877 67.1775 74.2808 63.7149C72.235 61.6356 73.6787 57.97 71.4389 55.6964C68.4857 52.692 60.9386 57.4393 61.6862 50.7084Z" fill="#60B141"/>
<path d="M91.4437 49.3686C92.5051 48.9771 93.4154 48.2521 94.4397 47.7736C95.4641 47.2922 96.7423 47.0892 97.6754 47.7359C98.8395 48.5421 98.9337 50.2763 98.5314 51.648C98.1833 52.8312 97.5498 53.9419 96.6425 54.7597C94.5738 56.6215 91.5293 56.7027 88.9642 57.7525C88.091 58.1092 87.2407 58.5906 86.3048 58.6602C85.3033 58.7356 84.3218 58.3325 83.4601 57.8076C82.8038 57.4074 82.1732 56.9144 81.8137 56.23C81.0861 54.8496 81.6939 53.0574 82.8095 51.9786C83.831 50.9897 85.5773 50.0733 86.9611 49.763C88.4449 49.4237 89.94 49.9225 91.4437 49.3686Z" fill="#60B141"/>
<path d="M69.6696 110.26C70.3174 110.785 71.0706 111.208 71.8895 111.336C73.4617 111.579 75.1281 110.576 75.7044 109.068C76.2808 107.56 75.7444 105.701 74.4804 104.721C73.8384 104.222 73.0166 103.909 72.5943 103.207C72.2034 102.56 72.2434 101.711 71.8268 101.081C71.4758 100.554 70.8395 100.272 70.2146 100.243C68.0661 100.148 65.7349 102.297 66.1543 104.53C66.5224 106.504 68.1488 109.033 69.6696 110.26Z" fill="#60B141"/>
<path d="M80.9234 111.791C81.6796 112.359 82.7296 112.589 83.577 112.177C84.4159 111.768 84.8896 110.831 85.0779 109.903C85.1778 109.416 85.2091 108.888 84.9951 108.442C84.6841 107.792 83.9537 107.485 83.2803 107.255C82.3701 106.942 81.3828 106.664 80.4612 106.939C77.7962 107.731 79.511 110.727 80.9234 111.791Z" fill="#60B141"/>
<path d="M89.0612 99.1007C89.4036 99.3588 89.8773 99.4632 90.2625 99.2747C90.642 99.0891 90.856 98.6657 90.9416 98.2481C90.9872 98.0277 91.0015 97.7899 90.9045 97.5869C90.7647 97.294 90.4337 97.1548 90.1284 97.0504C89.7175 96.9083 89.2695 96.7836 88.853 96.9083C87.646 97.265 88.4221 98.6193 89.0612 99.1007Z" fill="#60B141"/>
<path d="M89.3264 88.4113C90.5933 88.6781 92.0571 88.0488 92.545 86.8337C92.9102 85.9231 92.6934 84.8472 92.1741 84.0178C91.6547 83.1884 90.8672 82.5649 90.0512 82.0342C84.9095 78.6876 84.7354 87.4485 89.3264 88.4113Z" fill="#60B141"/>
<path d="M112.073 44.2037C111.976 44.8533 112.324 45.5812 112.935 45.7958C113.391 45.9582 113.914 45.819 114.307 45.5319C114.701 45.2448 114.986 44.8301 115.223 44.4009C116.73 41.701 112.421 41.8489 112.073 44.2037Z" fill="#60B141"/>
<path d="M89.4291 63.5728C89.9684 63.2335 90.2823 62.5085 90.054 61.9082C89.8828 61.4587 89.4491 61.1513 88.9897 61.0324C88.5303 60.9135 88.0424 60.9628 87.5773 61.0527C84.6355 61.6211 87.4774 64.7995 89.4291 63.5728Z" fill="#60B141"/>
<path d="M107.899 69.8339C106.917 70.1935 105.913 70.7039 105.393 71.6232C104.96 72.3888 104.934 73.3139 104.92 74.1955C104.914 74.5957 104.911 75.0162 105.097 75.3671C105.308 75.7673 105.722 76.0051 106.127 76.1936C108.906 77.4783 112.347 77.1477 114.841 75.3613C115.118 75.1641 115.389 74.9437 115.571 74.6537C115.791 74.3057 115.865 73.8823 115.891 73.4676C116.23 68.1867 111.328 68.5724 107.899 69.8339Z" fill="#60B141"/>
<path d="M136.312 103.697C136.626 104.434 137.42 104.872 138.204 104.944C138.989 105.017 139.774 104.779 140.501 104.474C141.545 104.039 142.53 103.462 143.426 102.763C143.857 102.427 144.276 102.05 144.507 101.551C144.744 101.047 144.764 100.467 144.781 99.9069C144.798 99.295 144.807 98.6425 144.487 98.1234C144.179 97.6159 143.617 97.3346 143.075 97.1055C138.792 95.3191 134.212 98.7875 136.312 103.697Z" fill="#60B141"/>
<path d="M125.381 127.181C118.49 130.746 110.689 132.758 102.429 132.758C101.907 132.755 101.387 132.747 100.868 132.729C100.674 132.625 100.486 132.509 100.303 132.378C99.1074 131.514 98.3969 129.704 99.2729 128.507C99.5725 128.095 100.015 127.817 100.446 127.55C102.848 126.05 105.279 124.537 107.956 123.641C108.963 123.301 110.073 123.055 111.071 123.411C111.608 123.603 112.073 123.957 112.604 124.168C114.872 125.076 117.332 123.188 119.766 123.345C121.826 123.478 123.977 125.262 125.381 127.181Z" fill="#60B141"/>
<path opacity="0.1" d="M96.6253 33.2418C81.2259 35.179 66.6396 48.6408 66.6396 61.7923C66.6396 74.9438 79.2656 88.4172 96.9392 84.8879C114.616 81.3586 129.764 81.0396 130.711 61.7923C131.661 42.5421 114.393 31.0059 96.6253 33.2418Z" fill="white"/>
<path opacity="0.2" d="M153.093 81.2658C153.093 101.308 141.828 118.676 125.381 127.181C118.49 130.746 110.689 132.758 102.429 132.758C101.907 132.755 101.387 132.747 100.868 132.729C74.7259 131.848 53.4229 110.794 51.9819 84.0788C60.0825 96.659 79.6022 119.572 109.568 108.627C138.812 97.9437 148.673 83.9164 152.388 72.7166C152.856 75.5412 153.093 78.4006 153.093 81.2658Z" fill="#A9CE72"/>
<path d="M69.2871 69.3582C69.2871 69.3582 71.2959 71.7391 73.082 71.3998C74.8682 71.0605 75.65 71.0605 76.9883 71.2867C78.3265 71.5129 80.4465 69.4713 80.4465 69.4713C80.4465 69.4713 78.6603 69.5844 77.0995 68.6767C75.5359 67.769 74.5315 67.769 73.1933 68.4505C71.8523 69.1291 69.2871 69.3582 69.2871 69.3582Z" fill="#986A44"/>
<path d="M74.6428 68.5636C75.3076 64.5326 71.7952 64.4079 69.6209 61.7573C69.1587 61.1947 68.1629 59.765 68.1714 57.9003C69.0959 58.8399 71.8979 59.8984 72.9708 60.9627C73.8353 61.8211 74.1406 63.5727 74.1977 63.5727C74.2119 63.5727 74.1777 63.0478 74.1977 63.0043C74.4031 62.5867 74.4402 62.056 74.6428 61.6442C76.0609 58.7616 73.6213 56.5605 76.8741 53.2516C76.9939 53.1298 77.4961 52.457 77.6559 52.457C77.673 52.457 77.4334 53.9476 77.4334 54.0462C77.4334 56.8418 78.6603 57.677 77.3221 60.3972C76.9854 61.0816 75.9411 61.8008 75.5359 62.2126C75.319 62.433 75.0965 63.3407 75.3133 63.1203C77.7273 60.6669 80.6205 62.9956 83.3483 62.4388C83.5167 62.404 84.8264 61.3339 84.912 61.418C85.1317 61.6413 83.394 63.8685 83.1258 64.1411C81.2996 65.9971 76.9512 65.3127 76.6544 65.6143C75.8954 66.3857 75.65 66.9251 75.65 68.4505C75.65 68.5955 75.9125 68.8652 75.8726 68.9029C75.6129 69.1639 74.7798 68.6332 74.6428 68.5636Z" fill="#3F7C25"/>
<path d="M114.104 94.0575C114.104 94.0575 116.113 96.4384 117.899 96.0991C119.686 95.7598 120.467 95.7598 121.806 95.986C123.144 96.2122 125.264 94.1706 125.264 94.1706C125.264 94.1706 123.478 94.2837 121.917 93.376C120.353 92.4683 119.349 92.4683 118.011 93.1498C116.672 93.8313 114.104 94.0575 114.104 94.0575Z" fill="#986A44"/>
<path d="M120.596 93.1498C119.931 89.1188 123.444 88.9941 125.618 86.3435C126.08 85.7809 127.076 84.3512 127.067 82.4865C126.143 83.4261 123.341 84.4846 122.268 85.5489C121.403 86.4073 121.098 88.1589 121.041 88.1589C121.027 88.1589 121.061 87.634 121.041 87.5905C120.836 87.1729 120.799 86.6422 120.596 86.2304C119.178 83.3478 121.617 81.1467 118.365 77.8378C118.245 77.716 117.743 77.0432 117.583 77.0432C117.566 77.0432 117.805 78.5338 117.805 78.6324C117.805 81.428 116.578 82.2632 117.917 84.9834C118.253 85.6678 119.298 86.387 119.703 86.7988C119.92 87.0192 120.142 87.9269 119.925 87.7065C117.511 85.2531 114.618 87.5818 111.89 87.025C111.722 86.9902 110.412 85.9201 110.327 86.0042C110.107 86.2275 111.845 88.4547 112.113 88.7273C113.939 90.5833 118.288 89.8989 118.584 90.2005C119.343 90.9719 119.589 91.5113 119.589 93.0367C119.589 93.1817 119.326 93.4514 119.366 93.4891C119.626 93.7501 120.459 93.2194 120.596 93.1498Z" fill="#3F7C25"/>
<path d="M15.4873 135.893H202.361C202.361 135.893 192.111 130.716 182.467 131.534C172.823 132.352 167.396 133.442 161.37 131.807C155.341 130.171 139.667 127.176 125.201 128.539C110.734 129.902 96.8672 132.897 89.634 131.807C82.4008 130.716 74.5627 128.266 63.1094 129.084C51.6562 129.902 48.0381 132.897 41.407 132.079C34.7787 131.262 17.8984 132.352 15.4873 135.893Z" fill="#2EC27E"/>
<path d="M172.364 81.351L185.858 135.891H185.41L185.036 134.378H176.525L176.898 135.891H176.45L162.963 81.3684L163.405 81.3481H171.916L172.364 81.351ZM172.042 81.8643H163.531L165.568 90.1032H174.079L172.042 81.8643ZM174.208 90.6165H165.696L167.734 98.8554H176.245L174.208 90.6165ZM176.373 99.3688H167.862L169.899 107.608H178.411L176.373 99.3688ZM178.539 108.121H170.028L172.065 116.36H180.576L178.539 108.121ZM180.705 116.873H172.193L174.231 125.112H182.742L180.705 116.873ZM182.87 125.625H174.359L176.396 133.864H184.908L182.87 125.625Z" fill="#124C03"/>
<path d="M142.05 81.351L128.557 135.891H129.005L129.379 134.378H137.89L137.516 135.891H137.964L151.452 81.3684L151.01 81.3481H142.498L142.05 81.351ZM142.373 81.8643H150.884L148.847 90.1032H140.336L142.373 81.8643ZM140.207 90.6165H148.719L146.681 98.8554H138.17L140.207 90.6165ZM138.041 99.3688H146.553L144.516 107.608H136.004L138.041 99.3688ZM135.879 108.121H144.39L142.353 116.36H133.841L135.879 108.121ZM133.713 116.873H142.224L140.187 125.112H131.676L133.713 116.873ZM131.547 125.625H140.059L138.021 133.864H129.51L131.547 125.625Z" fill="#124C03"/>
<path d="M172.037 79.524H142.524C141.349 79.524 140.393 80.0983 140.393 80.8059C140.393 81.5135 141.346 82.0876 142.524 82.0876H172.037C173.212 82.0876 174.168 81.5135 174.168 80.8059C174.165 80.0983 173.212 79.524 172.037 79.524Z" fill="#124C03"/>
<path d="M191.264 134.29C191.264 127.29 191.155 125.144 190.981 121.645C190.805 118.146 190.59 118.146 190.414 121.645C190.238 125.144 190.131 127.292 190.131 134.29H190.698H191.264Z" fill="#A9CE72"/>
<path d="M190.697 118.533C191.324 118.533 191.831 119.048 191.831 119.686C191.831 120.323 191.324 120.839 190.697 120.839C190.07 120.839 189.562 120.323 189.562 119.686C189.562 119.048 190.07 118.533 190.697 118.533Z" fill="#60B141"/>
<path d="M191.3 116.476C191.3 119.216 191.027 119.654 190.69 119.654C190.353 119.654 190.079 119.216 190.079 116.476C190.079 113.735 190.353 109.73 190.69 109.73C191.027 109.728 191.3 113.734 191.3 116.476ZM187.687 120.704C190.023 119.334 190.532 119.354 190.7 119.653C190.869 119.951 190.632 120.409 188.296 121.78C185.96 123.15 182.411 124.912 182.242 124.616C182.074 124.319 185.351 122.074 187.687 120.704ZM193.096 121.769C190.76 120.398 190.523 119.938 190.691 119.641C190.86 119.345 191.371 119.323 193.705 120.693C196.04 122.063 199.316 124.306 199.148 124.603C198.981 124.901 195.432 123.141 193.096 121.769Z" fill="#A9CE72"/>
<path d="M190.697 119.253C190.932 119.253 191.123 119.446 191.123 119.686C191.123 119.925 190.932 120.118 190.697 120.118C190.461 120.118 190.271 119.925 190.271 119.686C190.271 119.448 190.461 119.253 190.697 119.253Z" fill="#60B141"/>
<path d="M161.819 48.582C161.819 48.582 162.243 51.6619 162.023 54.2191C161.803 56.7724 161.713 62.2299 161.517 64.1409C161.321 66.0558 161.58 76.592 161.58 76.592C161.58 76.592 160.638 77.4098 159.637 76.6997C158.196 68.5692 157.474 63.7858 157.368 61.7712C157.266 59.7565 157.352 49.6432 157.352 49.6432L161.819 48.582Z" fill="#006600"/>
<path d="M161.972 72.0281L158.243 71.7767L159.115 77.6971L156.602 79.2131C156.602 79.2131 161.976 79.7357 162.785 79.4684C162.227 74.8566 161.972 72.0281 161.972 72.0281Z" fill="#FF5F3A"/>
<path d="M155.797 26.0576C155.797 26.0576 156.151 27.6175 156.422 28.6707C156.692 29.7239 156.92 30.3742 157.481 30.3782C157.98 30.3821 158.6 30.1428 159.424 29.692C160.484 29.1135 160.845 28.5231 160.83 27.8169C160.806 26.8196 160.366 25.1839 159.617 24.4339C158.867 23.6839 157.685 23.8554 156.657 24.402C155.633 24.9485 155.735 25.6786 155.797 26.0576Z" fill="#F4B58E"/>
<path d="M164.794 48.5581C164.794 48.5581 165.458 51.606 165.312 54.1713C165.163 56.7365 165.312 62.1901 165.163 64.117C165.014 66.0399 165.827 76.5481 165.827 76.5481C165.827 76.5481 164.72 77.4298 163.468 76.7875C161.328 68.7687 160.221 64.0372 160.002 62.0305C159.782 60.0238 159.413 49.9225 159.413 49.9225L164.794 48.5581Z" fill="#006600"/>
<path d="M160.633 27.9885L161.944 31.4195L159.295 32.5245C159.295 32.5245 159.491 30.4261 158.902 29.4606C159.711 28.8941 160.633 27.9885 160.633 27.9885Z" fill="#F4B58E"/>
<path d="M160.492 30.6336C162.239 30.5618 162.667 31.5153 163.585 35.1696C164.343 38.1776 167.322 54.694 167.098 65.9362C165.454 67.0732 159.087 68.5653 156.916 67.8432C155.444 60.5624 156.759 54.0078 157.191 48.8095C157.58 44.102 157.089 40.4636 156.017 39.1989C154.263 37.1324 155.986 35.3731 157.442 33.7134C158.482 32.5326 159.279 30.6854 160.492 30.6336Z" fill="#FFC407"/>
<path d="M165.779 71.9762H162.043L163.146 77.8287L160.696 79.5123C160.696 79.5123 166.086 79.6719 166.878 79.3527C166.148 74.7808 165.779 71.9762 165.779 71.9762Z" fill="#FF5F3A"/>
<path d="M148.838 42.7015C148.838 42.7015 144.736 42.542 141.419 44.6245C141.733 47.5926 142.997 52.4039 143.551 53.4451C147.103 53.3653 150.891 51.7616 150.891 51.7616C150.891 51.7616 150.887 45.7495 148.838 42.7015Z" fill="#E5A50A"/>
<path d="M148.285 43.0248C148.285 43.0248 145.761 45.4304 142.051 44.6285C144.261 43.2641 148.285 43.0248 148.285 43.0248Z" fill="#63452C"/>
<path d="M145.6 43.7468C145.6 43.7468 144.733 40.9382 144.654 39.1749C144.576 37.4116 144.022 35.5645 144.022 35.5645L143.547 35.724C143.547 35.724 144.101 37.0884 144.179 38.0499C144.258 39.0113 144.415 40.5353 144.493 41.1776C144.572 41.8199 145.204 44.066 145.204 44.066L145.6 43.7468Z" fill="#4B8720"/>
<path d="M144.536 39.5779C144.575 39.3784 145.207 37.0526 147.496 37.0127C146.942 39.2548 144.536 39.5779 144.536 39.5779Z" fill="#4B8720"/>
<path d="M144.222 37.6909C144.222 37.6909 142.919 35.6044 141.066 35.8876C141.498 37.651 144.222 37.6909 144.222 37.6909Z" fill="#4B8720"/>
<path d="M144.615 34.9261C145.074 34.6549 145.211 33.9567 145.129 33.4421C144.96 32.4128 143.998 33.4501 143.826 33.3623C143.629 33.2625 143.382 32.8875 143.076 33.1229C142.868 33.2825 142.817 33.7173 142.64 33.8051C142.295 33.9806 141.922 33.3703 141.576 33.7253C141.49 33.8131 141.459 34.0325 141.459 34.1681C141.459 35.0977 142.244 35.4089 142.958 35.6522C143.551 35.8477 144.25 35.1735 144.615 34.9261Z" fill="#FFC407"/>
<path d="M144.1 35.9275C144.246 35.5166 144.622 35.3889 144.811 35.006C145.121 34.3756 144.25 34.8584 144.218 34.8464C144.104 34.7905 144.041 34.6429 143.904 34.607C143.641 34.5392 143.641 34.7546 143.508 34.8863C143.382 35.0139 143.088 34.7307 142.915 34.8464C142.727 34.974 142.797 35.0818 142.797 35.2054C142.797 35.2413 142.581 35.3451 142.64 35.5246C142.856 36.1749 143.688 36.0312 144.1 35.9275Z" fill="#4B8720"/>
<path d="M148.709 45.3226C148.709 45.3226 148.41 45.562 147.708 45.578C147.005 45.5939 146.562 45.5221 145.969 45.6897C145.372 45.8572 145.129 45.8453 144.89 45.7854C144.65 45.7256 144.595 45.941 144.756 46.1046C144.917 46.2721 145.211 46.4277 145.494 46.2881C145.777 46.1524 146.134 46.0766 146.016 46.2961C145.898 46.5115 145.258 46.7668 144.909 47.0181C144.56 47.2735 144.101 47.6565 143.896 48.0674C143.692 48.4783 143.959 48.8413 144.261 49.0927C144.564 49.344 145.353 49.2483 145.945 49.1206C146.538 48.9929 147.837 47.9198 148.195 47.6485C148.552 47.3772 149.356 46.5554 149.356 46.5554L148.709 45.3226Z" fill="#F4B58E"/>
<path d="M160.728 31.0085C163.04 31.8543 161.964 35.2453 161.018 37.0885C160.072 38.9316 157.387 41.8199 156.598 42.542C155.809 43.2641 150.601 46.3121 149.023 46.9544C148.548 46.715 147.998 45.6698 147.998 45.6698C147.998 45.6698 152.1 41.421 154.075 40.1364C156.049 38.8518 157.678 31.3437 160.728 31.0085Z" fill="#FFC407"/>
<path d="M161.941 32.1974C162.459 33.6017 161.705 35.748 161.022 37.0845C160.076 38.9276 157.391 41.816 156.602 42.5381C156.159 42.945 154.322 44.078 152.516 45.1152C153.686 44.1937 155.916 42.3984 157.548 40.8545C159.837 38.6882 160.783 36.522 161.415 35.002C161.764 34.1642 161.894 33.0471 161.941 32.1974Z" fill="#E5A50A"/>
<path d="M160.728 31.0085C160.837 31.0484 160.936 31.0963 161.03 31.1442C160.563 31.1921 159.978 31.4075 159.365 32.0338C157.945 33.478 155.735 38.2893 155.735 38.2893C155.735 38.2893 155.342 39.9728 154.471 41.0939C154.639 40.5433 154.706 39.9688 154.726 39.4821C156.429 37.26 158.019 31.3078 160.728 31.0085Z" fill="#F6D32D"/>
<path d="M158.569 26.656C158.569 26.656 159.126 26.0895 159.405 26.7119C159.683 27.3342 159.181 27.7332 159.515 28.0723C159.848 28.4114 160.575 29.0377 160.743 28.4114C160.912 27.789 160.853 26.1414 160.465 25.0642C160.076 23.9871 159.35 23.4764 158.679 23.4764C158.007 23.4764 157.285 23.7038 156.559 23.9871C155.833 24.2703 155.275 24.8368 155.444 25.5749C155.613 26.3129 156.17 26.4805 156.618 26.652C157.061 26.8276 158.011 26.9951 158.569 26.656Z" fill="#63452C"/>
<path d="M159.33 23.8953C159.33 23.8953 159.291 20.8873 162.011 21.1706C164.731 21.4538 164.853 24.8608 164.692 27.3861C164.535 29.9114 165.756 30.7133 165.756 30.7133C165.756 30.7133 165.045 31.3955 163.864 30.4739C162.678 29.5524 162.325 27.7492 161.972 25.9818C161.619 24.2185 160.947 23.3767 160.394 23.656C159.841 23.9352 159.683 24.3382 159.683 24.3382L159.33 23.8953Z" fill="#63452C"/>
<path d="M23.1752 103.93L22.6243 107.603L34.9613 122.643L36.3008 110.169L48.8162 110.552L48.9113 112.578C49.4978 112.259 50.2944 111.905 51.2455 111.683C51.7568 111.567 52.3116 111.49 52.9021 111.482C54.6696 111.454 56.7383 112.018 58.7437 113.858C61.5178 116.404 61.5772 120.649 59.6552 124.15C57.8876 127.368 54.4199 130.042 49.7633 130.437L49.9417 134.191L33.7764 133.696L34.1647 130.063C31.2202 125.898 21.7881 110.56 20.9955 109.271L17.0205 109.049L23.1752 103.93ZM53.3024 112.638C52.6603 112.618 52.054 112.694 51.5031 112.823C50.3538 113.089 49.4661 113.572 48.9747 113.883L49.7079 129.257C53.9682 128.882 57.0673 126.458 58.6485 123.574C60.3804 120.424 60.2813 116.839 57.9708 114.72C56.3183 113.202 54.7172 112.682 53.3024 112.638Z" fill="#006600"/>
<mask id="mask0_698_214" style="mask-type:luminance" maskUnits="userSpaceOnUse" x="17" y="103" width="44" height="32">
<path d="M23.1752 103.93L22.6243 107.603L34.9613 122.643L36.3008 110.169L48.8162 110.552L48.9113 112.578C49.4978 112.259 50.2944 111.905 51.2455 111.683C51.7568 111.567 52.3116 111.49 52.9021 111.482C54.6696 111.454 56.7383 112.018 58.7437 113.858C61.5178 116.404 61.5772 120.649 59.6552 124.15C57.8876 127.368 54.4199 130.042 49.7633 130.437L49.9417 134.191L33.7764 133.696L34.1647 130.063C31.2202 125.898 21.7881 110.56 20.9955 109.271L17.0205 109.049L23.1752 103.93ZM53.3024 112.638C52.6603 112.618 52.054 112.694 51.5031 112.823C50.3538 113.089 49.4661 113.572 48.9747 113.883L49.7079 129.257C53.9682 128.882 57.0673 126.458 58.6485 123.574C60.3804 120.424 60.2813 116.839 57.9708 114.72C56.3183 113.202 54.7172 112.682 53.3024 112.638Z" fill="white"/>
</mask>
<g mask="url(#mask0_698_214)">
<path d="M15.6372 105.807L21.237 108.332C21.237 108.332 31.2358 125.076 32.9677 125.511C34.6995 125.946 34.9611 122.639 34.9611 122.639L34.1645 130.058L13.9014 110.028L15.6372 105.807Z" fill="#054205"/>
</g>
<mask id="mask1_698_214" style="mask-type:luminance" maskUnits="userSpaceOnUse" x="17" y="103" width="44" height="32">
<path d="M23.1752 103.93L22.6243 107.603L34.9613 122.643L36.3008 110.169L48.8162 110.552L48.9113 112.578C49.4978 112.259 50.2944 111.905 51.2455 111.683C51.7568 111.567 52.3116 111.49 52.9021 111.482C54.6696 111.454 56.7383 112.018 58.7437 113.858C61.5178 116.404 61.5772 120.649 59.6552 124.15C57.8876 127.368 54.4199 130.042 49.7633 130.437L49.9417 134.191L33.7764 133.696L34.1647 130.063C31.2202 125.898 21.7881 110.56 20.9955 109.271L17.0205 109.049L23.1752 103.93ZM53.3024 112.638C52.6603 112.618 52.054 112.694 51.5031 112.823C50.3538 113.089 49.4661 113.572 48.9747 113.883L49.7079 129.257C53.9682 128.882 57.0673 126.458 58.6485 123.574C60.3804 120.424 60.2813 116.839 57.9708 114.72C56.3183 113.202 54.7172 112.682 53.3024 112.638Z" fill="white"/>
</mask>
<g mask="url(#mask1_698_214)">
<path d="M48.9111 112.574L49.7632 130.433L57.2177 130.357L51.3405 108.622L48.9111 112.574Z" fill="#054205"/>
</g>
<path d="M40.9582 119.389C41.4595 119.389 41.8755 119.932 42.2634 120.483C42.4202 120.707 42.6119 121.013 42.7787 121.298L42.2332 121.532L44.0544 121.67L45.147 120.282L44.4657 120.575C43.9411 119.77 43.3607 119.388 42.9929 119.388H40.9582V119.389ZM39.4505 126.043C39.1999 125.601 39.4544 124.964 39.7306 124.346C39.8424 124.096 40.0077 123.775 40.1675 123.485L40.6393 123.848L39.847 122.176L38.1182 121.909L38.7079 122.362C38.2835 123.226 38.2493 123.928 38.4332 124.252L39.4505 126.043ZM45.8733 124.043C45.6227 124.484 44.9522 124.578 44.288 124.644C44.0187 124.67 43.6625 124.685 43.3358 124.69L43.4096 124.093L42.3806 125.626L43.0169 127.282L43.1085 126.536C44.0575 126.476 44.6721 126.156 44.856 125.832L45.8733 124.043Z" fill="#A9CE72"/>
<path d="M39.0469 121.301L40.7463 122.042C40.7463 122.042 41.312 121.018 41.6868 120.484C42.0748 119.932 42.4899 119.39 42.992 119.39H40.9581C40.4902 119.389 39.7352 120.039 39.0469 121.301ZM42.0352 126.768L41.8164 124.902C41.8164 124.902 40.6609 124.917 40.0184 124.853C39.3542 124.788 38.6837 124.693 38.4331 124.252L39.4504 126.043C39.684 126.454 40.6151 126.794 42.0352 126.768ZM45.1996 121.405L43.7191 122.53C43.7191 122.53 44.3088 123.54 44.5757 124.137C44.852 124.754 45.1073 125.391 44.8559 125.833L45.8732 124.043C46.1075 123.631 45.9314 122.641 45.1996 121.405Z" fill="#A9CE72"/>
<path d="M75.9004 70.4714C76.1359 69.7497 80.7152 59.1636 80.7152 59.1636C80.7152 59.1636 81.2659 60.8463 80.9507 62.0504C80.6355 63.2544 78.9001 66.8629 78.9001 66.8629C78.9001 66.8629 78.3495 66.7009 78.0307 67.3453C77.7155 67.986 76.2953 70.4714 76.2953 70.4714" fill="#DEDDDA"/>
<path d="M78.6033 70.4714C78.3678 69.7497 73.7884 59.1636 73.7884 59.1636C73.7884 59.1636 73.2378 60.8463 73.553 62.0504C73.8682 63.2544 75.6035 66.8629 75.6035 66.8629C75.6035 66.8629 76.1542 66.7009 76.473 67.3453C76.7882 67.986 78.2084 70.4714 78.2084 70.4714" fill="white"/>
<path d="M88.7362 83.521L85.3742 82.6962C85.3742 82.6962 82.7404 76.4991 81.9542 73.4761C81.1572 72.11 79.6247 70.4972 78.9617 70.7366C77.3314 71.3294 78.056 73.2515 78.7407 73.627C79.4254 73.9989 80.8999 73.4798 81.0376 74.717C81.1753 75.9578 81.8709 83.2743 82.2621 84.4599C82.6498 85.6456 87.8921 87.1 87.8921 87.1L88.7362 83.521Z" fill="#F4B58E"/>
<path d="M96.9781 130.354C96.9781 130.354 97.0904 131.543 97.8694 132.111C98.6519 132.678 101.442 133.528 101.775 134.209C102.108 134.891 100.659 134.776 99.6554 134.832C98.6519 134.887 97.4781 134.776 97.0325 134.832C96.5869 134.887 95.3587 135.17 95.1341 134.548C94.9095 133.926 95.4674 133.075 95.6377 132.335C95.8079 131.595 95.5833 130.579 95.5833 130.579L96.9781 130.354Z" fill="#F4B58E"/>
<path d="M98.5795 132.501C99.7062 133.027 101.51 133.675 101.775 134.213C102.108 134.894 100.659 134.78 99.6555 134.835C98.652 134.891 97.4782 134.78 97.0325 134.835C96.5869 134.891 95.3588 135.174 95.1342 134.552C94.9675 134.084 95.2392 133.491 95.453 132.913C95.8008 132.991 96.2283 133.072 96.6956 133.134C97.5216 133.248 98.21 132.806 98.5795 132.501Z" fill="#1B404E"/>
<path d="M75.9005 69.5104L73.4551 75.284L74.4007 75.7663L76.9258 69.8307L75.9005 69.5104Z" fill="#FF5F3A"/>
<path d="M80.8058 83.8818L77.4437 83.057C77.4437 83.057 76.3822 77.6147 76.9293 74.5328C76.7735 72.9532 75.5816 70.6997 74.8787 70.685C72.839 70.6444 73.0129 72.5813 73.4803 73.2109C73.9477 73.8442 75.4983 73.9989 75.1106 75.1845C74.723 76.3702 73.944 83.6314 74.3353 84.817C74.7229 86.0027 79.9653 87.4571 79.9653 87.4571L80.8058 83.8818Z" fill="#F4B58E"/>
<path d="M93.8518 86.3525C93.8518 86.3525 94.0112 85.2699 92.0368 84.3862C90.0623 83.5025 86.4358 82.8618 86.4358 82.8618C86.4358 82.8618 84.9758 83.2227 85.2113 85.2663C88.7255 87.0337 93.8518 86.3525 93.8518 86.3525Z" fill="#E5A50A"/>
<path d="M90.8591 84.8981C90.8591 84.8981 90.1201 85.1742 89.8483 84.8207C89.5766 84.4673 89.5368 82.9244 89.5368 82.9244L87.1674 82.9649C87.1674 82.9649 87.0515 84.7397 86.7798 84.8981C86.508 85.0564 85.5371 85.0564 85.5371 85.0564C85.5371 85.0564 85.9646 86.9895 86.8957 87.1479C87.8268 87.3062 89.3049 87.2657 90.0041 86.8312C90.7033 86.3967 90.8591 84.8981 90.8591 84.8981Z" fill="#F4B58E"/>
<path d="M81.8562 130.354C81.8562 130.354 81.7439 131.543 80.965 132.111C80.1824 132.678 77.3928 133.528 77.0595 134.209C76.7262 134.891 78.1753 134.776 79.1789 134.832C80.1824 134.887 81.3562 134.776 81.8018 134.832C82.2475 134.887 83.4756 135.17 83.7002 134.548C83.9249 133.926 83.3669 133.075 83.1967 132.335C83.0264 131.595 83.251 130.579 83.251 130.579L81.8562 130.354Z" fill="#F4B58E"/>
<path d="M95.2104 101.32C95.2104 101.32 95.9857 108.188 96.1415 111.741C96.2972 115.294 97.308 130.708 97.308 130.708C97.308 130.708 96.2212 131.418 95.1343 130.708C94.3119 127.931 92.8772 119.757 92.4678 117.864C91.8121 114.838 91.131 112.223 90.8194 111.354C90.1057 109.359 89.2543 109.756 88.6348 111.524C88.066 113.144 86.5009 118.531 86.0372 120.607C85.4394 123.27 84.6207 127.567 83.4034 131.197C82.8201 131.197 81.9868 131.179 81.5811 130.593C81.8999 125.954 82.3709 119.378 82.5303 118.24C82.9252 115.427 83.6389 105.827 83.9504 104.483C84.262 103.143 84.4939 101.641 84.4939 101.641L95.2104 101.32Z" fill="#FF5F3A"/>
<path d="M84.2332 102.079L83.1427 90.7379C82.9615 88.8453 82.3782 88.3703 81.4073 88.0537C80.4364 87.737 78.3387 87.1073 78.3387 87.1073C77.1649 87.1442 77.5888 82.8839 78.4655 83.1601C78.4655 83.1601 81.6609 83.8744 82.6137 84.0328C83.5665 84.1911 85.2512 84.6219 86.1243 84.7802C86.3852 85.6087 86.8453 85.3804 88.577 85.4062C90.3305 85.4356 90.4899 85.4909 90.7978 84.8981C93.736 84.6919 94.4062 84.9643 94.8482 92.9509C94.8301 94.0555 95.4714 100.028 95.5112 101.608C95.5547 103.184 84.2332 102.079 84.2332 102.079Z" fill="#344804"/>
<path d="M90.5478 79.8057C90.5478 79.8057 90.6637 81.3853 90.276 82.4495C89.8884 83.5136 88.9573 83.7898 88.374 83.8708C87.7907 83.9481 86.8995 83.6719 86.6278 83.1196C86.3561 82.5673 86.0844 80.7115 86.1604 79.489C86.2365 78.2666 87.1712 77.5927 88.4139 77.5154C89.6565 77.4381 90.5115 78.3844 90.5478 79.8057Z" fill="#F4B58E"/>
<path d="M91.9315 80.3616C91.6671 81.3374 91.2178 82.1511 90.4172 83.2079C89.5658 84.331 87.8232 83.4178 87.1167 82.5341C86.8233 82.1659 86.874 81.8271 86.7291 81.3889C86.5298 80.7814 86.7544 80.0486 86.5552 79.3417C86.345 78.5979 86.1748 78.7231 86.1059 78.145C86.0806 77.9388 85.9972 76.8746 86.3088 76.2634C86.595 75.6963 86.9827 75.2692 87.8558 74.9967C88.421 74.8163 93.4713 74.7095 91.9315 80.3616Z" fill="#63452C"/>
<path d="M80.2549 132.501C79.1282 133.027 77.324 133.675 77.0595 134.213C76.7262 134.894 78.1753 134.78 79.1789 134.835C80.1824 134.891 81.3562 134.78 81.8018 134.835C82.2475 134.891 83.4756 135.174 83.7002 134.552C83.8669 134.084 83.5952 133.491 83.3814 132.913C83.0336 132.991 82.6061 133.072 82.1388 133.134C81.3128 133.248 80.6244 132.806 80.2549 132.501Z" fill="#1B404E"/>
<path d="M78.6029 69.5104L81.0484 75.284L80.1028 75.7663L77.5776 69.8307L78.6029 69.5104Z" fill="#FF5F3A"/>
<path d="M121.009 60.8294C121.009 60.8294 121.64 59.0662 123.298 58.4224C124.955 57.7815 125.666 59.1445 126.297 59.304C126.927 59.4635 127.795 58.9038 128.822 59.8666C129.846 60.8294 125.9 62.9145 121.009 60.8294Z" fill="#986A44"/>
<path d="M127.241 43.6672C125.703 47.0167 126.371 48.4 125.52 50.2444C124.67 52.0888 124.45 53.852 124.45 53.852C124.45 53.852 123.706 51.7031 123.135 50.7229C122.319 49.3193 121.055 48.98 119.189 48.3971C119.052 52.4861 123.434 53.5301 124.165 55.215C124.898 56.8999 124.019 59.5447 124.019 59.5447C124.972 60.2059 125.68 59.5737 125.674 59.6259C125.674 59.6259 125.272 57.5408 125.158 56.259C125.155 56.2242 125.152 56.1923 125.149 56.1575C125.771 56.1082 127.204 55.9545 128.342 55.4963C129.84 54.896 131.184 56.2967 131.184 56.2967C131.184 56.2967 131.027 53.9709 128.342 53.6896C126.462 53.4924 125.515 54.4175 125.115 54.9888C125.144 54.1826 125.312 53.388 125.757 52.4861C126.433 51.1231 126.981 51.2594 127.96 49.8587C128.425 49.2004 129.515 46.4715 127.241 43.6672Z" fill="#3F7C25"/>
<path d="M80.5262 27.2116C80.2295 26.5881 80.4606 25.8776 80.3664 25.1613C79.8928 21.4812 75.8639 19.5498 73.4328 22.8442C70.0887 15.8378 63.4775 19.2859 63.8684 26.0806C57.7766 23.0385 50.8572 32.2547 60.3132 32.3678C61.5915 37.147 64.9727 34.3282 67.2639 33.1972C70.0659 38.2693 76.4516 36.8889 78.8171 32.2199C81.8758 35.5839 90.1534 29.1111 84.3725 27.0753C83.2112 26.6606 81.6761 27.2261 80.5262 27.2116Z" fill="#E8F4D3"/>
<path d="M85.8247 27.9221C84.0242 31.5413 81.0824 31.5384 78.7769 29.4562C78.6485 31.5442 75.4357 34.2876 71.8405 34.2876C68.2424 34.2876 67.3436 30.1087 67.3436 30.1087C67.3436 30.1087 65.2892 32.3272 63.3604 32.7187C61.4344 33.1102 60.9208 31.8052 63.874 29.8448C60.2987 31.1875 57.4825 30.0449 55.8104 28.9313C55.2398 30.6249 56.2984 32.3127 60.313 32.362C61.5913 37.1412 64.9725 34.3224 67.2637 33.1914C70.0657 38.2635 76.4515 36.8831 78.8169 32.2141C81.5275 35.1982 88.3242 30.4596 85.8247 27.9221Z" fill="#D7E8B1"/>
<path d="M66.2108 42.8136C64.5445 45.1684 63.3461 49.3241 65.9369 49.1617C68.8644 48.9819 66.2108 42.8136 66.2108 42.8136Z" fill="#E8F4D3"/>
<path d="M79.9154 39.1132C78.2491 41.468 77.0507 45.6237 79.6415 45.4613C82.569 45.2786 79.9154 39.1132 79.9154 39.1132Z" fill="#E8F4D3"/>
<path d="M71.5497 37.7705C69.8833 40.1253 68.6849 44.281 71.2758 44.1186C74.2033 43.9388 71.5497 37.7705 71.5497 37.7705Z" fill="#E8F4D3"/>
<path d="M73.4301 47.3839C72.4942 48.7063 71.8208 51.0408 73.276 50.9509C74.9224 50.8494 73.4301 47.3839 73.4301 47.3839Z" fill="#E8F4D3"/>
<path d="M84.8891 33.8787C83.9532 35.2011 83.2798 37.5356 84.735 37.4457C86.3814 37.3442 84.8891 33.8787 84.8891 33.8787Z" fill="#E8F4D3"/>
<path d="M60.8784 37.3268C59.9425 38.6492 59.2691 40.9837 60.7243 40.8938C62.3706 40.7923 60.8784 37.3268 60.8784 37.3268Z" fill="#E8F4D3"/>
</g>
<defs>
<clipPath id="clip0_698_214">
<rect width="214" height="145" fill="white" transform="translate(0.333496 0.781982)"/>
</clipPath>
</defs>
</svg>
