<svg width="214" height="146" viewBox="0 0 214 146" fill="none" xmlns="http://www.w3.org/2000/svg">
<g clip-path="url(#clip0_698_361)">
<path d="M214 0.781982H0V143.842H214V0.781982Z" fill="white"/>
<path d="M177.977 135.001H30.1741C21.5627 117.513 17.3626 97.7253 16.6407 78.2348C16.3326 69.8915 17.0687 60.7671 22.6813 54.6012C27.2751 49.5512 34.2116 47.5112 40.0581 43.9948C48.6523 38.8217 54.7898 30.5071 61.4552 23.0021C68.1234 15.4972 76.1556 8.30699 86.0595 6.7505C98.48 4.79916 110.367 12.1381 120.183 20.015C129.995 27.8919 139.736 36.9677 152.054 39.4769C158.252 40.7387 164.729 40.2266 170.869 41.7401C182.399 44.5784 191.379 54.5211 195.08 65.8315C198.78 77.1418 197.753 89.5823 194.349 100.987C190.945 112.386 183.598 124.515 177.977 135.001Z" fill="#E6F7ED"/>
<path d="M161.661 36.8332C165.131 37.0621 168.729 36.8046 171.85 35.2681C174.972 33.7345 177.531 30.7245 177.794 27.251C178.111 23.0851 175.197 19.3484 171.939 16.7447C164.189 10.5588 153.461 8.32417 143.896 10.9021C136.715 12.8363 131.185 20.4871 137.528 26.5643C143.879 32.6444 152.973 36.2609 161.661 36.8332Z" fill="#E6F7ED"/>
<path d="M41.2134 37.1279C38.7738 38.4069 35.8149 39.1422 33.2754 38.0721C29.9684 36.6787 28.4676 32.5357 29.1438 29.0021C29.8201 25.4714 32.1969 22.5043 34.8134 20.0466C38.848 16.2583 51.8335 9.67184 54.0591 18.9421C55.6484 25.5658 46.318 34.4498 41.2134 37.1279Z" fill="#E6F7ED"/>
<mask id="mask0_698_361" style="mask-type:luminance" maskUnits="userSpaceOnUse" x="65" y="102" width="84" height="33">
<path d="M65.6635 134.999H148.339V102.31H65.6635V134.999Z" fill="white"/>
</mask>
<g mask="url(#mask0_698_361)">
<path d="M135.779 137.61C133.602 138.849 131.373 139.742 129.287 140.329C129.028 140.4 128.768 140.472 128.514 140.54C128.257 140.603 128.001 140.658 127.75 140.712C127.244 140.815 126.757 140.918 126.277 140.989C125.316 141.121 124.42 141.218 123.581 141.215C120.237 141.256 118.102 140.32 117.828 138.947C117.546 137.536 119.073 135.957 121.464 134.257C122.069 133.845 122.716 133.384 123.424 132.952C123.775 132.732 124.134 132.495 124.508 132.271C124.696 132.16 124.885 132.048 125.076 131.934C125.267 131.816 125.461 131.699 125.655 131.579C127.224 130.646 128.945 129.673 130.743 128.649C132.546 127.628 134.107 126.758 135.511 126.083C136.897 125.387 138.127 124.898 139.203 124.592C139.739 124.437 140.247 124.34 140.718 124.291C141.183 124.234 141.614 124.234 142.013 124.283C142.809 124.386 143.469 124.698 143.956 125.21C144.444 125.725 144.718 126.392 144.727 127.221C144.73 127.636 144.67 128.091 144.536 128.586C144.396 129.073 144.176 129.593 143.882 130.154C143.292 131.27 142.35 132.495 141.026 133.785C139.688 135.05 137.959 136.377 135.779 137.61Z" fill="#547374"/>
<path d="M143.714 125.433C140.533 128.011 136.184 131.098 131.47 133.533C129.119 134.758 126.697 135.839 124.363 136.741C122.032 137.645 119.792 138.363 117.832 138.947C119.86 138.689 122.191 138.206 124.611 137.45C127.031 136.698 129.539 135.67 131.933 134.423C136.738 131.942 140.995 128.497 143.714 125.433Z" fill="#6D9B7C"/>
<path d="M122.907 130.635C123.909 130.947 125.159 131.113 126.522 131.004C127.193 130.941 127.895 130.812 128.608 130.62C129.327 130.432 130.015 130.143 130.717 129.811C131.424 129.482 132.072 129.055 132.708 128.598C133.35 128.145 133.924 127.619 134.452 127.07C134.714 126.795 134.974 126.517 135.205 126.228C135.431 125.937 135.645 125.642 135.841 125.347C136.241 124.761 136.58 124.171 136.82 123.59C136.592 123.791 136.355 123.997 136.115 124.208C135.867 124.412 135.613 124.618 135.353 124.826C134.828 125.239 134.318 125.676 133.733 126.068C133.159 126.466 132.583 126.867 131.981 127.236C131.367 127.596 130.748 127.939 130.129 128.26C128.856 128.872 127.598 129.393 126.354 129.765C125.139 130.165 123.932 130.397 122.907 130.635Z" fill="#D8E29F"/>
<path d="M120.607 132.615C121.412 133.075 122.465 133.467 123.629 133.599C124.214 133.67 124.836 133.691 125.478 133.653C126.12 133.616 126.756 133.493 127.41 133.327C127.735 133.241 128.06 133.141 128.383 133.03C128.699 132.909 129.008 132.775 129.313 132.629C129.918 132.331 130.531 132.005 131.056 131.608C131.59 131.216 132.086 130.792 132.529 130.357C132.954 129.908 133.325 129.445 133.639 128.992C133.179 129.256 132.697 129.533 132.192 129.822C131.687 130.1 131.145 130.357 130.603 130.615C130.329 130.743 130.055 130.867 129.778 130.987C129.498 131.107 129.205 131.21 128.919 131.319C128.34 131.527 127.761 131.719 127.182 131.888C126.585 132.04 125.997 132.168 125.418 132.277C125.13 132.331 124.845 132.38 124.562 132.42C124.274 132.454 123.989 132.486 123.709 132.512C123.15 132.563 122.61 132.595 122.097 132.618C121.58 132.632 121.073 132.618 120.607 132.615Z" fill="#D8E29F"/>
<path d="M118.465 134.426C118.987 134.849 119.672 135.236 120.482 135.496C120.887 135.628 121.321 135.728 121.775 135.791C122.22 135.842 122.685 135.859 123.156 135.834C123.627 135.808 124.106 135.745 124.577 135.642C125.036 135.527 125.487 135.376 125.915 135.196C126.788 134.846 127.524 134.337 128.098 133.816C126.674 134.251 124.916 134.672 123.193 134.769C122.32 134.812 121.481 134.801 120.679 134.729C119.872 134.655 119.124 134.537 118.465 134.426Z" fill="#D8E29F"/>
<path d="M125.358 128.143C126.36 128.234 127.473 128.1 128.691 127.771C129.299 127.605 129.889 127.362 130.5 127.081C130.803 126.938 131.111 126.786 131.41 126.615C131.701 126.44 131.992 126.254 132.278 126.057C132.848 125.662 133.419 125.227 133.913 124.738C134.412 124.249 134.911 123.748 135.317 123.201C135.727 122.658 136.101 122.105 136.421 121.553C136.718 120.992 136.971 120.437 137.168 119.908C135.556 121.413 133.562 123.193 131.453 124.655C129.362 126.146 127.11 127.25 125.358 128.143Z" fill="#D8E29F"/>
<path d="M127.969 125.098C129.636 124.892 131.699 123.871 133.353 122.217C135.026 120.586 136.124 118.349 136.458 116.546C135.268 117.934 133.924 119.662 132.383 121.164L131.821 121.731C131.63 121.917 131.43 122.091 131.236 122.269C130.851 122.618 130.469 122.964 130.098 123.302C129.715 123.625 129.342 123.937 128.985 124.24C128.811 124.392 128.637 124.54 128.471 124.686C128.3 124.827 128.132 124.967 127.969 125.098Z" fill="#D8E29F"/>
<path d="M129.818 121.702C130.178 121.588 130.56 121.433 130.937 121.23C131.308 121.021 131.684 120.772 132.058 120.483C132.826 119.917 133.496 119.156 134.101 118.312C134.395 117.885 134.64 117.43 134.869 116.97C134.98 116.738 135.086 116.506 135.183 116.274C135.271 116.04 135.345 115.802 135.417 115.565C135.556 115.093 135.662 114.629 135.733 114.186C135.79 113.736 135.802 113.304 135.788 112.907C135.588 113.253 135.388 113.619 135.183 113.997C134.963 114.372 134.738 114.758 134.504 115.153C134.067 115.951 133.522 116.741 133.017 117.528C131.936 119.087 130.769 120.52 129.818 121.702Z" fill="#D8E29F"/>
<path d="M122.876 130.603C122.548 129.573 122.328 128.369 122.225 127.11C122.163 126.472 122.131 125.822 122.137 125.184C122.145 124.546 122.143 123.882 122.205 123.261C122.274 122.643 122.328 122.008 122.439 121.422C122.556 120.841 122.67 120.263 122.825 119.731C122.899 119.465 122.993 119.21 123.078 118.964C123.161 118.712 123.25 118.469 123.35 118.24C123.549 117.782 123.778 117.367 123.994 116.987C124.006 117.216 124.02 117.456 124.026 117.699C124.023 117.942 124.02 118.189 124.017 118.443C124.003 118.95 124.017 119.502 123.977 120.045C123.949 120.603 123.92 121.176 123.889 121.762C123.84 122.34 123.798 122.938 123.758 123.55C123.646 124.746 123.558 126.002 123.401 127.19C123.273 128.403 123.076 129.536 122.876 130.603Z" fill="#D8E29F"/>
<path d="M120.704 132.729C120.371 131.851 120.151 130.812 120.011 129.676C119.945 129.113 119.911 128.537 119.911 127.968C119.908 127.396 119.914 126.804 119.968 126.246C119.994 125.965 120.028 125.688 120.071 125.419C120.108 125.144 120.145 124.869 120.197 124.606C120.291 124.071 120.442 123.593 120.579 123.11C120.722 122.635 120.898 122.2 121.098 121.811C121.281 121.407 121.486 121.044 121.715 120.735C121.7 121.147 121.683 121.579 121.666 122.028C121.64 122.48 121.592 122.941 121.56 123.433C121.543 123.679 121.526 123.928 121.509 124.183C121.486 124.432 121.463 124.686 121.441 124.941C121.395 125.453 121.352 125.982 121.318 126.523C121.267 127.047 121.221 127.585 121.181 128.123C121.161 128.394 121.141 128.663 121.121 128.935C121.095 129.198 121.07 129.465 121.044 129.725C120.996 130.254 120.944 130.778 120.898 131.281C120.844 131.788 120.77 132.263 120.704 132.729Z" fill="#D8E29F"/>
<path d="M118.462 134.423C118.208 133.794 118.025 133.021 117.94 132.206C117.897 131.796 117.88 131.379 117.885 130.958C117.882 130.529 117.905 130.097 117.951 129.679C117.999 129.261 118.074 128.855 118.168 128.472C118.253 128.074 118.359 127.696 118.487 127.35C118.753 126.666 119.064 126.054 119.42 125.602C119.312 126.824 119.081 128.314 118.918 129.888C118.821 130.661 118.761 131.47 118.69 132.24C118.61 133.01 118.533 133.753 118.462 134.423Z" fill="#D8E29F"/>
<path d="M125.133 127.951C124.911 127.01 124.719 125.874 124.668 124.732C124.64 124.16 124.605 123.553 124.62 122.967C124.622 122.672 124.637 122.38 124.654 122.088C124.662 121.791 124.677 121.496 124.699 121.204C124.745 120.621 124.831 120.063 124.902 119.502C124.976 118.944 125.113 118.426 125.222 117.911C125.336 117.399 125.487 116.924 125.655 116.48C125.804 116.028 125.978 115.613 126.177 115.244C126.451 116.978 126.423 119.17 126.255 121.45C126.089 123.731 125.698 126.057 125.133 127.951Z" fill="#D8E29F"/>
<path d="M127.35 124.669C126.976 123.053 126.893 120.927 127.153 118.961C127.416 116.984 127.946 115.124 128.737 113.837C128.862 115.347 128.797 117.27 128.531 119.196L128.44 119.925C128.406 120.169 128.36 120.406 128.32 120.646C128.234 121.13 128.146 121.608 128.063 122.074C127.955 122.535 127.844 122.987 127.729 123.425C127.669 123.645 127.61 123.859 127.553 124.068C127.484 124.274 127.416 124.475 127.35 124.669Z" fill="#D8E29F"/>
<path d="M129.55 121.553C129.459 121.187 129.399 120.798 129.348 120.383C129.29 119.965 129.259 119.53 129.25 119.087C129.253 118.209 129.273 117.264 129.447 116.369C129.519 115.917 129.599 115.465 129.718 115.035C129.775 114.821 129.841 114.609 129.912 114.4C129.975 114.191 130.038 113.985 130.112 113.785C130.255 113.385 130.423 113.007 130.609 112.655C130.78 112.3 130.962 111.971 131.165 111.676C131.176 112.031 131.179 112.409 131.174 112.804C131.151 113.193 131.119 113.599 131.085 114.017C131.037 114.861 130.871 115.719 130.76 116.609C130.452 118.357 130.095 120.148 129.55 121.553Z" fill="#D8E29F"/>
<path d="M134.101 109.405C133.442 110.749 132.869 112.521 132.261 114.283C131.995 115.176 131.676 116.051 131.456 116.912C131.196 117.757 131 118.575 130.857 119.304C131.339 118.738 131.799 118.02 132.238 117.233C132.637 116.426 133.057 115.556 133.331 114.638C133.956 112.821 134.181 110.884 134.101 109.405Z" fill="#D8E29F"/>
<path d="M132.024 116.712C130.474 119.808 128.18 123.668 125.361 127.13C123.952 128.858 122.431 130.492 120.916 131.957C119.401 133.424 117.866 134.672 116.527 135.771C118.045 134.949 119.754 133.885 121.409 132.517C123.061 131.153 124.688 129.53 126.132 127.759C129.025 124.211 131.096 120.048 132.024 116.712Z" fill="#B0C98F"/>
<path d="M82.564 125.253C86.6956 127.302 89.977 130 91.9115 132.415C93.8604 134.835 94.4995 136.927 93.6749 137.974C92.8389 139.041 90.7445 138.912 88.0139 138.1C85.2775 137.279 81.8821 135.799 78.2412 133.994C74.6004 132.194 72.0324 130.649 70.4488 129.153C70.0521 128.784 69.7212 128.412 69.4501 128.045C69.1762 127.685 68.9679 127.327 68.8195 126.973C68.5228 126.266 68.4771 125.576 68.674 124.932C68.8709 124.289 69.296 123.751 69.9665 123.353C70.3032 123.156 70.6999 122.99 71.1621 122.867C71.6215 122.749 72.1408 122.675 72.7286 122.644C75.0597 122.529 78.4295 123.207 82.564 125.253Z" fill="#547374"/>
<path d="M68.9766 125.027C72.5803 126.469 77.2255 128.452 81.6853 130.809C86.1593 133.141 90.4308 135.836 93.675 137.974C92.2426 136.661 90.4964 135.241 88.5305 133.865C86.5674 132.486 84.3846 131.153 82.1247 129.968C77.6108 127.582 72.7658 125.862 68.9766 125.027Z" fill="#6D9B7C"/>
<path d="M122.99 117.027C120.425 118.286 118.214 119.794 116.328 121.485C114.441 123.179 112.884 125.056 111.639 127.124C110.39 129.19 109.448 131.442 108.823 133.902C108.201 136.36 107.89 139.024 107.964 141.888C110.812 141.816 113.577 140.961 115.999 139.476C118.422 137.994 120.496 135.882 121.989 133.416C123.481 130.947 124.385 128.128 124.577 125.287C124.765 122.443 124.243 119.591 122.99 117.027Z" fill="#6D9B7C"/>
<path d="M120.727 133.43C120.787 133.39 120.807 133.31 120.773 133.25C120.739 133.19 120.662 133.176 120.602 133.216C120.128 133.53 119.632 133.796 119.121 134.002C118.602 134.203 118.071 134.349 117.537 134.44C116.476 134.623 115.372 134.558 114.339 134.277L114.944 133.413L115.526 132.535C115.92 131.954 116.285 131.353 116.659 130.758C117.817 130.827 118.967 130.626 120.077 130.211C121.167 129.785 122.214 129.133 123.073 128.269C123.124 128.217 123.127 128.137 123.081 128.085C123.036 128.034 122.956 128.034 122.905 128.085C122.086 128.907 121.096 129.53 120.06 129.948C119.004 130.354 117.906 130.555 116.807 130.518C117.991 128.566 119.081 126.558 120.068 124.5C120.071 124.5 120.074 124.503 120.077 124.5C120.776 124.392 121.455 124.154 122.071 123.799C122.693 123.45 123.267 122.99 123.735 122.432C123.781 122.377 123.778 122.297 123.726 122.252C123.675 122.206 123.598 122.211 123.552 122.266C123.333 122.52 123.099 122.758 122.845 122.97C122.585 123.181 122.314 123.37 122.029 123.536C121.458 123.865 120.85 124.103 120.205 124.223C120.941 122.649 121.643 121.056 122.257 119.425C122.283 119.362 122.251 119.29 122.186 119.264C122.123 119.242 122.051 119.273 122.026 119.336C121.318 121.196 120.525 123.024 119.649 124.809C119.344 124.231 119.132 123.622 118.998 122.993C118.861 122.363 118.819 121.725 118.87 121.098C118.876 121.033 118.824 120.973 118.756 120.967C118.687 120.961 118.63 121.01 118.627 121.076C118.567 121.751 118.622 122.443 118.776 123.124C118.918 123.797 119.164 124.46 119.509 125.078C119.509 125.081 119.512 125.081 119.515 125.084C118.713 126.686 117.874 128.274 116.947 129.808C115.86 127.894 115.4 125.671 115.629 123.611C115.637 123.548 115.589 123.488 115.52 123.476C115.454 123.465 115.392 123.508 115.386 123.573C115.155 125.728 115.634 128.051 116.804 130.051C115.888 131.55 114.941 133.03 113.919 134.455C112.701 132.675 112.147 130.532 112.293 128.503C112.299 128.44 112.247 128.38 112.182 128.372C112.116 128.363 112.059 128.406 112.053 128.472C111.985 129.533 112.076 130.603 112.376 131.668C112.655 132.718 113.123 133.745 113.768 134.669L112.541 136.329C112.113 136.867 111.7 137.419 111.263 137.948C110.478 136.878 110.007 135.568 109.956 134.283C109.953 134.217 109.896 134.163 109.831 134.163C109.765 134.163 109.711 134.214 109.714 134.28C109.776 135.639 110.264 137.018 111.103 138.145C110.364 139.052 109.597 139.937 108.809 140.801C108.763 140.849 108.766 140.929 108.818 140.975C108.869 141.021 108.946 141.018 108.992 140.967C109.488 140.437 109.95 139.882 110.43 139.339C110.895 138.784 111.36 138.228 111.814 137.665C113.081 138.254 114.567 138.406 115.962 138.002C116.031 137.982 116.071 137.914 116.057 137.845C116.042 137.776 115.974 137.739 115.905 137.756C114.59 138.143 113.18 138.005 111.973 137.462C112.744 136.492 113.486 135.502 114.202 134.492C116.333 135.115 118.756 134.772 120.727 133.43Z" fill="#B0C98F"/>
<path d="M94.782 124.045C96.494 125.865 97.8921 127.814 98.9593 129.699C100.032 131.585 100.78 133.407 101.202 135.021C102.058 138.257 101.69 140.56 100.432 141.17C99.1419 141.796 97.2301 140.709 94.9931 138.792C93.8775 137.828 92.6562 136.658 91.3637 135.353C90.074 134.045 88.7158 132.6 87.2891 131.084C85.8653 129.565 84.6469 128.24 83.6625 127.024C82.661 125.828 81.8963 124.741 81.3456 123.756C81.0689 123.267 80.8577 122.792 80.7008 122.346C80.5381 121.905 80.4383 121.482 80.3955 121.081C80.3127 120.28 80.4639 119.565 80.852 118.97C81.24 118.375 81.8278 117.957 82.6296 117.757C83.0319 117.656 83.4856 117.613 83.9964 117.631C84.5014 117.656 85.055 117.748 85.6656 117.905C86.8839 118.223 88.2849 118.855 89.8428 119.842C91.3865 120.852 93.0757 122.22 94.782 124.045Z" fill="#6D9B7C"/>
<path d="M81.1289 119.161C84.3617 121.679 88.3678 125.204 91.8574 129.216C93.6065 131.213 95.2415 133.313 96.6824 135.362C98.1262 137.41 99.376 139.407 100.432 141.17C99.6756 139.261 98.6341 137.118 97.3102 134.949C95.9891 132.781 94.3912 130.589 92.6079 128.555C89.0583 124.466 84.727 121.118 81.1289 119.161Z" fill="#B0C98F"/>
<path d="M92.5709 124.915C92.9989 123.92 93.3327 122.732 93.5382 121.465C93.6523 120.827 93.7293 120.169 93.7693 119.516C93.8064 118.864 93.8406 118.189 93.8149 117.542C93.7835 116.898 93.7493 116.246 93.6637 115.628C93.5695 115.016 93.4697 114.412 93.3299 113.848C93.2614 113.565 93.1758 113.296 93.0902 113.03C93.0103 112.764 92.9218 112.506 92.8277 112.26C92.6336 111.771 92.4082 111.325 92.1857 110.918C92.1714 111.159 92.1571 111.408 92.1514 111.662C92.1486 111.914 92.1486 112.174 92.1457 112.438C92.1486 112.967 92.1315 113.533 92.1514 114.1C92.1628 114.675 92.1714 115.267 92.1828 115.871C92.2057 116.469 92.2228 117.084 92.2313 117.711C92.277 118.944 92.2912 120.22 92.3512 121.436C92.3854 122.669 92.4739 123.831 92.5709 124.915Z" fill="#D8E29F"/>
<path d="M94.5109 127.281C94.9475 126.443 95.2927 125.427 95.5409 124.3C95.6636 123.739 95.7521 123.161 95.8063 122.583C95.8605 122.003 95.9005 121.402 95.8919 120.827C95.8891 120.538 95.8748 120.252 95.852 119.968C95.8348 119.682 95.812 119.399 95.7778 119.121C95.715 118.563 95.5952 118.048 95.4782 117.542C95.3555 117.038 95.1985 116.572 95.0131 116.146C94.8419 115.711 94.645 115.319 94.4253 114.975C94.4253 115.402 94.4253 115.851 94.4253 116.317C94.4367 116.787 94.4481 117.273 94.4624 117.777C94.4681 118.798 94.5223 119.848 94.508 120.955C94.5166 121.496 94.5195 122.045 94.5137 122.595C94.5109 122.87 94.5052 123.147 94.5023 123.419C94.5023 123.688 94.5023 123.957 94.5023 124.226C94.4966 124.764 94.4938 125.293 94.4881 125.805C94.4824 126.32 94.4966 126.807 94.5109 127.281Z" fill="#D8E29F"/>
<path d="M96.5285 129.256C96.8651 128.663 97.1533 127.92 97.3388 127.113C97.433 126.709 97.5014 126.289 97.5471 125.865C97.5985 125.433 97.6241 124.998 97.6213 124.569C97.6184 124.14 97.5842 123.719 97.5271 123.313C97.4786 122.898 97.4044 122.5 97.3046 122.131C97.0963 121.396 96.8252 120.735 96.4971 120.229C96.517 121.49 96.6226 123.041 96.6226 124.649C96.6369 125.445 96.6055 126.263 96.5855 127.044C96.5655 127.825 96.5456 128.578 96.5285 129.256Z" fill="#D8E29F"/>
<path d="M90.5478 122.057C90.8503 121.13 91.1157 120.003 91.2384 118.847C91.3011 118.266 91.3639 117.656 91.381 117.058C91.3924 116.758 91.3924 116.458 91.3896 116.157C91.3924 115.854 91.3896 115.551 91.3753 115.25C91.3125 114.057 91.1727 112.884 90.9245 111.828C90.8132 111.293 90.6648 110.795 90.4965 110.326C90.3453 109.854 90.1655 109.416 89.9629 109.024C89.7004 110.824 89.7033 113.081 89.7917 115.41C89.8859 117.739 90.1284 120.111 90.5478 122.057Z" fill="#D8E29F"/>
<path d="M88.5448 118.606C89.0156 117.004 89.1839 114.852 88.9585 112.827C88.7359 110.795 88.1795 108.861 87.3663 107.533C87.2579 109.093 87.3378 111.056 87.5604 113.021C87.6488 114.017 87.8086 114.993 87.9484 115.954C88.0369 116.423 88.1282 116.887 88.2223 117.333C88.2737 117.556 88.3222 117.777 88.3679 117.991C88.4306 118.2 88.4877 118.406 88.5448 118.606Z" fill="#D8E29F"/>
<path d="M86.4701 115.37C86.5757 115.007 86.6499 114.615 86.7098 114.197C86.7754 113.779 86.8182 113.339 86.8353 112.89C86.8525 111.997 86.8353 111.041 86.6641 110.123C86.3988 108.266 85.6855 106.532 84.8608 105.342C84.8608 105.705 84.8694 106.091 84.8865 106.489C84.9179 106.887 84.955 107.299 84.9978 107.722C85.0663 108.578 85.2261 109.453 85.3431 110.352C85.6484 112.129 85.9765 113.937 86.4701 115.37Z" fill="#D8E29F"/>
<path d="M92.5395 124.944C91.5009 125.158 90.2426 125.207 88.8986 124.987C88.2367 124.872 87.549 124.695 86.8585 124.455C86.1652 124.217 85.5003 123.894 84.8298 123.528C84.1564 123.164 83.5401 122.718 82.9437 122.237C82.3388 121.762 81.8024 121.227 81.3116 120.675C81.0662 120.397 80.8266 120.117 80.6126 119.831C80.4014 119.542 80.2045 119.247 80.0219 118.955C79.6538 118.372 79.3457 117.794 79.126 117.224C79.3485 117.422 79.574 117.628 79.8051 117.837C80.0448 118.04 80.2873 118.246 80.5355 118.458C81.0377 118.875 81.5313 119.31 82.0877 119.716C82.6356 120.128 83.1891 120.538 83.7655 120.927C84.3504 121.31 84.9468 121.679 85.5403 122.028C86.7586 122.706 87.977 123.302 89.184 123.768C90.3567 124.26 91.5323 124.609 92.5395 124.944Z" fill="#D8E29F"/>
<path d="M94.6196 127.179C93.7607 127.545 92.6708 127.808 91.498 127.825C90.9102 127.839 90.2911 127.797 89.6605 127.702C89.0299 127.605 88.4107 127.436 87.783 127.219C87.472 127.11 87.161 126.987 86.8557 126.849C86.5561 126.709 86.2622 126.555 85.974 126.389C85.4033 126.057 84.8326 125.694 84.3419 125.276C83.8454 124.864 83.3917 124.42 82.9894 123.971C82.6013 123.51 82.2675 123.041 81.9907 122.586C82.4273 122.864 82.8867 123.156 83.366 123.462C83.8454 123.757 84.3618 124.043 84.8783 124.323C85.9026 124.895 87.0497 125.382 88.1625 125.808C88.736 126.005 89.3095 126.183 89.8716 126.34C90.1541 126.417 90.4337 126.492 90.7105 126.561C90.993 126.623 91.2726 126.681 91.5465 126.735C92.0972 126.841 92.6308 126.93 93.1415 127.007C93.6494 127.078 94.1545 127.124 94.6196 127.179Z" fill="#D8E29F"/>
<path d="M96.528 129.259C95.9488 129.611 95.2126 129.902 94.3766 130.06C93.96 130.14 93.5149 130.186 93.0612 130.194C92.6132 130.197 92.151 130.16 91.6916 130.086C91.2294 130.011 90.7671 129.897 90.3163 129.748C89.8769 129.591 89.4489 129.402 89.0466 129.184C88.2305 128.761 87.5571 128.203 87.0464 127.645C88.4103 128.18 90.0937 128.752 91.7886 129.03C92.6446 129.167 93.4806 129.247 94.2824 129.276C95.0928 129.299 95.8518 129.282 96.528 129.259Z" fill="#D8E29F"/>
<path d="M90.308 122.229C89.3036 122.237 88.1908 122.028 87.0038 121.628C86.4103 121.427 85.8339 121.156 85.2433 120.847C84.9494 120.689 84.6555 120.523 84.3673 120.343C84.0848 120.16 83.8081 119.963 83.5313 119.757C82.4214 118.941 81.437 117.931 80.6352 116.864C80.2443 116.326 79.8904 115.779 79.5908 115.236C79.3055 114.686 79.0687 114.143 78.8804 113.625C80.4668 115.09 82.3985 116.872 84.433 118.4C86.4531 119.951 88.6188 121.196 90.308 122.229Z" fill="#D8E29F"/>
<path d="M87.8967 119.004C86.239 118.701 84.2302 117.599 82.6352 115.931C81.0231 114.28 79.9531 112.091 79.6221 110.32C80.8091 111.674 82.1444 113.376 83.6396 114.907C84.3558 115.691 85.1461 116.409 85.8538 117.104C86.2218 117.445 86.5814 117.774 86.9238 118.091C87.0921 118.252 87.2576 118.409 87.4174 118.561C87.58 118.712 87.7427 118.858 87.8967 119.004Z" fill="#D8E29F"/>
<path d="M86.1965 115.513C85.8398 115.387 85.4632 115.219 85.0894 115.004C84.7213 114.787 84.3504 114.529 83.9823 114.234C83.2319 113.651 82.5671 112.892 81.9736 112.051C80.8322 110.352 80.1845 108.297 80.2502 106.712C80.4584 107.05 80.6667 107.408 80.8836 107.78C81.109 108.149 81.3401 108.529 81.577 108.918C82.0278 109.702 82.5642 110.492 83.075 111.279C84.1421 112.83 85.2863 114.289 86.1965 115.513Z" fill="#D8E29F"/>
<path d="M81.7566 103.164C81.7394 104.658 82.0362 106.584 82.681 108.4C82.9749 109.316 83.3858 110.192 83.791 111.001C84.2275 111.8 84.6812 112.521 85.1549 113.104C85.0236 112.366 84.8353 111.539 84.5785 110.684C84.3559 109.817 84.0392 108.93 83.7539 108.031C83.1205 106.257 82.4756 104.489 81.7566 103.164Z" fill="#D8E29F"/>
<path d="M84.0732 110.455C85.0063 113.811 86.938 118.023 89.5602 121.788C90.8699 123.668 92.3365 125.439 93.8288 126.987C95.3211 128.538 96.8704 129.837 98.26 130.878C97.093 129.585 95.7377 128.123 94.388 126.483C93.0384 124.844 91.6688 123.058 90.382 121.213C87.8111 117.522 85.6283 113.568 84.0732 110.455Z" fill="#B0C98F"/>
<path d="M98.4944 105.76C96.7995 109.367 95.738 112.97 95.2216 116.495C94.7051 120.023 94.7365 123.476 95.2929 126.844C95.8436 130.211 96.9165 133.493 98.5343 136.669C100.152 139.842 102.309 142.912 105.066 145.785C107.925 143.027 109.985 139.588 111.143 135.831C112.304 132.077 112.561 128.017 111.919 124.1C111.274 120.183 109.736 116.42 107.437 113.236C105.134 110.048 102.084 107.453 98.4944 105.76Z" fill="#B0C98F"/>
<path d="M110.601 125.25C110.629 125.156 110.575 125.053 110.487 125.021C110.395 124.99 110.301 125.044 110.273 125.141C110.056 125.9 109.773 126.623 109.42 127.302C109.054 127.982 108.629 128.618 108.147 129.196C107.194 130.354 105.979 131.296 104.64 131.951L104.486 130.492L104.298 129.035C104.181 128.063 104.027 127.095 103.878 126.128C105.162 125.147 106.204 123.9 107.009 122.46C107.785 121.027 108.313 119.405 108.464 117.728C108.472 117.628 108.404 117.539 108.31 117.525C108.216 117.513 108.13 117.582 108.121 117.682C107.976 119.279 107.479 120.824 106.755 122.194C106.001 123.573 105.014 124.778 103.819 125.736C103.311 122.598 102.669 119.482 101.898 116.397C101.901 116.395 101.904 116.395 101.907 116.392C102.229 116.023 102.523 115.622 102.78 115.199C103.031 114.778 103.245 114.332 103.425 113.871C103.784 112.944 103.993 111.948 104.01 110.938C104.013 110.841 103.938 110.758 103.841 110.755C103.747 110.752 103.667 110.827 103.664 110.924C103.653 111.39 103.605 111.851 103.522 112.303C103.43 112.758 103.302 113.202 103.142 113.631C102.82 114.489 102.378 115.284 101.793 115.985C101.188 113.642 100.537 111.307 99.7754 109.007C99.7468 108.915 99.6498 108.867 99.5614 108.895C99.4701 108.924 99.4216 109.021 99.4501 109.113C99.8867 110.429 100.272 111.759 100.666 113.087C101.031 114.423 101.399 115.759 101.718 117.11C100.88 116.764 100.109 116.297 99.4101 115.742C98.7054 115.187 98.0976 114.538 97.5983 113.811C97.5441 113.737 97.4385 113.717 97.3615 113.771C97.2844 113.822 97.2644 113.928 97.3158 114.003C97.8522 114.787 98.5199 115.488 99.2875 116.083C100.038 116.681 100.891 117.17 101.81 117.525C101.813 117.525 101.818 117.525 101.821 117.525C102.392 119.957 102.917 122.4 103.322 124.867C100.446 123.825 97.955 121.865 96.3571 119.433C96.3086 119.356 96.203 119.336 96.1231 119.385C96.0432 119.433 96.0175 119.536 96.066 119.611C97.7467 122.148 100.349 124.2 103.391 125.256C103.779 127.671 104.121 130.094 104.355 132.532C102.9 132.163 101.544 131.533 100.335 130.715C99.1134 129.897 98.0776 128.884 97.2245 127.731C97.1731 127.656 97.0647 127.642 96.9877 127.691C96.9106 127.742 96.8878 127.842 96.942 127.917C97.8294 129.118 98.9051 130.171 100.189 131.021C101.442 131.874 102.871 132.523 104.392 132.898L104.632 135.765C104.686 136.723 104.76 137.679 104.794 138.638C102.988 138.257 101.29 137.327 100.049 136.025C99.9865 135.96 99.8781 135.957 99.8068 136.017C99.7354 136.08 99.7326 136.183 99.7953 136.248C101.114 137.622 102.897 138.603 104.809 138.992C104.88 140.623 104.909 142.254 104.906 143.885C104.906 143.979 104.98 144.057 105.077 144.057C105.171 144.057 105.248 143.979 105.248 143.885C105.262 142.875 105.225 141.868 105.217 140.858C105.182 139.851 105.151 138.841 105.1 137.834C106.966 137.27 108.644 136.054 109.734 134.357C109.785 134.274 109.765 134.163 109.688 134.108C109.608 134.054 109.502 134.074 109.451 134.154C108.427 135.759 106.837 136.921 105.08 137.476C104.986 135.753 104.851 134.034 104.677 132.32C107.499 130.992 109.722 128.426 110.601 125.25Z" fill="#D8E29F"/>
</g>
<path d="M191.487 91.8712C189.584 88.6409 185.101 87.6767 181.555 88.8756C178.008 90.0715 175.283 92.9442 173.092 95.9828C165.057 107.139 162.58 122.103 166.48 135.284H171.947C171.762 129.522 174.344 123.857 177.663 119.067C181.332 113.768 185.934 109.159 189.473 103.771C190.637 101.997 191.695 100.111 192.189 98.0457C192.685 95.9799 192.566 93.6995 191.487 91.8712Z" fill="#B0C98F"/>
<path d="M171.813 109.611C175.046 102.543 180.633 96.9355 185.138 92.8383C185.255 92.7324 185.264 92.5522 185.158 92.4349C185.053 92.3176 184.873 92.309 184.756 92.4148C180.211 96.5493 174.573 102.212 171.297 109.373C168.078 116.412 167.068 125.121 168.287 135.287H168.863C167.642 125.198 168.632 116.566 171.813 109.611Z" fill="#D8E29F"/>
<path d="M176.338 135.084C176.284 132.572 178.162 130.206 180.159 128.686C182.156 127.167 184.485 126.131 186.471 124.598C188.457 123.064 190.143 120.798 190.032 118.289C189.915 115.685 187.74 113.436 185.209 112.841C182.679 112.246 179.948 113.127 177.931 114.769C175.913 116.412 174.541 118.738 173.622 121.176C172.027 125.402 171.736 130.675 172.715 135.084H176.338Z" fill="#6D9B7C"/>
<path d="M174.073 128.532C174.099 128.389 174.133 128.251 174.161 128.111C174.161 128.08 174.167 128.051 174.181 128.022C174.276 127.57 174.381 127.13 174.498 126.698C174.159 125.419 174.159 122.646 174.159 122.526C174.159 122.414 174.247 122.326 174.358 122.326C174.467 122.326 174.558 122.414 174.558 122.526C174.558 122.549 174.558 124.515 174.746 125.877C175.254 124.309 175.936 122.889 176.789 121.642C176.789 121.639 176.792 121.639 176.792 121.636C176.952 121.404 177.115 121.173 177.286 120.952C177.377 120.835 177.471 120.721 177.563 120.609C177.557 119.456 178.076 116.95 178.099 116.841C178.122 116.732 178.227 116.663 178.333 116.686C178.441 116.709 178.51 116.815 178.487 116.921C178.481 116.944 178.076 118.892 177.979 120.123C179.697 118.24 181.851 116.97 184.14 116.512C184.248 116.489 184.351 116.56 184.374 116.669C184.396 116.778 184.325 116.881 184.217 116.904C181.7 117.407 179.349 118.932 177.597 121.196C177.56 121.244 177.526 121.296 177.488 121.344C180.482 120.397 182.567 120.366 184.585 120.337L184.773 120.334H184.776C184.884 120.334 184.973 120.42 184.976 120.532C184.978 120.643 184.89 120.732 184.779 120.735L184.59 120.738C182.487 120.769 180.31 120.801 177.092 121.897C175.99 123.519 175.177 125.43 174.672 127.602C176.647 126.206 180.439 125.582 180.61 125.553C180.718 125.536 180.821 125.61 180.838 125.719C180.855 125.828 180.781 125.931 180.673 125.948C180.63 125.954 176.267 126.672 174.544 128.208C174.518 128.34 174.487 128.472 174.461 128.606C174.113 130.509 173.979 132.626 174.053 135.081C174.056 135.193 173.97 135.284 173.859 135.287C173.856 135.287 173.856 135.287 173.853 135.287C173.748 135.287 173.659 135.201 173.654 135.095C173.582 132.609 173.719 130.463 174.073 128.532Z" fill="#B0C98F"/>
<path d="M40.052 135.061C40.7311 131.267 40.1576 127.084 38.1517 123.797C36.1572 120.529 33.0699 118.1 29.9855 115.84C26.901 113.579 23.7053 111.362 21.3427 108.349C18.983 105.336 17.5507 101.319 18.575 97.628C19.7078 93.5422 23.7823 90.661 27.9996 90.3005C32.2139 89.9428 36.4169 91.8169 39.5156 94.7096C44.5375 99.3991 46.8002 106.472 47.0598 113.35C47.3195 120.226 45.5162 128.352 43.9982 135.061H40.052Z" fill="#B0C98F"/>
<path d="M40.5399 113.067C40.5371 113.056 40.5314 113.041 40.5257 113.03C40.4315 112.758 40.3373 112.486 40.2375 112.22C40.1291 111.934 40.0206 111.651 39.9065 111.368C40.6712 108.255 41.4216 102.323 41.4302 102.263C41.4501 102.106 41.3389 101.963 41.1819 101.943C41.0279 101.926 40.8823 102.034 40.8624 102.192C40.8567 102.246 40.2204 107.273 39.527 110.469C38.2886 107.631 36.705 105.024 34.8589 102.732C35.1386 99.3534 34.4452 95.2103 34.4367 95.1703C34.411 95.0158 34.2626 94.9099 34.1085 94.9357C33.9544 94.9614 33.8489 95.1102 33.8745 95.2647C33.8803 95.3048 34.4852 98.9127 34.3282 102.092C33.7633 101.428 33.1755 100.79 32.5649 100.186C32.542 100.152 32.5135 100.123 32.4764 100.1C29.6373 97.3019 26.3503 95.1703 22.8236 93.9314C22.6752 93.877 22.5126 93.9571 22.4612 94.1059C22.4099 94.2547 22.4869 94.4178 22.6353 94.4693C25.7739 95.5737 28.7186 97.402 31.3208 99.7883C27.9425 99.0844 23.1432 99.2618 22.9206 99.2704C22.7637 99.2761 22.641 99.4106 22.6467 99.5679C22.6524 99.7253 22.7865 99.8541 22.9434 99.8426C23.0033 99.8398 28.9155 99.6223 32.1625 100.587C35.3212 103.725 37.912 107.714 39.6326 112.237C36.7564 110.006 32.251 108.612 29.3577 108.569C29.1979 108.578 29.0695 108.692 29.0695 108.853C29.0667 109.01 29.1922 109.142 29.352 109.142C32.4279 109.184 37.4298 110.87 40.0235 113.313C42.1777 119.525 42.9139 126.644 42.2691 135.038C42.2576 135.196 42.3746 135.333 42.5316 135.344C42.5401 135.344 42.5458 135.344 42.5544 135.344C42.7028 135.344 42.8283 135.23 42.8397 135.081C43.4903 126.581 42.737 119.37 40.5399 113.067Z" fill="#D8E29F"/>
<path d="M37.852 135.035C37.8977 132.881 36.2884 130.852 34.5764 129.548C32.8644 128.246 30.8671 127.356 29.1636 126.04C27.4602 124.724 26.0136 122.781 26.1106 120.629C26.2104 118.397 28.0737 116.469 30.245 115.957C32.4164 115.445 34.7562 116.203 36.4881 117.611C38.2201 119.018 39.3957 121.015 40.1832 123.104C41.55 126.726 41.8011 131.25 40.9593 135.032H37.852V135.035Z" fill="#547374"/>
<path d="M39.795 129.416C39.7722 129.293 39.7437 129.176 39.7209 129.055C39.7209 129.03 39.7151 129.004 39.7037 128.978C39.6238 128.592 39.5325 128.211 39.4298 127.842C39.7209 126.746 39.7209 124.366 39.7209 124.266C39.7209 124.171 39.6438 124.094 39.5497 124.094C39.4555 124.094 39.3785 124.171 39.3785 124.266C39.3785 124.286 39.3785 125.971 39.2158 127.138C38.7793 125.794 38.1972 124.578 37.4639 123.505C37.4639 123.502 37.461 123.502 37.461 123.502C37.3241 123.302 37.1842 123.104 37.0387 122.915C36.9617 122.815 36.8818 122.718 36.799 122.621C36.8048 121.631 36.3568 119.482 36.3397 119.39C36.3197 119.299 36.2284 119.239 36.1371 119.259C36.0458 119.279 35.9858 119.367 36.0058 119.462C36.0087 119.482 36.3568 121.153 36.4424 122.209C34.9701 120.592 33.1211 119.505 31.158 119.113C31.0667 119.093 30.9754 119.153 30.9583 119.247C30.9412 119.339 31.0011 119.43 31.0924 119.447C33.2495 119.88 35.2668 121.187 36.7705 123.127C36.8019 123.167 36.8304 123.213 36.8618 123.256C34.2938 122.443 32.5076 122.417 30.7757 122.392L30.613 122.389H30.6102C30.516 122.389 30.4418 122.463 30.439 122.558C30.439 122.652 30.5132 122.729 30.6073 122.732L30.77 122.735C32.5733 122.761 34.4393 122.789 37.2014 123.731C38.1458 125.121 38.842 126.761 39.2757 128.623C37.5809 127.427 34.3309 126.889 34.1825 126.867C34.0884 126.852 34.0028 126.915 33.9885 127.01C33.9742 127.104 34.037 127.19 34.1312 127.204C34.1683 127.21 37.909 127.825 39.387 129.144C39.4098 129.259 39.4384 129.37 39.4583 129.485C39.7579 131.115 39.8721 132.932 39.8093 135.035C39.8065 135.13 39.8806 135.21 39.9748 135.213C39.9777 135.213 39.9777 135.213 39.9805 135.213C40.0718 135.213 40.1489 135.138 40.1517 135.047C40.2173 132.912 40.1004 131.073 39.795 129.416Z" fill="#6D9B7C"/>
<path d="M185.658 136.334H28.3421C27.974 136.334 27.6772 136.037 27.6772 135.668C27.6772 135.299 27.974 135.001 28.3421 135.001H185.655C186.023 135.001 186.32 135.299 186.32 135.668C186.323 136.037 186.026 136.334 185.658 136.334Z" fill="#454F6B"/>
<path d="M130.295 42.6299C126.905 49.3537 121.233 47.7715 119.27 42.6299V50.069H130.295V42.6299Z" fill="#85BA09"/>
<path d="M132.977 46.0862L132.874 44.0691L130.338 47.4425L124.782 51.0361L119.227 47.4425L116.69 44.0691L116.588 46.0862C116.322 51.2536 114.727 56.2607 111.954 60.624L111.888 60.7299H124.782H137.677L137.611 60.624C134.838 56.2607 133.243 51.2507 132.977 46.0862Z" fill="#85BA09"/>
<path d="M114.453 46.9103C114.624 47.5884 115.206 48.0433 115.903 48.0433H133.659C134.355 48.0433 134.937 47.5884 135.108 46.9103C135.28 46.2322 134.983 45.5541 134.369 45.2222L125.079 40.175V38.3667C125.079 37.8717 124.677 37.4712 124.186 37.4712C123.39 37.4712 122.736 36.8474 122.688 36.0606C122.685 36.0291 122.685 35.0535 122.685 35.022C122.685 34.1922 123.358 33.517 124.186 33.517H124.603H126.066C125.687 33.145 125.17 32.9161 124.603 32.9161H124.186C123.027 32.9161 122.089 33.8603 122.089 35.022C122.089 35.0535 122.089 36.032 122.092 36.0635C122.14 37.1793 123.062 38.0749 124.189 38.0749C124.351 38.0749 124.486 38.2065 124.486 38.3725V40.1807L115.195 45.2279C114.579 45.5541 114.282 46.2322 114.453 46.9103ZM115.475 45.7515L124.779 40.6957L134.084 45.7515C134.538 45.9976 134.606 46.4496 134.526 46.7644C134.447 47.0762 134.173 47.4425 133.656 47.4425H115.903C115.386 47.4425 115.112 47.0762 115.032 46.7644C114.955 46.4496 115.024 45.9976 115.475 45.7515Z" fill="#8D415F"/>
<path d="M137.677 60.727C130.686 56.006 130.78 51.8 132.874 44.0662L130.295 42.6299L129.505 45.7257C129.005 47.6856 127.242 49.059 125.225 49.059H124.782H124.34C122.323 49.059 120.559 47.6885 120.06 45.7257L119.27 42.6299L116.69 44.0662C118.782 51.7972 118.879 56.006 111.888 60.727L112.576 76.5952C112.736 80.269 112.613 83.9514 112.211 87.608L111.885 90.555H124.779H137.674L137.348 87.608C136.946 83.9514 136.826 80.269 136.983 76.5952L137.677 60.727Z" fill="#D8E29F"/>
<path d="M128.857 57.9459C128.703 59.3365 128.072 60.6669 127.108 61.6769C126.945 61.8486 126.771 62.0117 126.591 62.1605C125.63 62.9588 124.463 63.4509 123.324 63.9573C122.186 64.4637 121.03 65.0074 120.134 65.8743C119.238 66.7441 118.63 68.0059 118.847 69.2362C119.05 70.375 120.123 71.3621 121.25 71.2963C122.659 66.8271 126.848 67.5195 127.775 62.7184C127.47 67.2935 123.707 67.2992 121.635 72.0373C121.121 73.2133 120.713 74.6754 120.485 76.5752C121.244 77.2218 122.117 77.3334 122.117 77.3334C121.872 76.1575 121.883 74.4865 122.248 73.0474C122.805 73.6511 123.612 74.0745 124.408 74.1661C125.864 74.3349 127.316 73.5566 128.255 72.4293C129.193 71.2992 129.684 69.8628 129.984 68.4236C130.706 64.9816 130.098 61.2392 128.857 57.9459Z" fill="#85BA09"/>
<path d="M127.222 53.7657L126.6 52.0318C126.548 51.8916 126.429 51.7829 126.283 51.7514L124.163 51.265C124.017 51.2307 123.863 51.2736 123.758 51.3795L122.445 52.6699C122.385 52.73 122.343 52.8044 122.325 52.8873L121.241 57.6369C121.187 57.8744 121.335 58.1119 121.572 58.1662L125.624 59.0961C125.861 59.1505 126.098 59.0017 126.152 58.7642L127.236 54.0146C127.256 53.9317 127.25 53.8458 127.222 53.7657ZM124.933 52.7843C124.691 52.73 124.54 52.4868 124.594 52.2436C124.648 52.0004 124.891 51.8487 125.133 51.9031C125.376 51.9574 125.527 52.2006 125.473 52.4438C125.418 52.6899 125.176 52.8415 124.933 52.7843Z" fill="white"/>
<path d="M125.105 54.0232L124.28 53.8344L124.571 54.7785L125.393 54.9674L125.105 54.0232Z" fill="#547374"/>
<path d="M124.2 54.9503L125.068 54.0146L124.246 53.8258L123.575 54.5497L123.324 54.3895L123.447 55.2392L124.448 55.1105L124.2 54.9503Z" fill="#6D9B7C"/>
<path d="M122.226 56.006L122.474 56.8128L123.144 56.089L122.896 55.2821L122.226 56.006Z" fill="#547374"/>
<path d="M123.478 56.3264L122.237 56.0403L122.485 56.85L123.444 57.0704L123.432 57.3679L124.103 56.8357L123.492 56.0317L123.478 56.3264Z" fill="#6D9B7C"/>
<path d="M125.376 57.5139L125.952 56.893L124.991 56.6727L124.417 57.2936L125.376 57.5139Z" fill="#547374"/>
<path d="M125.028 56.2636L125.401 57.4853L125.975 56.8673L125.687 55.9231L125.949 55.7857L125.156 55.4681L124.765 56.4009L125.028 56.2636Z" fill="#6D9B7C"/>
<path d="M125.027 52.2664C125.002 52.2808 124.973 52.2893 124.942 52.2922C124.585 52.3008 124.314 51.986 124.257 51.677C124.211 51.4281 124.268 51.1563 124.428 50.8444C124.474 50.7586 124.522 50.6756 124.568 50.5955C124.645 50.4639 124.719 50.338 124.771 50.2064C124.925 49.823 124.893 49.3595 124.688 49.0018C124.636 48.9131 124.668 48.8015 124.756 48.75C124.845 48.6985 124.956 48.73 125.007 48.8187C125.27 49.2793 125.31 49.8516 125.11 50.3437C125.047 50.5011 124.965 50.6441 124.882 50.7815C124.836 50.8616 124.79 50.936 124.751 51.0132C124.628 51.2479 124.585 51.4424 124.614 51.6084C124.642 51.7629 124.773 51.926 124.927 51.9231C125.027 51.9202 125.113 52.0004 125.116 52.1034C125.119 52.172 125.082 52.235 125.027 52.2664Z" fill="#85BA09"/>
<path d="M98.229 42.6299C101.06 43.4396 108.467 43.3452 109.828 42.6299L105.334 59.4394V86.4549H102.723V59.4394L98.229 42.6299Z" fill="#495375"/>
<path d="M93.7008 46.9103C93.872 47.5884 94.4541 48.0433 95.1503 48.0433H112.907C113.603 48.0433 114.185 47.5884 114.356 46.9103C114.527 46.2322 114.231 45.5541 113.617 45.2222L104.327 40.175V38.3667C104.327 37.8717 103.924 37.4712 103.433 37.4712C102.637 37.4712 101.984 36.8474 101.935 36.0606C101.933 36.0291 101.933 35.0535 101.933 35.022C101.933 34.1922 102.606 33.517 103.433 33.517H103.85H105.314C104.934 33.145 104.418 32.9161 103.85 32.9161H103.433C102.275 32.9161 101.333 33.8603 101.333 35.022C101.333 35.0535 101.333 36.032 101.336 36.0635C101.385 37.1793 102.306 38.0749 103.433 38.0749C103.596 38.0749 103.73 38.2065 103.73 38.3725V40.1807L94.4398 45.2279C93.8263 45.5541 93.5296 46.2322 93.7008 46.9103ZM94.7223 45.7515L104.027 40.6957L113.332 45.7515C113.785 45.9976 113.854 46.4496 113.774 46.7644C113.694 47.0762 113.42 47.4425 112.904 47.4425H95.1474C94.631 47.4425 94.357 47.0762 94.2771 46.7644C94.2001 46.4496 94.2686 45.9976 94.7223 45.7515Z" fill="#8D415F"/>
<path d="M102.723 59.4394L98.2292 42.6299L90.996 46.7987C90.2941 47.2021 89.8233 47.9145 89.7263 48.7185L85.3179 84.9757L91.3099 85.9142L94.0205 60.5839L92.3085 88.0114L102.723 88.3776V59.4394Z" fill="#797C99"/>
<path d="M98.2291 42.6299L95.721 48.4925C95.4585 49.1076 95.7752 49.8172 96.4058 50.029L98.2291 50.6412L96.5827 54.1176C96.3402 54.6298 96.5085 55.2421 96.9765 55.5568L102.723 59.4366L98.2291 42.6299Z" fill="#99A3B0"/>
<path d="M90.7393 48.0433L94.0206 59.7514C93.0219 51.3566 92.1174 48.7815 90.7393 48.0433Z" fill="#495375"/>
<path d="M85.3179 84.9757L89.8033 85.259C90.2513 85.2876 90.645 84.9643 90.705 84.5179L91.0645 81.8713C91.1244 81.4393 90.8505 81.033 90.4282 80.9243L87.2667 80.1117L91.8691 80.6782L91.3099 85.9142L85.3179 84.9757Z" fill="#495375"/>
<path d="M87.207 83.0415C87.5505 83.0415 87.829 82.7623 87.829 82.4178C87.829 82.0733 87.5505 81.7941 87.207 81.7941C86.8634 81.7941 86.585 82.0733 86.585 82.4178C86.585 82.7623 86.8634 83.0415 87.207 83.0415Z" fill="#99A3B0"/>
<path d="M105.334 59.4394L109.828 42.6299L117.061 46.7987C117.763 47.2021 118.234 47.9145 118.331 48.7185L122.739 84.9757L116.747 85.9142L114.037 60.5839L115.749 88.0114L105.334 88.3776V59.4394Z" fill="#797C99"/>
<path d="M109.828 42.6299L112.336 48.4925C112.599 49.1076 112.282 49.8172 111.651 50.029L109.828 50.6412L111.474 54.1176C111.717 54.6298 111.549 55.2421 111.081 55.5568L105.334 59.4366L109.828 42.6299Z" fill="#99A3B0"/>
<path d="M117.318 48.0433L114.037 59.7514C115.035 51.3566 115.94 48.7815 117.318 48.0433Z" fill="#495375"/>
<path d="M122.739 84.9757L118.254 85.259C117.806 85.2876 117.412 84.9643 117.352 84.5179L116.993 81.8713C116.933 81.4393 117.207 81.033 117.629 80.9243L120.79 80.1117L116.188 80.6782L116.747 85.9142L122.739 84.9757Z" fill="#495375"/>
<path d="M120.229 82.4178C120.229 82.7612 120.508 83.0415 120.851 83.0415C121.193 83.0415 121.473 82.7612 121.473 82.4178C121.473 82.0745 121.193 81.7941 120.851 81.7941C120.508 81.7941 120.229 82.0716 120.229 82.4178Z" fill="#99A3B0"/>
<path d="M79.2886 42.8445C83.2747 45.5855 88.2908 44.0605 89.7774 42.8445L84.533 62.3464L79.2886 42.8445Z" fill="#A08B7C"/>
<path d="M74.1754 46.9103C74.3466 47.5884 74.9287 48.0433 75.6249 48.0433H93.3812C94.0774 48.0433 94.6595 47.5884 94.8307 46.9103C95.0019 46.2322 94.7051 45.5541 94.0916 45.2222L84.8012 40.175V38.3667C84.8012 37.8717 84.3989 37.4712 83.9081 37.4712C83.112 37.4712 82.4586 36.8474 82.4101 36.0606C82.4072 36.0291 82.4072 35.0535 82.4072 35.022C82.4072 34.1922 83.0806 33.517 83.9081 33.517H84.3247H85.7884C85.4089 33.145 84.8925 32.9161 84.3247 32.9161H83.9081C82.7496 32.9161 81.8109 33.8603 81.8109 35.022C81.8109 35.0535 81.8109 36.032 81.8137 36.0635C81.8623 37.1793 82.7839 38.0749 83.9109 38.0749C84.0736 38.0749 84.2077 38.2065 84.2077 38.3725V40.1807L74.9172 45.2279C74.3009 45.5541 74.0042 46.2322 74.1754 46.9103ZM75.1969 45.7515L84.5016 40.6957L93.8063 45.7515C94.26 45.9976 94.3285 46.4496 94.2486 46.7644C94.1687 47.0762 93.8948 47.4425 93.3783 47.4425H75.622C75.1056 47.4425 74.8316 47.0762 74.7517 46.7644C74.6747 46.4496 74.7432 45.9976 75.1969 45.7515Z" fill="#8D415F"/>
<path d="M79.2885 42.8445L84.5329 62.3464V114.16C78.2812 114.16 73.285 115.304 70.3147 113.302L72.0524 64.4809L70.3147 84.1831L64.3398 81.7397L69.998 50.833C70.4745 48.235 72.1922 46.0404 74.5947 44.9589L79.2885 42.8445Z" fill="#BBA389"/>
<path d="M79.2884 42.8445L84.5328 62.3464L78.5751 57.0246C78.227 56.7127 78.1014 56.2177 78.2612 55.7771L79.802 51.5425L76.9144 49.6627C76.4208 49.3423 76.2524 48.6985 76.5235 48.1749L79.2884 42.8445Z" fill="#CABFAB"/>
<path d="M89.7771 42.8445L84.5327 62.3464V117.093C90.7844 117.093 95.7806 115.304 98.7509 113.302L97.0132 64.4838L98.7509 84.186L104.726 81.7425L99.0676 50.833C98.5911 48.235 96.8734 46.0404 94.4709 44.9589L89.7771 42.8445Z" fill="#BBA389"/>
<path d="M89.7771 42.8445L84.5327 62.3464L90.4905 57.0246C90.8386 56.7127 90.9641 56.2177 90.8043 55.7771L89.2635 51.5425L92.1511 49.6627C92.6447 49.3423 92.8131 48.6985 92.542 48.1749L89.7771 42.8445Z" fill="#CABFAB"/>
<path d="M82.7637 114.189C83.34 114.171 83.9307 114.16 84.5299 114.16V62.3464L82.7637 114.189Z" fill="#A08B7C"/>
<path d="M158.509 129.708H148.73V45.5884C148.73 39.1993 143.546 34.0005 137.174 34.0005H73.699C67.3275 34.0005 62.143 39.1993 62.143 45.5884V129.708H52.3646C49.4542 129.708 47.0859 132.082 47.0859 135.001H49.6539C49.6539 133.502 50.8695 132.283 52.3646 132.283H63.427H74.4893C75.9845 132.283 77.2 133.502 77.2 135.001H79.768C79.768 132.082 77.3997 129.708 74.4893 129.708H64.711V45.5884C64.711 40.6185 68.7427 36.5756 73.699 36.5756H137.174C142.13 36.5756 146.162 40.6185 146.162 45.5884V129.708H136.384C133.473 129.708 131.105 132.082 131.105 135.001H133.673C133.673 133.502 134.889 132.283 136.384 132.283H147.446H158.509C160.004 132.283 161.219 133.502 161.219 135.001H163.787C163.787 132.082 161.419 129.708 158.509 129.708Z" fill="#99A3B0"/>
<path d="M105.95 35.0192V35.4226C105.95 35.5885 105.816 35.723 105.651 35.723C105.485 35.723 105.351 35.5885 105.351 35.4226V35.0192C105.351 34.1894 104.678 33.5142 103.85 33.5142H105.314C105.705 33.8976 105.95 34.4297 105.95 35.0192Z" fill="#8D415F"/>
<path d="M126.703 35.0192V35.4226C126.703 35.5885 126.568 35.723 126.403 35.723C126.237 35.723 126.103 35.5885 126.103 35.4226V35.0192C126.103 34.1894 125.43 33.5142 124.603 33.5142H126.066C126.457 33.8976 126.703 34.4297 126.703 35.0192Z" fill="#8D415F"/>
<path d="M86.4248 35.0192V35.4226C86.4248 35.5885 86.2907 35.723 86.1252 35.723C85.9597 35.723 85.8256 35.5885 85.8256 35.4226V35.0192C85.8256 34.1894 85.1522 33.5142 84.3247 33.5142H85.7885C86.1794 33.8976 86.4248 34.4297 86.4248 35.0192Z" fill="#8D415F"/>
<path d="M90.1398 58.6184H89.5692H88.9985C87.5262 58.6184 86.0653 58.378 84.6729 57.9031C85.5289 59.5511 87.2266 60.5869 89.0784 60.5869H89.5692H90.0599C91.9118 60.5869 93.6123 59.554 94.4655 57.9031C93.0731 58.3752 91.6122 58.6184 90.1398 58.6184Z" fill="#547374"/>
<path d="M79.2398 62.4954C79.411 63.1735 79.9931 63.6284 80.6893 63.6284H98.4456C99.1418 63.6284 99.7239 63.1735 99.8951 62.4954C100.066 61.8173 99.7696 61.1391 99.1561 60.8072L89.8657 55.7601V53.9518C89.8657 53.4568 89.4633 53.0563 88.9726 53.0563C88.1765 53.0563 87.5231 52.4325 87.4746 51.6457C87.4717 51.6142 87.4717 50.6385 87.4717 50.6071C87.4717 49.7773 88.1451 49.1021 88.9726 49.1021H89.3891H90.8529C90.4734 48.7301 89.957 48.5012 89.3891 48.5012H88.9726C87.8141 48.5012 86.8725 49.4454 86.8725 50.6071C86.8725 50.6385 86.8725 51.6171 86.8754 51.6485C86.9239 52.7644 87.8455 53.66 88.9726 53.66C89.1352 53.66 89.2693 53.7916 89.2693 53.9575V55.7658L79.9789 60.813C79.3654 61.1391 79.0686 61.8173 79.2398 62.4954ZM80.2642 61.3337L89.5689 56.278L98.8736 61.3337C99.3273 61.5798 99.3958 62.0318 99.3159 62.3466C99.236 62.6584 98.9621 63.0247 98.4456 63.0247H80.6922C80.1757 63.0247 79.9018 62.6584 79.8219 62.3466C79.742 62.0347 79.8105 61.5798 80.2642 61.3337Z" fill="#8D415F"/>
<path d="M91.4892 50.6042V51.0077C91.4892 51.1736 91.3551 51.3081 91.1896 51.3081C91.0241 51.3081 90.89 51.1736 90.89 51.0077V50.6042C90.89 49.7745 90.2166 49.0992 89.3892 49.0992H90.8529C91.2467 49.4826 91.4892 50.0148 91.4892 50.6042Z" fill="#8D415F"/>
<path d="M103.085 65.6255C102.552 63.2335 100.977 61.2078 98.7967 60.1005L94.4653 57.9031C93.6093 59.5511 91.9116 60.5869 90.0598 60.5869H89.569H89.0782C87.2264 60.5869 85.5258 59.554 84.6727 57.9031L80.3413 60.1005C78.1614 61.2078 76.5863 63.2335 76.0527 65.6255L72.9512 79.4937L75.853 81.116L76.5663 103.053C78.247 104.738 83.6997 105.15 89.5718 105.15C95.444 105.15 100.897 104.738 102.577 103.053L103.291 81.116L106.193 79.4937L103.085 65.6255Z" fill="#85BA09"/>
<path d="M103.288 81.1132L100.112 82.89L99.9465 67.4882L99.1504 84.724L101.219 83.4508L102.94 91.7969L103.288 81.1132Z" fill="#547374"/>
<path d="M91.6408 71.9058H87.6689L89.9887 75.9343H93.9605L91.6408 71.9058Z" fill="#B0C98F"/>
<path d="M88.4705 77.1131L91.4694 71.9058H87.4975L85.1778 75.9343L83.8652 75.4622L85.3204 79.2276L89.7716 77.5824L88.4705 77.1131Z" fill="#D8E29F"/>
<path d="M80.5127 84.0344L82.4986 87.485L84.8184 83.4565L82.8324 80.0059L80.5127 84.0344Z" fill="#B0C98F"/>
<path d="M86.5987 84.1861H80.5981L82.5841 87.6338H87.2236L87.4747 89.0101L89.997 85.8656L86.3505 82.8213L86.5987 84.1861Z" fill="#D8E29F"/>
<path d="M96.5541 87.6338L98.54 84.186H93.9005L91.9146 87.6338H96.5541Z" fill="#B0C98F"/>
<path d="M93.6407 82.2747L96.6395 87.485L98.6255 84.0344L96.3057 80.0058L97.37 79.1017L93.3896 78.4836L92.585 83.1731L93.6407 82.2747Z" fill="#D8E29F"/>
<path d="M75.8501 81.1132L79.0259 82.89L79.1914 67.4882L79.9874 84.724L77.9188 83.4508L76.1982 91.7969L75.8501 81.1132Z" fill="#547374"/>
<path d="M92.2568 63.4366L90.6247 62.5897C90.4906 62.5211 90.3337 62.5239 90.2024 62.5983L88.3192 63.6884C88.188 63.7628 88.1053 63.9002 88.0995 64.0489L88.0139 65.8887C88.0111 65.9717 88.0311 66.0575 88.0739 66.129L90.502 70.3493C90.6247 70.561 90.893 70.6326 91.1041 70.5095L94.705 68.4266C94.9162 68.3035 94.9875 68.0346 94.8648 67.8229L92.4366 63.6026C92.3938 63.5339 92.331 63.4767 92.2568 63.4366ZM89.9143 64.2778C89.6974 64.4037 89.4235 64.3293 89.2979 64.1119C89.1724 63.8944 89.2466 63.6198 89.4634 63.4939C89.6803 63.368 89.9542 63.4424 90.0798 63.6598C90.2025 63.8773 90.1283 64.1548 89.9143 64.2778Z" fill="white"/>
<path d="M90.8755 65.0704L90.145 65.4939L90.9982 65.986L91.7286 65.5654L90.8755 65.0704Z" fill="#547374"/>
<path d="M90.8443 66.3666V65.0876L90.1138 65.5111V66.5011L89.8228 66.5526L90.4876 67.0905L91.1324 66.3122L90.8443 66.3666Z" fill="#85BA09"/>
<path d="M90.1138 68.4868L90.8442 68.9102V67.9231L90.1138 67.4996V68.4868Z" fill="#547374"/>
<path d="M91.2493 67.8659L90.145 68.5068L90.8755 68.9274L91.7286 68.4353L91.9226 68.6613L92.051 67.8144L91.0581 67.6427L91.2493 67.8659Z" fill="#85BA09"/>
<path d="M93.4464 67.4395V66.5955L92.5933 67.0876V67.9345L93.4464 67.4395Z" fill="#547374"/>
<path d="M92.342 66.7642L93.4463 67.4051V66.5582L92.5931 66.0632L92.693 65.7828L91.894 66.0947L92.2421 67.0418L92.342 66.7642Z" fill="#85BA09"/>
<path d="M89.7915 63.7743C89.7658 63.7886 89.7373 63.7971 89.7059 63.8C89.3492 63.8086 89.0781 63.4939 89.0211 63.1849C88.9754 62.9359 89.0325 62.6641 89.1923 62.3522C89.2379 62.2664 89.2864 62.1834 89.3321 62.1033C89.4091 61.9717 89.4833 61.8458 89.5347 61.7142C89.6888 61.3308 89.6574 60.8673 89.4519 60.5096C89.4006 60.4209 89.432 60.3093 89.5204 60.2578C89.6089 60.2063 89.7201 60.2378 89.7715 60.3265C90.034 60.7872 90.074 61.3594 89.8742 61.8515C89.8115 62.0089 89.7287 62.152 89.646 62.2893C89.6003 62.3694 89.5547 62.4438 89.5147 62.521C89.392 62.7557 89.3492 62.9502 89.3777 63.1162C89.4063 63.2707 89.5375 63.4338 89.6916 63.4309C89.7915 63.4281 89.8771 63.5082 89.8799 63.6112C89.8856 63.6798 89.8485 63.7428 89.7915 63.7743Z" fill="#B0C98F"/>
<path d="M63.0872 75.4623L70.2919 99.9628C70.7171 101.408 70.9339 102.907 70.9339 104.415V127.465H61.6606C60.7104 116.878 62.1371 103.811 62.1371 103.811L52.6269 85.6911V127.465H42.5432C41.1166 114.684 43.5904 103.144 43.5904 103.144C40.3576 85.5967 41.4019 78.9673 42.4719 75.4623H63.0872Z" fill="#454F6B"/>
<path d="M52.624 85.691C56.0594 85.8341 58.1281 85.0845 58.1281 85.0845C56.2849 86.7897 53.3773 87.1274 53.3773 87.1274L52.624 85.691Z" fill="#422C4F"/>
<path d="M69.6016 126.034H69.3163V103.96C69.3163 102.864 69.1565 101.774 68.8455 100.724L61.6123 76.4608L61.8862 76.3778L69.1194 100.641C69.4419 101.719 69.6045 102.835 69.6045 103.96V126.034H69.6016Z" fill="#797C99"/>
<path d="M52.6241 85.6911C52.1077 85.6596 51.5855 85.5137 51.0776 85.2991V86.9071C51.4286 87.0587 51.6569 87.1245 51.6569 87.1245L51.0776 88.8784V95.299L52.6241 99.6022V85.6911Z" fill="#422C4F"/>
<path d="M47.3228 82.0802C47.4997 84.8041 49.5797 86.1946 50.7953 86.7783V85.1732C49.0947 84.3549 47.6395 82.7955 47.3228 82.0802Z" fill="#422C4F"/>
<path d="M50.7213 89.9657C50.2362 91.4306 50.2562 93.0157 50.7784 94.4663L50.7926 94.5093V89.7454L50.7213 89.9657Z" fill="#422C4F"/>
<path d="M51.0778 86.907C50.9894 86.8698 50.8952 86.8269 50.7925 86.7754V89.7425L51.0778 88.8784V86.907Z" fill="#797C99"/>
<path d="M50.7925 126.034H51.0778V95.3018L50.7925 94.5093V126.034Z" fill="#797C99"/>
<path d="M51.0778 85.2991C50.9808 85.2591 50.8866 85.219 50.7925 85.1732V86.7783C50.8952 86.827 50.9894 86.8699 51.0778 86.91V85.2991Z" fill="#454F6B"/>
<path d="M50.7925 89.7453V94.5092L51.0778 95.3018V88.8812L50.7925 89.7453Z" fill="#454F6B"/>
<path d="M57.7345 77.7083C57.7345 77.7083 57.7773 78.1146 57.8172 78.7555C59.806 78.5123 61.7748 78.106 63.6923 77.5223L63.0874 75.4623H42.472C42.3265 75.9401 42.181 76.4751 42.0469 77.0874C42.1924 77.1389 42.3408 77.1819 42.4891 77.2305C42.5063 77.1361 42.5234 77.0388 42.5434 76.9444C43.8359 77.2019 45.1114 77.3564 46.3782 77.3907C46.3782 77.3907 46.3583 77.7283 46.3155 78.2634C47.939 78.6039 49.5882 78.8299 51.246 78.9386C51.286 78.4723 51.3373 78.0116 51.403 77.5538C53.5059 77.7684 55.623 77.8199 57.7345 77.7083Z" fill="#422C4F"/>
<path d="M51.2429 78.9415C51.1231 80.312 51.1116 81.7054 51.2087 83.0616C52.1988 83.7111 53.2916 84.3577 54.4158 84.724C55.4858 84.3291 56.6471 83.9314 57.7171 83.5366C57.9454 81.8485 57.8855 79.9171 57.8141 78.7555C55.637 79.0216 53.4343 79.0845 51.2429 78.9415Z" fill="#797C99"/>
<path d="M57.8172 78.7556C57.7773 78.1146 57.7345 77.7083 57.7345 77.7083C55.623 77.8199 53.5059 77.7713 51.4001 77.5596C51.3345 78.0174 51.2831 78.4809 51.2432 78.9444C53.4345 79.0846 55.6373 79.0216 57.8172 78.7556Z" fill="#454F6B"/>
<path d="M41.9126 82.0001C42.4405 82.641 43.0254 83.2877 43.6617 83.6854C44.3351 83.4021 45.0627 83.1217 45.7361 82.8384C46.0442 81.2877 46.2268 79.3649 46.3153 78.272C45.0199 78.0001 43.7444 77.6539 42.489 77.2362C42.1951 78.7555 42.0011 80.4665 41.9126 82.0001Z" fill="#797C99"/>
<path d="M42.543 76.9473C42.523 77.0417 42.5059 77.1361 42.4888 77.2334C43.7442 77.6511 45.0225 77.9973 46.3151 78.2691C46.3579 77.7341 46.3779 77.3965 46.3779 77.3965C45.111 77.3593 43.8355 77.2048 42.543 76.9473Z" fill="#454F6B"/>
<path d="M73.1709 130.646L72.994 130.581C71.9554 130.183 71.0708 129.465 70.4688 128.526L69.7897 127.468H64.5481C64.5481 127.468 63.4524 130.143 63.7149 133.047H75.8958C75.3137 131.962 74.3579 131.101 73.1709 130.646Z" fill="#422C4F"/>
<path d="M63.7148 133.044C63.7719 133.694 63.8975 134.354 64.12 134.998H76.4949C76.4264 134.3 76.2153 133.639 75.8957 133.044H63.7148Z" fill="white"/>
<path d="M52.8496 130.646L52.6727 130.581C51.6341 130.183 50.7495 129.465 50.1475 128.526L49.4684 127.468H44.2268C44.2268 127.468 43.1311 130.143 43.3936 133.047H55.5745C54.9924 131.962 54.0366 131.101 52.8496 130.646Z" fill="#422C4F"/>
<path d="M43.3906 133.044C43.4477 133.694 43.5732 134.354 43.7958 134.998H56.1736C56.1051 134.3 55.8939 133.639 55.5744 133.044H43.3906Z" fill="white"/>
<path d="M84.7581 51.4425C84.7581 51.3109 84.8038 51.1822 84.8894 51.082L85.0149 50.9332C84.5584 51.0334 84.1104 51.0706 83.7709 51.0877C83.7338 51.1707 83.7109 51.2623 83.7109 51.3538C83.7109 51.7115 83.9991 52.0005 84.3558 52.0005H85.3145C85.0092 52.0005 84.7581 51.7515 84.7581 51.4425Z" fill="#EBA58E"/>
<path d="M83.711 51.3539C83.711 51.2594 83.7339 51.1707 83.771 51.0878C83.6711 51.0935 83.5798 51.0964 83.5027 51.0992L83.0576 52.0034H84.3559C84.0021 52.0005 83.711 51.7115 83.711 51.3539Z" fill="#EBA58E"/>
<path d="M88.1451 49.4397L87.1407 47.557C86.8525 47.0191 86.2933 46.6843 85.6855 46.6843H83.8679C82.4698 46.6843 81.1944 47.4797 80.5752 48.7358L79.8248 50.2608L73.6901 57.3194L70.5029 53.7916L65.5581 58.2751L70.055 63.1277C72.4289 65.6884 76.6262 65.0733 78.1698 61.9374L83.0576 52.0033L83.5027 51.0992C83.5798 51.0963 83.6711 51.0934 83.7709 51.0877C84.1105 51.0706 84.5585 51.0334 85.015 50.9332C85.657 50.793 86.3047 50.5326 86.6671 50.0377L85.8824 51.0849C85.8082 51.185 85.7683 51.3052 85.7683 51.4282C85.7683 51.7429 86.0251 52.0004 86.3389 52.0004H86.3703C86.6813 52.0004 86.9781 51.8631 87.1778 51.6228L88.0196 50.6156C88.2992 50.2866 88.3477 49.8202 88.1451 49.4397Z" fill="#F2C9AD"/>
<path d="M85.7713 51.4281C85.7713 51.3051 85.8113 51.1849 85.8854 51.0848L86.6701 50.0376C86.3077 50.5326 85.66 50.793 85.018 50.9332L84.8925 51.0819C84.8069 51.1821 84.7612 51.3108 84.7612 51.4424C84.7612 51.7515 85.0095 52.0004 85.3176 52.0004H86.342C86.0253 52.0004 85.7713 51.7457 85.7713 51.4281Z" fill="#EBA58E"/>
<path d="M71.2934 54.6642C71.2534 58.0118 67.3786 60.235 67.3786 60.235L65.561 58.2722L70.5059 53.7887L71.2934 54.6642Z" fill="#422C4F"/>
<path d="M75.8956 59.76L73.6899 57.3166L74.0209 56.936C76.412 57.391 75.8956 59.76 75.8956 59.76Z" fill="#EBA58E"/>
<path d="M49.7676 43.3939H58.904C61.7887 43.3939 64.5137 44.7101 66.3141 46.9676L71.5985 53.597C70.5998 56.8874 65.5123 59.7486 65.5123 59.7486L63.087 57.1248V65.8744C63.087 68.4008 63.2496 70.9216 63.5749 73.4251L63.943 76.2463C54.527 78.3922 41.687 76.2463 41.687 76.2463L42.0465 72.6039C42.2349 70.6955 42.329 68.7757 42.329 66.8586V60.255C42.329 56.2407 42.7684 52.2408 43.6358 48.3238C44.275 45.4454 46.823 43.3939 49.7676 43.3939Z" fill="#367743"/>
<path d="M61.746 75.3106C60.422 75.4737 58.8955 75.6339 57.2663 75.7226C55.637 75.8141 53.905 75.8342 52.1759 75.7655C50.4468 75.694 48.7234 75.528 47.1055 75.302C45.4877 75.0788 43.9811 74.7927 42.6743 74.5209C43.9241 74.993 45.4078 75.4365 47.0256 75.7655C48.6435 76.0974 50.3926 76.3177 52.1502 76.3921C53.9079 76.4636 55.6684 76.3892 57.3091 76.1918C58.9469 75.9973 60.4648 75.6768 61.746 75.3106Z" fill="#1D3C32"/>
<path d="M44.3979 72.644C45.7362 72.8729 47.3198 72.9759 49.0061 72.85C50.6895 72.7298 52.4672 72.3836 54.1763 71.8142C55.8826 71.242 57.5119 70.4494 58.9328 69.5339C60.3538 68.6211 61.5607 67.5854 62.4966 66.5983C61.4181 67.428 60.1341 68.3179 58.6874 69.1218C57.2437 69.9287 55.6372 70.6497 53.9766 71.2077C52.3131 71.7599 50.5982 72.149 48.9604 72.375C47.3169 72.6011 45.759 72.6612 44.3979 72.644Z" fill="#1D3C32"/>
<path d="M43.228 67.488C43.9642 67.9659 44.8658 68.4465 45.8759 68.8528C46.886 69.2591 48.0017 69.5882 49.1401 69.797C50.2786 70.0059 51.4399 70.0975 52.527 70.0774C53.6142 70.0603 54.6271 69.9315 55.4859 69.7484C53.7369 69.8542 51.4513 69.8113 49.2172 69.3907C46.9745 68.9873 44.8259 68.2119 43.228 67.488Z" fill="#1D3C32"/>
<path d="M60.5903 44.6271C60.0425 44.8388 59.4518 45.2279 58.9582 45.7859C58.4617 46.3409 58.068 47.0648 57.8853 47.8516C57.7027 48.6356 57.7313 49.4596 57.9281 50.1807C58.1222 50.9017 58.4788 51.5168 58.8755 51.9489C58.6358 51.411 58.4303 50.7815 58.339 50.0977C58.2449 49.4139 58.2648 48.6814 58.4303 47.9833C58.5958 47.2823 58.904 46.6185 59.2892 46.0491C59.6715 45.474 60.1366 45.0019 60.5903 44.6271Z" fill="#1D3C32"/>
<path d="M63.087 57.1276L59.312 53.0447C59.9455 60.1347 63.087 64.4838 63.087 64.4838V57.1276Z" fill="#1D3C32"/>
<path d="M50.2929 39.9118L48.4211 34.1207C47.1628 30.2238 50.0589 26.2267 54.1449 26.2267C57.8742 26.2267 60.7047 29.5915 60.077 33.2767L59.2894 37.9004C59.0926 39.062 58.0882 39.9118 56.9098 39.9118H55.5687V43.3939H50.1959L50.2929 39.9118Z" fill="#F2C9AD"/>
<path d="M55.2975 37.0992L56.1421 37.2909C56.7013 37.8632 57.4746 37.3739 57.4746 37.3739C56.9981 38.1121 56.1421 38.0549 56.1421 38.0549C55.5372 39.5942 53.5712 40.4812 53.5712 40.4812L53.6197 39.6171C52.4442 40.6414 50.6722 40.3839 50.6722 40.3839L50.8634 39.9633L50.2842 40.2866L50.2956 39.9175V36.8904L55.2975 37.0992Z" fill="#EBA58E"/>
<path d="M58.322 35.806C58.3477 35.1279 58.3706 34.4212 58.0053 33.8232C57.8883 33.6315 57.7257 33.4656 57.5317 33.3511C56.8269 32.9305 56.2248 33.3282 55.8596 33.8289C55.4887 34.3382 55.3089 34.982 55.3603 35.6115C55.4116 36.2409 55.6941 36.8475 56.1421 37.2881C55.7198 38.5985 54.7896 39.8432 53.5712 40.4755C53.577 39.9977 53.6454 39.5055 53.6511 39.0277C52.8408 39.7316 51.7423 40.3267 50.6723 40.3782C50.8092 40.0435 51.0061 39.6772 51.1431 39.3453C50.4526 39.8289 49.6137 40.1093 48.7719 40.1407C49.1115 39.806 49.3826 39.4083 49.5224 38.9533C47.3253 36.7559 46.0499 33.663 45.8045 30.5614C45.7217 29.5114 45.7816 28.3955 46.3466 27.5114C46.9144 26.6273 48.1214 26.0865 49.0573 26.5643C49.14 25.5972 50.19 24.6759 51.1117 24.3755C52.0333 24.0751 53.0291 24.1495 53.9935 24.2496C54.958 24.3498 55.9424 24.4671 56.8868 24.241C57.5345 24.0865 58.1566 23.7718 58.8242 23.7661C59.7544 23.7575 60.619 24.3955 61.0299 25.2339C61.4379 26.0722 61.435 27.0708 61.1668 27.9635C60.8986 28.8562 60.3907 29.6602 59.82 30.3955C59.977 30.8447 59.9427 31.3282 59.7858 31.7774C59.6289 32.2267 59.315 32.6158 58.9127 32.8676L58.8927 34.2352C58.8813 34.8103 58.6816 35.3625 58.322 35.806Z" fill="#8E5A61"/>
<path d="M57.389 35.3196C57.1864 35.2596 56.9667 35.3912 56.8611 35.5743C56.7555 35.7574 56.7384 35.9749 56.7355 36.1866C56.7355 36.2925 56.7384 36.3983 56.7755 36.4956C56.8154 36.5929 56.8953 36.6787 57.0009 36.693C57.0951 36.7045 57.1864 36.6587 57.252 36.59C57.3176 36.5213 57.3547 36.4355 57.3918 36.3468C57.6258 35.7689 57.7114 35.1279 57.6315 34.5099C57.6087 34.3411 57.5716 34.1666 57.4574 34.0435C57.3148 33.8862 57.0751 33.8461 56.8725 33.9091C56.6699 33.972 56.5073 34.1237 56.3903 34.3011C56.2733 34.4756 56.1963 34.6759 56.1221 34.8733C56.1963 34.7302 56.3389 34.5671 56.4416 34.4441C56.5444 34.3211 56.6756 34.2152 56.8325 34.178C56.9866 34.1408 57.1664 34.178 57.2748 34.2953C57.369 34.3983 57.3975 34.5471 57.4089 34.6873C57.4203 34.8819 57.4232 35.1251 57.389 35.3196Z" fill="#EBA58E"/>
<path d="M148.299 73.4852L144.761 91.8742C144.071 95.4621 143.754 99.113 143.822 102.767C143.928 108.332 143.828 117.885 142.496 128.326H153.909C155.812 114.4 153.244 99.0472 153.244 99.0472L158.76 83.405L161.422 100.381C161.328 113.923 158.948 128.326 158.948 128.326H171.217C171.882 113.067 169.505 99.8083 169.505 99.8083C171.694 85.0244 172.595 83.3421 172.595 75.179C164.346 68.1548 148.299 73.4852 148.299 73.4852Z" fill="#F0BF6C"/>
<path d="M172.596 76.0718C172.598 75.7828 172.598 75.4852 172.598 75.179C164.347 68.1548 148.297 73.4852 148.297 73.4852L147.829 75.9115C155.658 79.1189 164.723 79.159 172.596 76.0718Z" fill="#E8916A"/>
<path d="M158.203 79.8486L158.76 83.4022L153.592 98.0544V91.7082C153.592 90.9186 153.878 90.1575 154.394 89.5623C154.993 88.8728 155.279 87.9658 155.176 87.0559L155.073 86.1403C154.928 84.8299 155.584 83.5624 156.734 82.9244L157.544 82.4751L155.538 81.4852C153.801 80.6268 152.251 79.4337 150.981 77.9688L158.203 79.8486Z" fill="#E8916A"/>
<path d="M158.203 79.8485L167.462 78.8728L166.492 79.5624C164.238 81.1646 161.29 81.3907 158.819 80.1575L158.203 79.8485Z" fill="#E8916A"/>
<path d="M149.621 98.309C148.362 99.8368 146.844 101.147 145.149 102.169C145.863 102.398 146.665 102.326 147.298 101.931C147.897 101.556 148.319 100.956 148.659 100.335C149.001 99.711 149.224 98.8955 149.621 98.309Z" fill="#E8916A"/>
<path d="M168.521 98.0515C167.907 99.9599 166.478 101.585 164.669 102.438C165.288 102.601 165.996 102.87 166.572 102.592C167.029 102.372 167.325 101.923 167.565 101.474C168.104 100.449 168.37 99.1989 168.521 98.0515Z" fill="#E8916A"/>
<path d="M162.683 97.422C163.123 98.5808 163.776 99.6566 164.601 100.575C163.959 100.438 163.396 100.02 163.026 99.4763C162.66 98.9384 162.578 98.0715 162.683 97.422Z" fill="#E8916A"/>
<path d="M151.672 40.2952C150.416 39.4827 149.555 38.0807 149.392 36.59C149.229 35.0993 149.772 33.5457 150.824 32.4813C149.566 31.7174 148.759 30.281 148.739 28.8075C148.719 27.334 149.498 25.8748 150.733 25.0736C150.214 23.8262 150.014 22.3555 150.562 21.1195C151.11 19.8863 152.488 18.9821 153.806 19.2568C153.86 17.8234 154.722 16.3241 156.049 15.7833C157.376 15.2426 159.002 15.5544 160.038 16.5473C161.901 15.0594 164.777 15.0079 166.783 16.2926C168.789 17.5773 169.839 20.1982 169.277 22.5186C170.401 22.9277 171.314 23.8347 171.622 24.9935C171.933 26.1523 171.645 27.4542 170.878 28.3755C172.447 28.9849 173.554 30.8132 173.391 32.4927C173.229 34.1723 171.856 35.6601 170.199 35.9548C170.724 37.2824 170.17 39.0334 169.02 39.8718C167.87 40.7101 166.321 40.8618 164.934 40.547C163.177 42.1579 160.974 43.0878 158.594 43.0248C156.22 42.959 153.672 41.5914 151.672 40.2952Z" fill="#422C4F"/>
<path d="M142.707 62.5354C141.023 62.6097 139.46 61.6684 138.735 60.1434L131.719 45.3567C129.393 45.102 127.151 44.2151 125.159 42.9762C124.885 42.8045 124.734 42.4898 124.768 42.1665C124.854 41.3367 125.07 40.5041 125.41 39.7373C125.638 39.2223 126.28 39.0649 126.723 39.4083C127.35 39.8975 128.038 40.2809 128.794 40.6042C128.001 40.0406 127.327 39.2709 126.72 38.4898C126.54 38.2581 126.574 37.9262 126.797 37.7373L126.805 37.7316C127.028 37.5399 127.362 37.5571 127.561 37.7745C128.589 38.8904 129.816 39.826 131.205 40.424C130.974 39.6114 130.82 38.7931 130.734 37.9633C130.669 37.3053 131.177 36.733 131.836 36.733C132.515 39.5599 134.618 40.9905 134.464 43.8746L141.976 54.4839L144.385 49.0648L150.148 51.8087L146.331 60.1033C145.666 61.5253 144.271 62.4638 142.707 62.5354Z" fill="#BD6C67"/>
<path d="M144.382 49.0591L150.146 51.803L146.89 58.8759C144.59 55.1735 145.78 51.597 145.994 51.1678L144.179 49.5169L144.382 49.0591Z" fill="#422C4F"/>
<path d="M141.974 54.4811L143.931 57.2479C144.208 54.0062 142.131 54.1235 142.131 54.1235L141.974 54.4811Z" fill="#8C404C"/>
<path d="M151.698 39.2681C150.074 39.4998 148.642 40.4497 147.789 41.8517L143.631 48.7015L147.098 50.3524L151.698 39.2681Z" fill="#6D9B7C"/>
<path d="M146.208 49.9289C147.56 46.5641 148.454 45.062 149.701 44.0778L147.095 50.3524L146.208 49.9289Z" fill="#547374"/>
<path d="M156.529 41.3369C157.447 41.9778 158.646 42.1494 159.742 41.912C160.834 41.6745 161.824 41.0565 162.618 40.2668C163.017 39.8691 163.371 39.4256 163.691 38.9592L161.511 38.4499V33.9807L157.196 34.9106V38.4871L155.136 38.7818C155.142 39.7804 155.701 40.7589 156.529 41.3369Z" fill="#BD6C67"/>
<path d="M157.19 36.7302C158.529 37.6229 160.341 36.5127 161.505 35.4598V33.9749L157.19 34.9047V36.7302Z" fill="#8C404C"/>
<path d="M168.176 61.943C168.176 56.5068 171.314 44.6328 168.39 40.0548L163.685 38.9561C163.368 39.4254 163.014 39.866 162.612 40.2637C161.819 41.0534 160.828 41.6714 159.736 41.9089C158.643 42.1464 157.441 41.9747 156.523 41.3338C155.695 40.7558 155.139 39.7773 155.127 38.7759L151.695 39.268L146.702 51.2936C145.991 53.0075 146.545 54.9875 148.043 56.0776C149.201 56.9216 149.823 58.3208 149.669 59.7485C149.23 63.8372 148.262 72.1976 147.412 75.1761C160.537 79.5394 172.593 75.1761 172.593 75.1761C172.598 71.0274 168.176 67.3793 168.176 61.943Z" fill="#80AF12"/>
<path d="M162.577 57.1162H150.414C150.473 56.7299 150.939 56.5869 151.327 56.604C151.718 56.6212 152.103 56.7614 152.488 56.7042C153.09 56.6155 153.512 56.0861 153.943 55.6541C154.374 55.2221 155.01 54.8329 155.561 55.0962C156.1 55.3537 156.226 56.0861 156.694 56.4581C157.079 56.7614 157.624 56.7642 158.098 56.6441C158.571 56.521 159.014 56.2922 159.487 56.1748C160.529 55.9087 161.81 56.3637 162.577 57.1162Z" fill="#547374"/>
<path d="M169.545 44.0806H163.419L164.754 60.3322L154.411 63.3765C154.411 63.3765 151.532 60.5182 149.58 60.6298C149.458 61.7456 149.307 63.0704 149.138 64.4752C151.392 68.3865 154.103 67.3851 154.103 67.3851L166.227 70.2463C167.83 70.6239 169.397 70.3435 170.687 69.6111C169.491 67.3393 168.178 64.9101 168.178 61.9488C168.176 57.7256 170.065 49.6342 169.545 44.0806Z" fill="#547374"/>
<path d="M167.773 39.9118C169.973 40.4269 171.68 42.1665 172.159 44.3811L173.788 51.9318L164.991 52.6471L163.419 44.0806C163.074 42.198 164.255 40.3725 166.11 39.9204C166.655 39.786 167.226 39.7831 167.773 39.9118Z" fill="#6D9B7C"/>
<path d="M165.61 52.5955L166.986 61.6598L154.194 64.2835L151.504 61.1505C151.064 60.6384 150.456 60.2922 149.786 60.2121C147.811 59.9803 146.633 61.6627 146.633 61.6627C146.967 62.0518 147.515 62.1949 147.985 61.9917C148.665 61.6999 149.272 61.6999 149.272 61.6999C147.994 62.1319 147.218 62.6498 146.759 63.0675C146.353 63.4366 146.151 63.9774 146.222 64.521L146.35 65.5139C146.445 66.2463 147.341 66.5467 147.857 66.0203C148.545 65.3164 149.053 65.1619 149.053 65.1619C150.63 68.1032 153.803 66.7098 153.803 66.7098L167.117 68.5439C170.513 69.0131 173.449 66.1662 173.095 62.7471L171.996 52.0834L165.61 52.5955Z" fill="#BD6C67"/>
<path d="M166.989 61.657L170.353 63.3737C169.354 60.6213 168.15 61.0218 166.897 61.0533L166.989 61.657Z" fill="#8C404C"/>
<path d="M165.61 52.5956L171.996 52.0748L172.05 52.5956L165.899 54.4811L165.61 52.5956Z" fill="#422C4F"/>
<path d="M164.118 31.105C163.262 30.1208 162.897 28.61 163.313 27.374C162.492 26.7932 161.664 26.2066 160.962 25.4828C160.263 24.7589 159.73 23.8776 159.521 22.8905C158.32 24.3154 156.58 25.2596 154.739 25.5171C154.722 25.5343 154.705 25.5486 154.688 25.5657L154.283 27.497C153.917 29.2424 153.935 31.0478 154.334 32.7874L154.368 32.9419C154.545 33.7144 154.93 34.4383 155.512 34.9734C156.505 35.8861 157.869 36.1865 159.11 35.8346L160.717 35.3797C161.647 35.1164 162.483 34.63 163.171 33.9834C163.148 32.9419 163.47 31.8489 164.118 31.105Z" fill="#BD6C67"/>
<path d="M162.095 29.1737L159.202 28.0979C159.624 27.7431 160.323 27.7288 160.828 27.9519C161.333 28.178 161.81 28.7016 162.095 29.1737Z" fill="#422C4F"/>
<path d="M160.183 29.8947C160.078 30.1808 159.798 30.3382 159.558 30.2495C159.319 30.1608 159.21 29.8575 159.316 29.5714C159.421 29.2853 159.701 29.1279 159.941 29.2166C160.18 29.3053 160.289 29.6086 160.183 29.8947Z" fill="#422C4F"/>
<path d="M154.699 26.427L156.348 27.0393C156.368 26.5357 156.109 26.1666 155.803 26.0865C155.498 26.0092 155.05 26.1895 154.699 26.427Z" fill="#422C4F"/>
<path d="M155.059 27.9892C154.953 28.2753 154.979 28.5471 155.116 28.5986C155.253 28.6501 155.447 28.4584 155.552 28.1752C155.658 27.8891 155.632 27.6172 155.495 27.5657C155.361 27.5142 155.164 27.7059 155.059 27.9892Z" fill="#422C4F"/>
<path d="M157.187 31.1165L155.561 30.5128C155.587 30.8533 155.821 31.1852 156.135 31.3197C156.451 31.4513 156.925 31.3368 157.187 31.1165Z" fill="#8C404C"/>
<path d="M159.507 32.7273C158.218 32.6443 156.928 32.5614 155.638 32.4784C155.804 32.9505 156.215 33.3224 156.68 33.5056C157.145 33.6887 157.67 33.6887 158.152 33.5513C158.634 33.4169 159.128 33.0535 159.507 32.7273Z" fill="white"/>
<path d="M164.629 131.728C166.564 131.911 168.635 131.476 170.407 130.598C170.07 129.147 169.554 128.326 169.554 128.326H160.977C160.803 128.635 160.603 128.927 160.38 129.201C162.081 129.33 163.727 130.269 164.629 131.728Z" fill="#BD6C67"/>
<path d="M164.629 131.728C163.727 130.269 162.081 129.333 160.383 129.201C159.781 129.948 159.019 130.563 158.152 130.972C157.15 131.447 156.032 131.653 155.062 132.188C154.092 132.723 153.364 133.905 153.552 135.001H170.552C170.821 133.216 170.667 131.719 170.407 130.598C168.635 131.476 166.563 131.911 164.629 131.728Z" fill="white"/>
<path d="M160.977 128.323H169.554C165.322 130.612 160.977 128.323 160.977 128.323Z" fill="#422C4F"/>
<path d="M147.033 131.728C148.967 131.911 151.039 131.476 152.811 130.598C152.474 129.147 151.958 128.326 151.958 128.326H143.381C143.206 128.635 143.007 128.927 142.784 129.201C144.488 129.33 146.131 130.269 147.033 131.728Z" fill="#BD6C67"/>
<path d="M147.033 131.728C146.131 130.269 144.485 129.333 142.787 129.201C142.185 129.948 141.423 130.563 140.556 130.972C139.554 131.447 138.436 131.653 137.465 132.188C136.495 132.723 135.768 133.905 135.956 135.001H152.956C153.224 133.216 153.07 131.719 152.811 130.598C151.042 131.476 148.97 131.911 147.033 131.728Z" fill="white"/>
<path d="M143.383 128.323H151.96C147.729 130.612 143.383 128.323 143.383 128.323Z" fill="#422C4F"/>
</g>
<defs>
<clipPath id="clip0_698_361">
<rect width="214" height="145" fill="white" transform="translate(0 0.781982)"/>
</clipPath>
</defs>
</svg>
