<svg width="78" height="79" viewBox="0 0 78 79" fill="none" xmlns="http://www.w3.org/2000/svg">
<g clip-path="url(#clip0_437_308)">
<path d="M38.9999 15.8945L45.8249 26.6195L38.0249 31.982L44.3624 33.4445L58.0124 36.3695L60.9374 23.207L62.8874 16.382L54.1124 21.7445L44.3624 5.65698H33.6374L20.9624 26.6195L29.2499 31.4945L38.9999 15.8945Z" fill="#85BA09"/>
<path d="M78 59.2821L64.8375 38.3196L56.55 43.1946L66.3 59.2821H53.625V49.5321L39 64.1571L53.625 78.7821V69.0321H71.6625L78 59.2821Z" fill="#85BA09"/>
<path d="M11.7 59.282L18.525 48.0695L26.8125 53.432L22.425 32.957L8.775 36.3695L2.4375 37.832L10.2375 42.707L0 59.282L6.3375 69.032H34.125V59.282H11.7Z" fill="#85BA09"/>
</g>
<defs>
<clipPath id="clip0_437_308">
<rect width="78" height="78" fill="white" transform="translate(0 0.781982)"/>
</clipPath>
</defs>
</svg>
