<svg width="121" height="54" viewBox="0 0 121 54" fill="none" xmlns="http://www.w3.org/2000/svg">
<path d="M1.89844 10.31C1.89844 9.69329 2.10677 9.21829 2.52344 8.88496C2.9401 8.53496 3.5151 8.35996 4.24844 8.35996V16.935L13.3734 8.35996C13.6568 8.59329 13.8901 8.84329 14.0734 9.10996C14.2568 9.35996 14.3484 9.58496 14.3484 9.78496C14.3484 10.2016 14.0984 10.6433 13.5984 11.11L7.74844 16.61L15.2984 25.66C15.1151 25.86 14.8984 26.0183 14.6484 26.135C14.4151 26.2516 14.1818 26.31 13.9484 26.31C13.2984 26.31 12.7734 26.0766 12.3734 25.61L6.04844 18.11L4.24844 19.785V24.435C4.24844 25.0683 4.05677 25.5433 3.67344 25.86C3.2901 26.16 2.69844 26.31 1.89844 26.31V10.31ZM28.1219 26.31C26.7385 26.31 25.4969 26.0433 24.3969 25.51C23.3135 24.96 22.4635 24.21 21.8469 23.26C21.2302 22.2933 20.9219 21.2266 20.9219 20.06V14.56C20.9219 13.3933 21.2302 12.3433 21.8469 11.41C22.4635 10.46 23.3135 9.71829 24.3969 9.18496C25.4969 8.63496 26.7385 8.35996 28.1219 8.35996C29.5219 8.35996 30.7635 8.63496 31.8469 9.18496C32.9469 9.71829 33.8052 10.46 34.4219 11.41C35.0385 12.3433 35.3469 13.3933 35.3469 14.56V20.06C35.3469 21.2266 35.0385 22.2933 34.4219 23.26C33.8052 24.21 32.9469 24.96 31.8469 25.51C30.7469 26.0433 29.5052 26.31 28.1219 26.31ZM28.1219 24.26C29.6719 24.26 30.8802 23.8766 31.7469 23.11C32.6135 22.3433 33.0469 21.3183 33.0469 20.035V14.61C33.0469 13.3266 32.6135 12.31 31.7469 11.56C30.8802 10.7933 29.6719 10.41 28.1219 10.41C26.5885 10.41 25.3885 10.7933 24.5219 11.56C23.6552 12.31 23.2219 13.3266 23.2219 14.61V20.035C23.2219 21.3183 23.6552 22.3433 24.5219 23.11C25.3885 23.8766 26.5885 24.26 28.1219 24.26ZM43.2217 9.68496C43.2217 9.36829 43.33 9.10996 43.5467 8.90996C43.78 8.69329 44.0717 8.58496 44.4217 8.58496H51.3217C52.9383 8.58496 54.2217 9.05996 55.1717 10.01C56.1383 10.9433 56.6217 12.1933 56.6217 13.76C56.6217 15.7266 55.7633 17.1183 54.0467 17.935V18.01C54.7967 18.3266 55.3717 18.81 55.7717 19.46C56.1717 20.0933 56.3717 20.8683 56.3717 21.785V24.36C56.3717 24.9933 56.1717 25.4766 55.7717 25.81C55.3717 26.1433 54.7883 26.31 54.0217 26.31V21.935C54.0217 20.9516 53.7967 20.21 53.3467 19.71C52.9133 19.1933 52.2633 18.935 51.3967 18.935H45.5467V24.36C45.5467 24.9933 45.3467 25.4766 44.9467 25.81C44.5633 26.1433 43.9883 26.31 43.2217 26.31V9.68496ZM51.2467 16.91C52.1633 16.91 52.8883 16.6266 53.4217 16.06C53.9717 15.4933 54.2467 14.7183 54.2467 13.735C54.2467 12.735 53.9883 11.9683 53.4717 11.435C52.955 10.9016 52.2133 10.635 51.2467 10.635H45.5467V16.91H51.2467ZM69.2182 10.66H63.1182C63.1182 9.27663 63.7682 8.58496 65.0682 8.58496H77.6432C77.6432 9.96829 76.9932 10.66 75.6932 10.66H71.5682V24.36C71.5682 24.9933 71.3682 25.4766 70.9682 25.81C70.5682 26.1433 69.9848 26.31 69.2182 26.31V10.66ZM85.2773 9.68496C85.2773 9.36829 85.394 9.10996 85.6273 8.90996C85.8607 8.69329 86.144 8.58496 86.4773 8.58496H97.5523C97.5523 9.28496 97.4107 9.80163 97.1273 10.135C96.844 10.4683 96.4023 10.635 95.8023 10.635H87.6273V16.235H94.6273C94.6273 16.935 94.4857 17.4516 94.2023 17.785C93.919 18.1183 93.4857 18.285 92.9023 18.285H87.6273V24.035H96.3273C96.9107 24.035 97.344 24.2016 97.6273 24.535C97.9107 24.8683 98.0523 25.385 98.0523 26.085H86.4773C86.144 26.085 85.8607 25.985 85.6273 25.785C85.394 25.5683 85.2773 25.3016 85.2773 24.985V9.68496ZM105.967 26.31C105.45 26.31 105.017 26.135 104.667 25.785L110.892 17.06L104.992 8.78496C105.325 8.50163 105.734 8.35996 106.217 8.35996C106.567 8.35996 106.884 8.42663 107.167 8.55996C107.467 8.69329 107.7 8.87663 107.867 9.10996L112.067 15.135L111.492 15.91L111.667 16.035L116.517 9.10996C116.684 8.87663 116.909 8.69329 117.192 8.55996C117.492 8.42663 117.817 8.35996 118.167 8.35996C118.384 8.35996 118.6 8.40163 118.817 8.48496C119.05 8.55163 119.242 8.65163 119.392 8.78496L113.492 17.06L119.717 25.785C119.367 26.135 118.934 26.31 118.417 26.31C118.117 26.31 117.834 26.235 117.567 26.085C117.317 25.9516 117.1 25.76 116.917 25.51L112.192 18.81L107.467 25.51C107.284 25.76 107.059 25.9516 106.792 26.085C106.542 26.235 106.267 26.31 105.967 26.31Z" fill="white"/>
<path d="M35.2713 49.22C34.9413 49.22 34.7163 49.07 34.5963 48.77L30.7263 38.585C30.8063 38.545 30.9013 38.515 31.0113 38.495C31.1213 38.465 31.2213 38.45 31.3113 38.45C31.5913 38.45 31.8263 38.52 32.0163 38.66C32.2163 38.79 32.3613 38.975 32.4513 39.215L35.1963 46.88L34.9263 47.645L35.0463 47.69L38.0913 39.215C38.1813 38.975 38.3263 38.79 38.5263 38.66C38.7263 38.52 38.9663 38.45 39.2463 38.45C39.4163 38.45 39.6113 38.495 39.8313 38.585L35.9613 48.77C35.9113 48.91 35.8263 49.02 35.7063 49.1C35.5863 49.18 35.4413 49.22 35.2713 49.22ZM44.8764 40.325C44.5964 40.325 44.3614 40.235 44.1714 40.055C43.9814 39.875 43.8864 39.65 43.8864 39.38C43.8864 39.11 43.9814 38.89 44.1714 38.72C44.3614 38.54 44.5964 38.45 44.8764 38.45C45.1464 38.45 45.3764 38.54 45.5664 38.72C45.7564 38.89 45.8514 39.11 45.8514 39.38C45.8514 39.65 45.7564 39.875 45.5664 40.055C45.3764 40.235 45.1464 40.325 44.8764 40.325ZM44.2164 42.41C44.2164 42.08 44.3214 41.84 44.5314 41.69C44.7514 41.53 45.0814 41.45 45.5214 41.45V48.26C45.5214 48.59 45.4114 48.835 45.1914 48.995C44.9814 49.145 44.6564 49.22 44.2164 49.22V42.41ZM51.1237 49.085C50.9637 49.085 50.8337 49.03 50.7337 48.92C50.6337 48.8 50.5837 48.665 50.5837 48.515C50.5837 48.395 50.6237 48.285 50.7037 48.185L55.5787 42.26L55.5187 42.215L55.1587 42.62H51.6787C51.3887 42.62 51.1637 42.525 51.0037 42.335C50.8537 42.145 50.7787 41.895 50.7787 41.585H56.4187C56.5887 41.585 56.7187 41.635 56.8087 41.735C56.9087 41.835 56.9587 41.96 56.9587 42.11C56.9587 42.25 56.9137 42.38 56.8237 42.5L51.9787 48.38L52.0537 48.44L52.3837 48.05H56.1037C56.3937 48.05 56.6137 48.145 56.7637 48.335C56.9237 48.525 57.0037 48.775 57.0037 49.085H51.1237ZM62.0765 52.205C61.4565 52.205 61.1315 51.845 61.1015 51.125C61.4015 51.165 61.6165 51.185 61.7465 51.185C62.1865 51.185 62.5365 51.055 62.7965 50.795C63.0665 50.535 63.3415 50.085 63.6215 49.445L63.9215 48.77L60.9665 41.555C61.0365 41.525 61.1265 41.5 61.2365 41.48C61.3565 41.46 61.4565 41.45 61.5365 41.45C61.7465 41.46 61.9365 41.52 62.1065 41.63C62.2765 41.73 62.3965 41.865 62.4665 42.035L64.4765 47.165L64.2665 47.765L64.3565 47.81L66.6365 42.035C66.7065 41.855 66.8215 41.715 66.9815 41.615C67.1515 41.505 67.3415 41.45 67.5515 41.45C67.6415 41.45 67.7415 41.46 67.8515 41.48C67.9715 41.5 68.0615 41.525 68.1215 41.555L64.7465 49.82C64.4165 50.62 64.0465 51.215 63.6365 51.605C63.2265 52.005 62.7065 52.205 62.0765 52.205ZM74.7208 49.22C74.1108 49.22 73.5558 49.105 73.0558 48.875C72.5658 48.645 72.1808 48.335 71.9008 47.945C71.6308 47.545 71.4958 47.1 71.4958 46.61V44.15C71.4958 43.65 71.6308 43.195 71.9008 42.785C72.1808 42.375 72.5658 42.05 73.0558 41.81C73.5458 41.57 74.1008 41.45 74.7208 41.45C75.3408 41.45 75.8958 41.57 76.3858 41.81C76.8858 42.05 77.2708 42.375 77.5408 42.785C77.8208 43.195 77.9608 43.65 77.9608 44.15V46.61C77.9608 47.1 77.8208 47.545 77.5408 47.945C77.2608 48.335 76.8758 48.645 76.3858 48.875C75.8958 49.105 75.3408 49.22 74.7208 49.22ZM74.7208 48.095C75.3208 48.095 75.7958 47.955 76.1458 47.675C76.5058 47.385 76.6858 47.01 76.6858 46.55V44.195C76.6858 43.715 76.5058 43.325 76.1458 43.025C75.7958 42.725 75.3208 42.575 74.7208 42.575C74.1308 42.575 73.6558 42.725 73.2958 43.025C72.9358 43.325 72.7558 43.715 72.7558 44.195V46.55C72.7558 47.01 72.9308 47.385 73.2808 47.675C73.6408 47.955 74.1208 48.095 74.7208 48.095ZM82.6931 42.56C82.6931 41.82 83.1131 41.45 83.9531 41.45V42.41C83.8631 42.5 83.7581 42.635 83.6381 42.815L83.6981 42.875C83.9981 42.455 84.3881 42.115 84.8681 41.855C85.3481 41.585 85.8681 41.45 86.4281 41.45C87.2381 41.45 87.8781 41.69 88.3481 42.17C88.8181 42.65 89.0531 43.27 89.0531 44.03V48.26C89.0531 48.59 88.9431 48.835 88.7231 48.995C88.5131 49.145 88.1881 49.22 87.7481 49.22V44.165C87.7481 43.685 87.6131 43.305 87.3431 43.025C87.0731 42.745 86.6631 42.605 86.1131 42.605C85.7431 42.605 85.3931 42.685 85.0631 42.845C84.7431 42.995 84.4831 43.205 84.2831 43.475C84.0931 43.735 83.9981 44.02 83.9981 44.33V48.26C83.9981 48.59 83.8881 48.835 83.6681 48.995C83.4581 49.145 83.1331 49.22 82.6931 49.22V42.56Z" fill="white"/>
</svg>
