<svg width="476" height="139" viewBox="0 0 476 139" fill="none" xmlns="http://www.w3.org/2000/svg">
<path d="M3.96 57.782V16.807H31.185V23.407H11.44V33.912H30.085V40.512H11.44V51.182H31.185V57.782H3.96ZM52.125 58.442C49.155 58.442 46.4783 57.7636 44.095 56.407C41.7483 55.0136 39.8966 53.1436 38.54 50.797C37.1833 48.4136 36.505 45.737 36.505 42.767C36.505 39.797 37.1833 37.1386 38.54 34.792C39.8966 32.4453 41.7483 30.5936 44.095 29.237C46.4783 27.8803 49.155 27.202 52.125 27.202C54.2516 27.202 56.2316 27.587 58.065 28.357C59.8983 29.0903 61.475 30.117 62.795 31.437C64.1516 32.7203 65.1233 34.2603 65.71 36.057L59.385 38.807C58.835 37.3036 57.9 36.0936 56.58 35.177C55.2966 34.2603 53.8116 33.802 52.125 33.802C50.5483 33.802 49.1366 34.187 47.89 34.957C46.68 35.727 45.7266 36.7903 45.03 38.147C44.3333 39.5036 43.985 41.062 43.985 42.822C43.985 44.582 44.3333 46.1403 45.03 47.497C45.7266 48.8536 46.68 49.917 47.89 50.687C49.1366 51.457 50.5483 51.842 52.125 51.842C53.8483 51.842 55.3516 51.3836 56.635 50.467C57.9183 49.5503 58.835 48.322 59.385 46.782L65.71 49.642C65.1233 51.3286 64.17 52.8503 62.85 54.207C61.53 55.527 59.9533 56.572 58.12 57.342C56.2866 58.0753 54.2883 58.442 52.125 58.442ZM111.841 46.012V39.687H135.216V46.012H111.841ZM145.589 57.782V16.807H172.924V23.407H153.069V34.737H170.449V41.337H153.069V57.782H145.589ZM177.196 57.782V27.862H183.961V34.517L183.411 33.527C184.107 31.2903 185.189 29.732 186.656 28.852C188.159 27.972 189.956 27.532 192.046 27.532H193.806V33.912H191.221C189.167 33.912 187.517 34.5536 186.271 35.837C185.024 37.0836 184.401 38.8436 184.401 41.117V57.782H177.196ZM199.417 57.782V27.862H206.622V57.782H199.417ZM199.417 24.507V16.807H206.622V24.507H199.417ZM229.115 58.442C226.035 58.442 223.34 57.7453 221.03 56.352C218.72 54.9586 216.923 53.0703 215.64 50.687C214.356 48.3036 213.715 45.6636 213.715 42.767C213.715 39.7603 214.356 37.102 215.64 34.792C216.96 32.4453 218.738 30.5936 220.975 29.237C223.248 27.8803 225.778 27.202 228.565 27.202C230.911 27.202 232.965 27.587 234.725 28.357C236.521 29.127 238.043 30.1903 239.29 31.547C240.536 32.9036 241.49 34.462 242.15 36.222C242.81 37.9453 243.14 39.8153 243.14 41.832C243.14 42.3453 243.103 42.877 243.03 43.427C242.993 43.977 242.901 44.4536 242.755 44.857H219.655V39.357H238.685L235.275 41.942C235.605 40.2553 235.513 38.752 235 37.432C234.523 36.112 233.716 35.067 232.58 34.297C231.48 33.527 230.141 33.142 228.565 33.142C227.061 33.142 225.723 33.527 224.55 34.297C223.376 35.0303 222.478 36.1303 221.855 37.597C221.268 39.027 221.048 40.7686 221.195 42.822C221.048 44.6553 221.286 46.287 221.91 47.717C222.57 49.1103 223.523 50.192 224.77 50.962C226.053 51.732 227.52 52.117 229.17 52.117C230.82 52.117 232.213 51.7686 233.35 51.072C234.523 50.3753 235.44 49.4403 236.1 48.267L241.93 51.127C241.343 52.557 240.426 53.822 239.18 54.922C237.933 56.022 236.448 56.8836 234.725 57.507C233.038 58.1303 231.168 58.442 229.115 58.442ZM250.251 57.782V27.862H257.016V33.747L256.466 32.702C257.163 30.9053 258.3 29.5486 259.876 28.632C261.49 27.6786 263.36 27.202 265.486 27.202C267.686 27.202 269.63 27.6786 271.316 28.632C273.04 29.5853 274.378 30.9236 275.331 32.647C276.285 34.3336 276.761 36.2953 276.761 38.532V57.782H269.556V40.237C269.556 38.917 269.3 37.7803 268.786 36.827C268.273 35.8736 267.558 35.1403 266.641 34.627C265.761 34.077 264.716 33.802 263.506 33.802C262.333 33.802 261.288 34.077 260.371 34.627C259.455 35.1403 258.74 35.8736 258.226 36.827C257.713 37.7803 257.456 38.917 257.456 40.237V57.782H250.251ZM298.419 58.442C295.522 58.442 292.937 57.7636 290.664 56.407C288.391 55.0136 286.594 53.1253 285.274 50.742C283.954 48.3586 283.294 45.7186 283.294 42.822C283.294 39.8886 283.954 37.2486 285.274 34.902C286.594 32.5553 288.391 30.6853 290.664 29.292C292.974 27.8986 295.541 27.202 298.364 27.202C300.637 27.202 302.654 27.6603 304.414 28.577C306.211 29.457 307.622 30.7036 308.649 32.317L307.549 33.802V16.147H314.754V57.782H307.934V52.007L308.704 53.437C307.677 55.0503 306.247 56.297 304.414 57.177C302.581 58.0203 300.582 58.442 298.419 58.442ZM299.189 51.842C300.839 51.842 302.287 51.457 303.534 50.687C304.781 49.917 305.752 48.8536 306.449 47.497C307.182 46.1403 307.549 44.582 307.549 42.822C307.549 41.0986 307.182 39.5586 306.449 38.202C305.752 36.8086 304.781 35.727 303.534 34.957C302.287 34.187 300.839 33.802 299.189 33.802C297.576 33.802 296.127 34.2053 294.844 35.012C293.561 35.782 292.552 36.8453 291.819 38.202C291.122 39.522 290.774 41.062 290.774 42.822C290.774 44.582 291.122 46.1403 291.819 47.497C292.552 48.8536 293.561 49.917 294.844 50.687C296.127 51.457 297.576 51.842 299.189 51.842ZM323.107 57.782V16.147H330.312V57.782H323.107ZM342.244 69.937C341.438 69.937 340.649 69.8636 339.879 69.717C339.109 69.607 338.413 69.4053 337.789 69.112V63.062C338.266 63.172 338.834 63.282 339.494 63.392C340.191 63.502 340.833 63.557 341.419 63.557C343.069 63.557 344.261 63.172 344.994 62.402C345.764 61.632 346.443 60.6236 347.029 59.377L349.009 54.757L348.899 60.807L335.864 27.862H343.619L352.749 52.172H349.999L359.074 27.862H366.884L353.849 60.807C353.079 62.7503 352.144 64.4003 351.044 65.757C349.944 67.1136 348.661 68.1403 347.194 68.837C345.764 69.5703 344.114 69.937 342.244 69.937Z" fill="#383838"/>
<path d="M3.96 126.782V85.807H19.195C21.9817 85.807 24.4383 86.3203 26.565 87.347C28.7283 88.337 30.415 89.8036 31.625 91.747C32.835 93.6536 33.44 95.982 33.44 98.732C33.44 101.555 32.7617 103.957 31.405 105.937C30.085 107.917 28.2883 109.384 26.015 110.337L35.42 126.782H26.95L16.885 108.797L21.725 111.657H11.44V126.782H3.96ZM11.44 105.057H19.305C20.6617 105.057 21.835 104.8 22.825 104.287C23.815 103.737 24.585 102.985 25.135 102.032C25.685 101.079 25.96 99.9786 25.96 98.732C25.96 97.4486 25.685 96.3486 25.135 95.432C24.585 94.4786 23.815 93.7453 22.825 93.232C21.835 92.682 20.6617 92.407 19.305 92.407H11.44V105.057ZM53.8923 127.442C50.8123 127.442 48.1173 126.745 45.8073 125.352C43.4973 123.959 41.7006 122.07 40.4173 119.687C39.1339 117.304 38.4923 114.664 38.4923 111.767C38.4923 108.76 39.1339 106.102 40.4173 103.792C41.7373 101.445 43.5156 99.5936 45.7523 98.237C48.0256 96.8803 50.5556 96.202 53.3423 96.202C55.6889 96.202 57.7423 96.587 59.5023 97.357C61.2989 98.127 62.8206 99.1903 64.0673 100.547C65.3139 101.904 66.2673 103.462 66.9273 105.222C67.5873 106.945 67.9173 108.815 67.9173 110.832C67.9173 111.345 67.8806 111.877 67.8073 112.427C67.7706 112.977 67.6789 113.454 67.5323 113.857H44.4323V108.357H63.4623L60.0523 110.942C60.3823 109.255 60.2906 107.752 59.7773 106.432C59.3006 105.112 58.4939 104.067 57.3573 103.297C56.2573 102.527 54.9189 102.142 53.3423 102.142C51.8389 102.142 50.5006 102.527 49.3273 103.297C48.1539 104.03 47.2556 105.13 46.6323 106.597C46.0456 108.027 45.8256 109.769 45.9723 111.822C45.8256 113.655 46.0639 115.287 46.6873 116.717C47.3473 118.11 48.3006 119.192 49.5473 119.962C50.8306 120.732 52.2973 121.117 53.9473 121.117C55.5973 121.117 56.9906 120.769 58.1273 120.072C59.3006 119.375 60.2173 118.44 60.8773 117.267L66.7073 120.127C66.1206 121.557 65.2039 122.822 63.9573 123.922C62.7106 125.022 61.2256 125.884 59.5023 126.507C57.8156 127.13 55.9456 127.442 53.8923 127.442ZM89.439 127.442C86.469 127.442 83.7924 126.764 81.409 125.407C79.0624 124.014 77.2107 122.144 75.854 119.797C74.4974 117.414 73.819 114.737 73.819 111.767C73.819 108.797 74.4974 106.139 75.854 103.792C77.2107 101.445 79.0624 99.5936 81.409 98.237C83.7924 96.8803 86.469 96.202 89.439 96.202C91.5657 96.202 93.5457 96.587 95.379 97.357C97.2124 98.0903 98.789 99.117 100.109 100.437C101.466 101.72 102.437 103.26 103.024 105.057L96.699 107.807C96.149 106.304 95.214 105.094 93.894 104.177C92.6107 103.26 91.1257 102.802 89.439 102.802C87.8624 102.802 86.4507 103.187 85.204 103.957C83.994 104.727 83.0407 105.79 82.344 107.147C81.6474 108.504 81.299 110.062 81.299 111.822C81.299 113.582 81.6474 115.14 82.344 116.497C83.0407 117.854 83.994 118.917 85.204 119.687C86.4507 120.457 87.8624 120.842 89.439 120.842C91.1624 120.842 92.6657 120.384 93.949 119.467C95.2324 118.55 96.149 117.322 96.699 115.782L103.024 118.642C102.437 120.329 101.484 121.85 100.164 123.207C98.844 124.527 97.2674 125.572 95.434 126.342C93.6007 127.075 91.6024 127.442 89.439 127.442ZM113.771 138.937C112.964 138.937 112.176 138.864 111.406 138.717C110.636 138.607 109.939 138.405 109.316 138.112V132.062C109.793 132.172 110.361 132.282 111.021 132.392C111.718 132.502 112.359 132.557 112.946 132.557C114.596 132.557 115.788 132.172 116.521 131.402C117.291 130.632 117.969 129.624 118.556 128.377L120.536 123.757L120.426 129.807L107.391 96.862H115.146L124.276 121.172H121.526L130.601 96.862H138.411L125.376 129.807C124.606 131.75 123.671 133.4 122.571 134.757C121.471 136.114 120.188 137.14 118.721 137.837C117.291 138.57 115.641 138.937 113.771 138.937ZM157.89 127.442C154.92 127.442 152.244 126.764 149.86 125.407C147.514 124.014 145.662 122.144 144.305 119.797C142.949 117.414 142.27 114.737 142.27 111.767C142.27 108.797 142.949 106.139 144.305 103.792C145.662 101.445 147.514 99.5936 149.86 98.237C152.244 96.8803 154.92 96.202 157.89 96.202C160.017 96.202 161.997 96.587 163.83 97.357C165.664 98.0903 167.24 99.117 168.56 100.437C169.917 101.72 170.889 103.26 171.475 105.057L165.15 107.807C164.6 106.304 163.665 105.094 162.345 104.177C161.062 103.26 159.577 102.802 157.89 102.802C156.314 102.802 154.902 103.187 153.655 103.957C152.445 104.727 151.492 105.79 150.795 107.147C150.099 108.504 149.75 110.062 149.75 111.822C149.75 113.582 150.099 115.14 150.795 116.497C151.492 117.854 152.445 118.917 153.655 119.687C154.902 120.457 156.314 120.842 157.89 120.842C159.614 120.842 161.117 120.384 162.4 119.467C163.684 118.55 164.6 117.322 165.15 115.782L171.475 118.642C170.889 120.329 169.935 121.85 168.615 123.207C167.295 124.527 165.719 125.572 163.885 126.342C162.052 127.075 160.054 127.442 157.89 127.442ZM178.592 126.782V85.147H185.797V126.782H178.592ZM208.29 127.442C205.21 127.442 202.515 126.745 200.205 125.352C197.895 123.959 196.098 122.07 194.815 119.687C193.531 117.304 192.89 114.664 192.89 111.767C192.89 108.76 193.531 106.102 194.815 103.792C196.135 101.445 197.913 99.5936 200.15 98.237C202.423 96.8803 204.953 96.202 207.74 96.202C210.086 96.202 212.14 96.587 213.9 97.357C215.696 98.127 217.218 99.1903 218.465 100.547C219.711 101.904 220.665 103.462 221.325 105.222C221.985 106.945 222.315 108.815 222.315 110.832C222.315 111.345 222.278 111.877 222.205 112.427C222.168 112.977 222.076 113.454 221.93 113.857H198.83V108.357H217.86L214.45 110.942C214.78 109.255 214.688 107.752 214.175 106.432C213.698 105.112 212.891 104.067 211.755 103.297C210.655 102.527 209.316 102.142 207.74 102.142C206.236 102.142 204.898 102.527 203.725 103.297C202.551 104.03 201.653 105.13 201.03 106.597C200.443 108.027 200.223 109.769 200.37 111.822C200.223 113.655 200.461 115.287 201.085 116.717C201.745 118.11 202.698 119.192 203.945 119.962C205.228 120.732 206.695 121.117 208.345 121.117C209.995 121.117 211.388 120.769 212.525 120.072C213.698 119.375 214.615 118.44 215.275 117.267L221.105 120.127C220.518 121.557 219.601 122.822 218.355 123.922C217.108 125.022 215.623 125.884 213.9 126.507C212.213 127.13 210.343 127.442 208.29 127.442ZM243.341 127.442C240.445 127.442 237.86 126.764 235.586 125.407C233.313 124.014 231.516 122.125 230.196 119.742C228.876 117.359 228.216 114.719 228.216 111.822C228.216 108.889 228.876 106.249 230.196 103.902C231.516 101.555 233.313 99.6853 235.586 98.292C237.896 96.8986 240.463 96.202 243.286 96.202C245.56 96.202 247.576 96.6603 249.336 97.577C251.133 98.457 252.545 99.7036 253.571 101.317L252.471 102.802V85.147H259.676V126.782H252.856V121.007L253.626 122.437C252.6 124.05 251.17 125.297 249.336 126.177C247.503 127.02 245.505 127.442 243.341 127.442ZM244.111 120.842C245.761 120.842 247.21 120.457 248.456 119.687C249.703 118.917 250.675 117.854 251.371 116.497C252.105 115.14 252.471 113.582 252.471 111.822C252.471 110.099 252.105 108.559 251.371 107.202C250.675 105.809 249.703 104.727 248.456 103.957C247.21 103.187 245.761 102.802 244.111 102.802C242.498 102.802 241.05 103.205 239.766 104.012C238.483 104.782 237.475 105.845 236.741 107.202C236.045 108.522 235.696 110.062 235.696 111.822C235.696 113.582 236.045 115.14 236.741 116.497C237.475 117.854 238.483 118.917 239.766 119.687C241.05 120.457 242.498 120.842 244.111 120.842ZM299.31 127.442C296.377 127.442 293.663 126.91 291.17 125.847C288.713 124.784 286.55 123.299 284.68 121.392C282.847 119.485 281.417 117.249 280.39 114.682C279.363 112.115 278.85 109.31 278.85 106.267C278.85 103.224 279.345 100.419 280.335 97.852C281.362 95.2486 282.792 93.012 284.625 91.142C286.495 89.2353 288.677 87.7686 291.17 86.742C293.663 85.6786 296.377 85.147 299.31 85.147C302.243 85.147 304.865 85.642 307.175 86.632C309.522 87.622 311.502 88.942 313.115 90.592C314.728 92.2053 315.883 93.9836 316.58 95.927L309.87 99.062C309.1 97.0086 307.798 95.322 305.965 94.002C304.132 92.6453 301.913 91.967 299.31 91.967C296.743 91.967 294.47 92.572 292.49 93.782C290.547 94.992 289.025 96.6603 287.925 98.787C286.862 100.914 286.33 103.407 286.33 106.267C286.33 109.127 286.862 111.639 287.925 113.802C289.025 115.929 290.547 117.597 292.49 118.807C294.47 120.017 296.743 120.622 299.31 120.622C301.913 120.622 304.132 119.962 305.965 118.642C307.798 117.285 309.1 115.58 309.87 113.527L316.58 116.662C315.883 118.605 314.728 120.402 313.115 122.052C311.502 123.665 309.522 124.967 307.175 125.957C304.865 126.947 302.243 127.442 299.31 127.442ZM337.791 127.442C334.857 127.442 332.181 126.764 329.761 125.407C327.377 124.05 325.471 122.199 324.041 119.852C322.647 117.505 321.951 114.829 321.951 111.822C321.951 108.815 322.647 106.139 324.041 103.792C325.471 101.445 327.377 99.5936 329.761 98.237C332.144 96.8803 334.821 96.202 337.791 96.202C340.724 96.202 343.382 96.8803 345.766 98.237C348.149 99.5936 350.037 101.445 351.431 103.792C352.861 106.102 353.576 108.779 353.576 111.822C353.576 114.829 352.861 117.505 351.431 119.852C350.001 122.199 348.094 124.05 345.711 125.407C343.327 126.764 340.687 127.442 337.791 127.442ZM337.791 120.842C339.404 120.842 340.816 120.457 342.026 119.687C343.272 118.917 344.244 117.854 344.941 116.497C345.674 115.104 346.041 113.545 346.041 111.822C346.041 110.062 345.674 108.522 344.941 107.202C344.244 105.845 343.272 104.782 342.026 104.012C340.816 103.205 339.404 102.802 337.791 102.802C336.141 102.802 334.692 103.205 333.446 104.012C332.199 104.782 331.209 105.845 330.476 107.202C329.779 108.522 329.431 110.062 329.431 111.822C329.431 113.545 329.779 115.104 330.476 116.497C331.209 117.854 332.199 118.917 333.446 119.687C334.692 120.457 336.141 120.842 337.791 120.842ZM373.792 127.112C370.419 127.112 367.797 126.195 365.927 124.362C364.094 122.492 363.177 119.87 363.177 116.497V103.297H358.007V96.862H358.557C360.024 96.862 361.161 96.477 361.967 95.707C362.774 94.937 363.177 93.8186 363.177 92.352V90.042H370.382V96.862H377.257V103.297H370.382V116.112C370.382 117.102 370.547 117.945 370.877 118.642C371.244 119.339 371.794 119.87 372.527 120.237C373.297 120.604 374.269 120.787 375.442 120.787C375.699 120.787 375.992 120.769 376.322 120.732C376.689 120.695 377.037 120.659 377.367 120.622V126.782C376.854 126.855 376.267 126.929 375.607 127.002C374.947 127.075 374.342 127.112 373.792 127.112ZM398.162 127.112C394.789 127.112 392.167 126.195 390.297 124.362C388.464 122.492 387.547 119.87 387.547 116.497V103.297H382.377V96.862H382.927C384.394 96.862 385.531 96.477 386.337 95.707C387.144 94.937 387.547 93.8186 387.547 92.352V90.042H394.752V96.862H401.627V103.297H394.752V116.112C394.752 117.102 394.917 117.945 395.247 118.642C395.614 119.339 396.164 119.87 396.897 120.237C397.667 120.604 398.639 120.787 399.812 120.787C400.069 120.787 400.362 120.769 400.692 120.732C401.059 120.695 401.407 120.659 401.737 120.622V126.782C401.224 126.855 400.637 126.929 399.977 127.002C399.317 127.075 398.712 127.112 398.162 127.112ZM423.253 127.442C420.32 127.442 417.643 126.764 415.223 125.407C412.84 124.05 410.933 122.199 409.503 119.852C408.11 117.505 407.413 114.829 407.413 111.822C407.413 108.815 408.11 106.139 409.503 103.792C410.933 101.445 412.84 99.5936 415.223 98.237C417.607 96.8803 420.283 96.202 423.253 96.202C426.187 96.202 428.845 96.8803 431.228 98.237C433.612 99.5936 435.5 101.445 436.893 103.792C438.323 106.102 439.038 108.779 439.038 111.822C439.038 114.829 438.323 117.505 436.893 119.852C435.463 122.199 433.557 124.05 431.173 125.407C428.79 126.764 426.15 127.442 423.253 127.442ZM423.253 120.842C424.867 120.842 426.278 120.457 427.488 119.687C428.735 118.917 429.707 117.854 430.403 116.497C431.137 115.104 431.503 113.545 431.503 111.822C431.503 110.062 431.137 108.522 430.403 107.202C429.707 105.845 428.735 104.782 427.488 104.012C426.278 103.205 424.867 102.802 423.253 102.802C421.603 102.802 420.155 103.205 418.908 104.012C417.662 104.782 416.672 105.845 415.938 107.202C415.242 108.522 414.893 110.062 414.893 111.822C414.893 113.545 415.242 115.104 415.938 116.497C416.672 117.854 417.662 118.917 418.908 119.687C420.155 120.457 421.603 120.842 423.253 120.842ZM446.152 126.782V96.862H452.917V102.747L452.367 101.702C453.064 99.9053 454.201 98.5486 455.777 97.632C457.391 96.6786 459.261 96.202 461.387 96.202C463.587 96.202 465.531 96.6786 467.217 97.632C468.941 98.5853 470.279 99.9236 471.232 101.647C472.186 103.334 472.662 105.295 472.662 107.532V126.782H465.457V109.237C465.457 107.917 465.201 106.78 464.687 105.827C464.174 104.874 463.459 104.14 462.542 103.627C461.662 103.077 460.617 102.802 459.407 102.802C458.234 102.802 457.189 103.077 456.272 103.627C455.356 104.14 454.641 104.874 454.127 105.827C453.614 106.78 453.357 107.917 453.357 109.237V126.782H446.152Z" fill="#85BA09"/>
<g clipPath="url(#clip0_776_2)">
<path d="M87.4999 33.6757L90.3874 38.2132L87.0874 40.482L89.7687 41.1007L95.5437 42.3382L96.7812 36.7695L97.6062 33.882L93.8937 36.1507L89.7687 29.3445H85.2312L79.8687 38.2132L83.3749 40.2757L87.4999 33.6757Z" fill="#85BA09"/>
<path d="M104 52.0321L98.4313 43.1633L94.925 45.2258L99.05 52.0321H93.6875V47.9071L87.5 54.0946L93.6875 60.2821V56.1571H101.319L104 52.0321Z" fill="#85BA09"/>
<path d="M75.95 52.032L78.8375 47.2883L82.3438 49.557L80.4875 40.8945L74.7125 42.3383L72.0312 42.957L75.3312 45.0195L71 52.032L73.6812 56.157H85.4375V52.032H75.95Z" fill="#85BA09"/>
</g>
<defs>
<clipPath id="clip0_776_2">
<rect width="33" height="33" fill="white" transform="translate(71 27.282)"/>
</clipPath>
</defs>
</svg>
