<svg width="30" height="30" viewBox="0 0 30 30" fill="none" xmlns="http://www.w3.org/2000/svg">
<rect y="0.377686" width="29.0266" height="29.0266" rx="3.72136" fill="#85BA09"/>
<path d="M7.28077 6.40486C7.28077 5.66268 7.52148 5.09099 8.0029 4.68981C8.50438 4.26856 9.20645 4.05794 10.1091 4.05794V23.3147C10.1091 24.0569 9.85837 24.6387 9.3569 25.0599C8.87548 25.4611 8.18343 25.6617 7.28077 25.6617V6.40486Z" fill="white"/>
<path d="M10.4743 14.859C10.4903 14.2356 10.7869 13.8208 11.3641 13.6147L24.3697 8.97774C24.4313 9.10929 24.4852 9.28613 24.5315 9.50827C24.5778 9.73041 24.5987 9.9259 24.5944 10.0947C24.568 11.1208 24.1353 11.7725 23.2964 12.0499L14.8224 14.8343L13.5875 14.3347L13.5041 14.547L23.1356 18.3037C23.9589 18.6368 24.3575 19.3099 24.3314 20.323C24.3271 20.4919 24.2961 20.686 24.2385 20.9055C24.1808 21.1249 24.1177 21.3053 24.0491 21.4465L11.299 16.1474C11.0289 16.0365 10.8187 15.8686 10.6686 15.6438C10.531 15.4323 10.4663 15.1707 10.4743 14.859Z" fill="white"/>
</svg>
