<svg width="70" height="30" viewBox="0 0 70 30" fill="none" xmlns="http://www.w3.org/2000/svg">
<path d="M1.17335 6.02168C1.17335 5.6707 1.29192 5.40035 1.52907 5.21064C1.76622 5.01144 2.09348 4.91183 2.51085 4.91183V9.79229L7.70434 4.91183C7.86559 5.04464 7.9984 5.18692 8.10274 5.3387C8.20708 5.48098 8.25926 5.60904 8.25926 5.72287C8.25926 5.96002 8.11697 6.21139 7.83239 6.47699L4.50287 9.60731L8.79995 14.7581C8.6956 14.8719 8.57229 14.9621 8.43 15.0285C8.2972 15.0949 8.1644 15.1281 8.0316 15.1281C7.66165 15.1281 7.36285 14.9953 7.13519 14.7297L3.53532 10.461L2.51085 11.4144V14.0609C2.51085 14.4214 2.40177 14.6917 2.18359 14.8719C1.96542 15.0427 1.62867 15.1281 1.17335 15.1281V6.02168ZM16.0984 15.1281C15.3111 15.1281 14.6044 14.9763 13.9783 14.6727C13.3617 14.3597 12.878 13.9328 12.527 13.3922C12.176 12.842 12.0005 12.2349 12.0005 11.5709V8.44056C12.0005 7.77655 12.176 7.17895 12.527 6.64774C12.878 6.10705 13.3617 5.68493 13.9783 5.38138C14.6044 5.06835 15.3111 4.91183 16.0984 4.91183C16.8952 4.91183 17.6019 5.06835 18.2185 5.38138C18.8445 5.68493 19.3331 6.10705 19.684 6.64774C20.035 7.17895 20.2105 7.77655 20.2105 8.44056V11.5709C20.2105 12.2349 20.035 12.842 19.684 13.3922C19.3331 13.9328 18.8445 14.3597 18.2185 14.6727C17.5924 14.9763 16.8857 15.1281 16.0984 15.1281ZM16.0984 13.9613C16.9806 13.9613 17.6683 13.7431 18.1616 13.3068C18.6548 12.8704 18.9015 12.2871 18.9015 11.5566V8.46902C18.9015 7.73861 18.6548 7.15997 18.1616 6.73311C17.6683 6.29676 16.9806 6.07859 16.0984 6.07859C15.2257 6.07859 14.5427 6.29676 14.0495 6.73311C13.5562 7.15997 13.3096 7.73861 13.3096 8.46902V11.5566C13.3096 12.2871 13.5562 12.8704 14.0495 13.3068C14.5427 13.7431 15.2257 13.9613 16.0984 13.9613ZM24.6924 5.66596C24.6924 5.48573 24.7541 5.3387 24.8774 5.22487C25.0102 5.10155 25.1762 5.03989 25.3754 5.03989H29.3025C30.2227 5.03989 30.9531 5.31024 31.4938 5.85093C32.0439 6.38214 32.319 7.09357 32.319 7.98524C32.319 9.10457 31.8305 9.89663 30.8535 10.3614V10.4041C31.2803 10.5844 31.6076 10.8594 31.8352 11.2294C32.0629 11.5898 32.1767 12.0309 32.1767 12.5527V14.0182C32.1767 14.3787 32.0629 14.6538 31.8352 14.8435C31.6076 15.0332 31.2756 15.1281 30.8392 15.1281V12.638C30.8392 12.0784 30.7112 11.6562 30.4551 11.3717C30.2084 11.0776 29.8385 10.9306 29.3452 10.9306H26.0157V14.0182C26.0157 14.3787 25.9019 14.6538 25.6742 14.8435C25.456 15.0332 25.1288 15.1281 24.6924 15.1281V5.66596ZM29.2598 9.77806C29.7816 9.77806 30.1942 9.6168 30.4977 9.29428C30.8108 8.97176 30.9673 8.53067 30.9673 7.97101C30.9673 7.40186 30.8203 6.96551 30.5262 6.66197C30.2321 6.35842 29.81 6.20665 29.2598 6.20665H26.0157V9.77806H29.2598ZM39.4883 6.22088H36.0165C36.0165 5.43355 36.3864 5.03989 37.1263 5.03989H44.2834C44.2834 5.82722 43.9134 6.22088 43.1735 6.22088H40.8258V14.0182C40.8258 14.3787 40.712 14.6538 40.4843 14.8435C40.2567 15.0332 39.9246 15.1281 39.4883 15.1281V6.22088ZM48.6284 5.66596C48.6284 5.48573 48.6948 5.3387 48.8276 5.22487C48.9604 5.10155 49.1216 5.03989 49.3113 5.03989H55.6147C55.6147 5.4383 55.534 5.73236 55.3728 5.92207C55.2115 6.11179 54.9601 6.20665 54.6187 6.20665H49.9659V9.39388H53.9499C53.9499 9.79229 53.8693 10.0863 53.708 10.2761C53.5468 10.4658 53.3001 10.5606 52.9681 10.5606H49.9659V13.8332H54.9175C55.2495 13.8332 55.4961 13.9281 55.6574 14.1178C55.8186 14.3075 55.8992 14.6016 55.8992 15H49.3113C49.1216 15 48.9604 14.9431 48.8276 14.8293C48.6948 14.7059 48.6284 14.5542 48.6284 14.3739V5.66596ZM60.4039 15.1281C60.1098 15.1281 59.8632 15.0285 59.664 14.8293L63.2069 9.86343L59.8489 5.15372C60.0387 4.99246 60.2711 4.91183 60.5461 4.91183C60.7453 4.91183 60.9256 4.94978 61.0868 5.02566C61.2576 5.10155 61.3904 5.2059 61.4852 5.3387L63.8757 8.76782L63.5484 9.20891L63.648 9.28005L66.4084 5.3387C66.5032 5.2059 66.6313 5.10155 66.7926 5.02566C66.9633 4.94978 67.1483 4.91183 67.3475 4.91183C67.4708 4.91183 67.5941 4.93555 67.7174 4.98298C67.8502 5.02092 67.9593 5.07784 68.0447 5.15372L64.6867 9.86343L68.2297 14.8293C68.0305 15.0285 67.7838 15.1281 67.4898 15.1281C67.319 15.1281 67.1578 15.0854 67.006 15C66.8637 14.9241 66.7404 14.815 66.636 14.6727L63.9468 10.8594L61.2576 14.6727C61.1532 14.815 61.0252 14.9241 60.8734 15C60.7311 15.0854 60.5746 15.1281 60.4039 15.1281Z" fill="#85BA09"/>
<path d="M20.5267 27.8588C20.3389 27.8588 20.2109 27.7734 20.1426 27.6027L17.94 21.8059C17.9855 21.7832 18.0396 21.7661 18.1022 21.7547C18.1648 21.7376 18.2217 21.7291 18.2729 21.7291C18.4323 21.7291 18.566 21.7689 18.6742 21.8486C18.788 21.9226 18.8705 22.0279 18.9217 22.1645L20.4841 26.527L20.3304 26.9624L20.3987 26.988L22.1317 22.1645C22.183 22.0279 22.2655 21.9226 22.3793 21.8486C22.4932 21.7689 22.6298 21.7291 22.7891 21.7291C22.8859 21.7291 22.9969 21.7547 23.1221 21.8059L20.9195 27.6027C20.891 27.6824 20.8426 27.745 20.7743 27.7905C20.706 27.8361 20.6235 27.8588 20.5267 27.8588ZM25.9935 22.7962C25.8341 22.7962 25.7004 22.745 25.5923 22.6426C25.4841 22.5401 25.4301 22.4121 25.4301 22.2584C25.4301 22.1047 25.4841 21.9795 25.5923 21.8828C25.7004 21.7803 25.8341 21.7291 25.9935 21.7291C26.1472 21.7291 26.2781 21.7803 26.3862 21.8828C26.4944 21.9795 26.5484 22.1047 26.5484 22.2584C26.5484 22.4121 26.4944 22.5401 26.3862 22.6426C26.2781 22.745 26.1472 22.7962 25.9935 22.7962ZM25.6179 23.9829C25.6179 23.7951 25.6776 23.6585 25.7972 23.5731C25.9224 23.4821 26.1102 23.4365 26.3606 23.4365V27.3124C26.3606 27.5003 26.298 27.6397 26.1728 27.7308C26.0533 27.8161 25.8683 27.8588 25.6179 27.8588V23.9829ZM29.5491 27.782C29.4581 27.782 29.3841 27.7507 29.3272 27.6881C29.2703 27.6198 29.2418 27.5429 29.2418 27.4576C29.2418 27.3893 29.2646 27.3267 29.3101 27.2697L32.0847 23.8975L32.0505 23.8719L31.8457 24.1024H29.865C29.7 24.1024 29.5719 24.0484 29.4808 23.9402C29.3955 23.8321 29.3528 23.6898 29.3528 23.5134H32.5628C32.6595 23.5134 32.7335 23.5418 32.7847 23.5987C32.8417 23.6557 32.8701 23.7268 32.8701 23.8122C32.8701 23.8918 32.8445 23.9658 32.7933 24.0341L30.0358 27.3807L30.0784 27.4149L30.2663 27.1929H32.3835C32.5485 27.1929 32.6738 27.247 32.7591 27.3551C32.8502 27.4633 32.8957 27.6055 32.8957 27.782H29.5491ZM35.7829 29.5577C35.43 29.5577 35.2451 29.3528 35.228 28.943C35.3987 28.9658 35.5211 28.9772 35.5951 28.9772C35.8455 28.9772 36.0447 28.9032 36.1927 28.7552C36.3464 28.6072 36.5029 28.3511 36.6623 27.9869L36.833 27.6027L35.1512 23.4963C35.191 23.4792 35.2422 23.465 35.3048 23.4536C35.3731 23.4422 35.43 23.4365 35.4756 23.4365C35.5951 23.4422 35.7032 23.4764 35.8 23.539C35.8967 23.5959 35.965 23.6727 36.0049 23.7695L37.1489 26.6892L37.0294 27.0307L37.0806 27.0563L38.3782 23.7695C38.4181 23.667 38.4835 23.5874 38.5746 23.5304C38.6713 23.4678 38.7795 23.4365 38.899 23.4365C38.9502 23.4365 39.0071 23.4422 39.0698 23.4536C39.138 23.465 39.1893 23.4792 39.2234 23.4963L37.3025 28.2003C37.1147 28.6556 36.9041 28.9943 36.6708 29.2162C36.4374 29.4439 36.1415 29.5577 35.7829 29.5577ZM42.9794 27.8588C42.6322 27.8588 42.3163 27.7934 42.0318 27.6625C41.7529 27.5316 41.5338 27.3551 41.3744 27.1332C41.2207 26.9055 41.1439 26.6522 41.1439 26.3733V24.9732C41.1439 24.6887 41.2207 24.4297 41.3744 24.1963C41.5338 23.963 41.7529 23.778 42.0318 23.6414C42.3107 23.5048 42.6265 23.4365 42.9794 23.4365C43.3323 23.4365 43.6482 23.5048 43.927 23.6414C44.2116 23.778 44.4307 23.963 44.5844 24.1963C44.7438 24.4297 44.8234 24.6887 44.8234 24.9732V26.3733C44.8234 26.6522 44.7438 26.9055 44.5844 27.1332C44.425 27.3551 44.2059 27.5316 43.927 27.6625C43.6482 27.7934 43.3323 27.8588 42.9794 27.8588ZM42.9794 27.2185C43.3209 27.2185 43.5912 27.1388 43.7904 26.9795C43.9953 26.8144 44.0978 26.601 44.0978 26.3392V24.9988C44.0978 24.7257 43.9953 24.5037 43.7904 24.3329C43.5912 24.1622 43.3209 24.0768 42.9794 24.0768C42.6436 24.0768 42.3733 24.1622 42.1684 24.3329C41.9635 24.5037 41.861 24.7257 41.861 24.9988V26.3392C41.861 26.601 41.9606 26.8144 42.1598 26.9795C42.3647 27.1388 42.6379 27.2185 42.9794 27.2185ZM47.5168 24.0683C47.5168 23.6471 47.7559 23.4365 48.2339 23.4365V23.9829C48.1827 24.0341 48.123 24.111 48.0547 24.2134L48.0888 24.2476C48.2595 24.0085 48.4815 23.815 48.7547 23.667C49.0279 23.5134 49.3239 23.4365 49.6426 23.4365C50.1036 23.4365 50.4678 23.5731 50.7353 23.8463C51.0028 24.1195 51.1366 24.4724 51.1366 24.9049V27.3124C51.1366 27.5003 51.074 27.6397 50.9488 27.7308C50.8293 27.8161 50.6443 27.8588 50.3939 27.8588V24.9818C50.3939 24.7086 50.317 24.4923 50.1634 24.3329C50.0097 24.1736 49.7763 24.0939 49.4633 24.0939C49.2527 24.0939 49.0535 24.1394 48.8657 24.2305C48.6836 24.3159 48.5356 24.4354 48.4218 24.5891C48.3136 24.737 48.2595 24.8992 48.2595 25.0757V27.3124C48.2595 27.5003 48.1969 27.6397 48.0717 27.7308C47.9522 27.8161 47.7672 27.8588 47.5168 27.8588V24.0683Z" fill="#85BA09"/>
</svg>
