<svg width="30" height="30" viewBox="0 0 30 30" fill="none" xmlns="http://www.w3.org/2000/svg">
<rect width="29.0266" height="29.0266" rx="3.72136" fill="#85BA09"/>
<path d="M7.28077 6.02718C7.28077 5.28499 7.52148 4.7133 8.0029 4.31212C8.50438 3.89088 9.20645 3.68026 10.1091 3.68026V22.9371C10.1091 23.6792 9.85837 24.261 9.3569 24.6822C8.87548 25.0834 8.18343 25.284 7.28077 25.284V6.02718Z" fill="white"/>
<path d="M10.4743 14.4813C10.4903 13.8579 10.7869 13.4431 11.3641 13.237L24.3697 8.60005C24.4313 8.7316 24.4852 8.90845 24.5315 9.13058C24.5778 9.35272 24.5987 9.54821 24.5944 9.71706C24.568 10.7431 24.1353 11.3949 23.2964 11.6722L14.8224 14.4566L13.5875 13.957L13.5041 14.1693L23.1356 17.9261C23.9589 18.2592 24.3575 18.9322 24.3314 19.9453C24.3271 20.1142 24.2961 20.3083 24.2385 20.5278C24.1808 20.7473 24.1177 20.9276 24.0491 21.0688L11.299 15.7697C11.0289 15.6588 10.8187 15.4909 10.6686 15.2661C10.531 15.0546 10.4663 14.793 10.4743 14.4813Z" fill="white"/>
</svg>
