<svg width="27" height="29" viewBox="0 0 27 29" fill="none" xmlns="http://www.w3.org/2000/svg">
<path d="M3.67539 3.44944C3.67539 2.48839 3.98708 1.74812 4.61047 1.22863C5.25983 0.683171 6.16893 0.41044 7.33778 0.41044V25.3458C7.33778 26.3069 7.0131 27.0601 6.36374 27.6056C5.74035 28.1251 4.84424 28.3848 3.67539 28.3848V3.44944Z" fill="#85BA09"/>
<path d="M8.25409 15.0276C8.27485 14.2203 8.6589 13.6833 9.40626 13.4164L26.247 7.41206C26.3268 7.5824 26.3967 7.8114 26.4566 8.09904C26.5165 8.38668 26.5437 8.63982 26.538 8.85846C26.5039 10.1871 25.9436 11.031 24.8573 11.3902L13.8844 14.9957L12.2854 14.3487L12.1773 14.6236L24.6491 19.4882C25.7151 19.9195 26.2313 20.7911 26.1975 22.1029C26.1919 22.3215 26.1518 22.573 26.0772 22.8571C26.0025 23.1413 25.9208 23.3748 25.832 23.5577L9.32195 16.6959C8.97222 16.5523 8.70012 16.335 8.50565 16.0439C8.32757 15.77 8.24372 15.4313 8.25409 15.0276Z" fill="#85BA09"/>
</svg>
